<?xml version="1.0" encoding="UTF-8"?>
<svg id="a" data-name="Layer 1" xmlns="http://www.w3.org/2000/svg" viewBox="0 0 300.67 324.53">
  <defs>
    <style>
      .b {
        fill: #fff;
        stroke-width: 0px;
      }
    </style>
  </defs>
  <polygon class="b" points="83.79 202.39 150.49 235.74 217.19 202.39 217.19 169.04 150.49 202.39 83.79 169.04 83.79 202.39"/>
  <polygon class="b" points="216.7 124.39 150 91.05 83.3 124.39 83.3 157.74 150 124.39 216.7 157.74 216.7 124.39"/>
  <path class="b" d="m48.29,245.33l14.49-14.49V93.69l-14.49-14.49V14.5L33.8,0,0,28.97v79.2l33.8,28.97v50.22L0,216.36v79.2l33.8,28.97,14.49-14.49v-64.71Z"/>
  <path class="b" d="m252.38,79.2l-14.49,14.49v137.15l14.49,14.49v64.71l14.49,14.49,33.8-28.97v-79.2l-33.8-28.98v-50.22l33.8-28.97V28.97L266.87,0l-14.49,14.49v64.71Z"/>
  <polygon class="b" points="234.37 173.89 234.57 150.64 222.95 162.37 234.37 173.89"/>
  <polygon class="b" points="66.12 150.64 65.92 173.89 77.54 162.17 66.12 150.64"/>
</svg>