<svg xmlns="http://www.w3.org/2000/svg" xmlns:xlink="http://www.w3.org/1999/xlink" width="500" zoomAndPan="magnify" viewBox="0 0 375 374.999991" height="500" preserveAspectRatio="xMidYMid meet" version="1.0"><path fill="#ffffff" d="M 118.128906 168.191406 L 147.429688 138.890625 C 150.15625 136.164062 154.617188 136.164062 157.34375 138.890625 L 165.332031 146.878906 C 168.058594 149.605469 168.089844 154.035156 165.242188 156.886719 L 171.960938 163.605469 C 174.007812 164.101562 176.328125 164.535156 178.683594 165 C 185.652344 166.332031 192.964844 167.726562 196.089844 170.824219 C 196.835938 171.566406 197.886719 172.589844 199.128906 173.828125 C 195.410156 157.816406 204.949219 141.613281 220.871094 137.246094 C 226.011719 135.824219 231.464844 135.761719 236.605469 137.0625 L 240.324219 137.992188 L 230.660156 147.65625 L 244.597656 151.371094 L 248.316406 165.3125 L 257.980469 155.648438 L 258.90625 159.363281 C 263.183594 176.367188 252.433594 193.558594 235.179688 197.027344 C 229.761719 198.113281 224.0625 197.742188 218.796875 195.851562 L 210.773438 203.875 L 214.863281 207.960938 C 219.539062 212.640625 216.75 219.300781 211.609375 221.035156 C 214.367188 225.277344 212.011719 230.574219 207.738281 232.402344 C 205.445312 233.394531 202.75 233.332031 200.335938 231.535156 C 198.878906 235.964844 193.890625 237.882812 189.214844 235.53125 C 187.605469 239.960938 181.285156 241.292969 176.515625 238.101562 L 167.285156 247.332031 L 148.609375 228.652344 L 157.3125 219.949219 C 149.566406 208.800781 148.328125 206.910156 143.496094 192.660156 L 136.496094 185.660156 L 136.03125 186.125 C 133.304688 188.851562 128.847656 188.851562 126.121094 186.125 L 118.128906 178.132812 C 115.402344 175.347656 115.402344 170.917969 118.128906 168.191406 Z M 162.144531 159.921875 L 139.53125 182.53125 L 147.246094 190.214844 L 147.398438 190.710938 C 152.292969 205.082031 153.347656 206.601562 161.277344 218.03125 C 161.832031 218.867188 161.523438 218.402344 161.277344 218.03125 L 161.742188 218.710938 L 163.164062 220.136719 L 163.011719 220.289062 L 176.238281 232.152344 L 176.328125 232.0625 L 178.621094 234.292969 C 180.355469 235.5625 182.214844 235.746094 183.578125 235.28125 C 185.46875 234.632812 185.746094 233.175781 184.011719 231.441406 L 169.082031 216.511719 L 172.148438 213.445312 L 187.078125 228.375 L 189.152344 230.234375 C 194.511719 235.066406 198.414062 229.769531 195.039062 226.390625 L 177.878906 209.261719 L 180.914062 206.195312 L 198.074219 223.324219 L 202.253906 227.507812 C 205.539062 230.789062 210.496094 225.835938 207.210938 222.550781 L 203.742188 219.019531 L 203.773438 218.988281 L 186.519531 201.769531 L 189.585938 198.703125 L 206.21875 215.304688 L 207.117188 216.203125 C 210.125 218.957031 215.078125 214.28125 211.796875 211 L 204.640625 203.84375 L 189.03125 188.230469 L 198.261719 179 L 193.023438 173.796875 C 190.886719 171.691406 184.167969 170.421875 177.910156 169.214844 C 176.609375 168.964844 170.074219 167.664062 169.761719 167.480469 Z M 150.496094 141.925781 L 121.195312 171.226562 C 120.171875 172.25 120.171875 173.953125 121.195312 175.003906 L 129.1875 182.996094 C 130.207031 184.019531 131.914062 184.019531 132.964844 182.996094 L 162.265625 153.695312 C 163.289062 152.671875 163.289062 150.96875 162.265625 149.917969 L 154.277344 141.925781 C 153.253906 140.902344 151.550781 140.902344 150.496094 141.925781 Z M 204.332031 178.96875 L 195.101562 188.199219 L 207.644531 200.746094 L 217.679688 190.742188 L 219.011719 191.296875 C 233.695312 197.308594 250.328125 189.097656 254.507812 173.890625 C 255.375 170.761719 255.65625 167.511719 255.347656 164.320312 L 235.832031 183.832031 L 217.0625 178.816406 L 212.042969 160.046875 L 231.558594 140.53125 C 218.082031 139.230469 205.785156 148.335938 203.121094 161.59375 C 202.101562 166.671875 202.597656 172 204.578125 176.863281 L 205.136719 178.195312 Z M 173.203125 235.21875 C 168.773438 231.253906 164.375 227.289062 159.976562 223.324219 L 154.710938 228.589844 L 167.253906 241.136719 Z M 161.308594 218.058594 C 161.089844 217.78125 160.933594 217.535156 161.308594 218.058594 Z M 237.289062 158.589844 C 240.851562 162.152344 240.851562 167.945312 237.289062 171.535156 C 233.726562 175.097656 227.933594 175.097656 224.339844 171.535156 C 220.746094 167.972656 220.777344 162.183594 224.339844 158.589844 C 227.933594 154.996094 233.726562 154.996094 237.289062 158.589844 Z M 234.222656 168.46875 C 237.257812 165.433594 235.058594 160.230469 230.8125 160.230469 C 226.539062 160.230469 224.371094 165.433594 227.40625 168.46875 C 229.296875 170.328125 232.332031 170.328125 234.222656 168.46875 Z M 242.863281 161.808594 L 241.003906 154.839844 L 227.066406 151.125 L 216.875 161.316406 L 220.59375 175.253906 L 234.5 178.96875 L 244.691406 168.78125 Z M 242.863281 161.808594 " fill-opacity="1" fill-rule="nonzero"/></svg>