<svg xmlns="http://www.w3.org/2000/svg" xmlns:xlink="http://www.w3.org/1999/xlink" width="500" zoomAndPan="magnify" viewBox="0 0 375 374.999991" height="500" preserveAspectRatio="xMidYMid meet" version="1.0"><path fill="#ffffff" d="M 177.585938 153.914062 C 186.664062 153.914062 194.015625 161.269531 194.015625 170.34375 C 194.015625 179.414062 186.664062 186.769531 177.585938 186.769531 C 168.503906 186.769531 161.15625 179.414062 161.15625 170.34375 C 161.15625 161.269531 168.515625 153.914062 177.585938 153.914062 Z M 140.132812 227.882812 L 215.050781 227.882812 L 215.050781 222.699219 L 140.132812 222.699219 Z M 217.167969 232.121094 C 218.328125 232.121094 219.273438 231.171875 219.273438 230 L 219.273438 220.582031 C 219.273438 219.410156 218.328125 218.464844 217.167969 218.464844 L 199.09375 218.464844 L 199.09375 207.335938 L 209.511719 207.335938 C 210.195312 207.335938 210.8125 207.007812 211.191406 206.496094 L 224.851562 189.824219 C 227.160156 187.332031 227.335938 184.414062 226.285156 181.964844 C 224.332031 177.386719 218.210938 174.960938 213.867188 179.191406 L 203.675781 189.109375 L 151.351562 189.109375 L 141.230469 179.25 C 136.875 175.019531 130.753906 177.449219 128.800781 182.027344 C 127.757812 184.472656 127.925781 187.390625 130.234375 189.882812 L 143.882812 206.558594 C 144.296875 207.066406 144.902344 207.332031 145.515625 207.332031 L 156.085938 207.332031 L 156.085938 218.464844 L 138.011719 218.464844 C 136.839844 218.464844 135.894531 219.410156 135.894531 220.582031 L 135.894531 230 C 135.894531 231.171875 136.839844 232.121094 138.011719 232.121094 L 141.433594 232.121094 L 141.433594 253.148438 C 141.433594 254.320312 142.378906 255.265625 143.550781 255.265625 L 211.617188 255.265625 C 212.785156 255.265625 213.734375 254.316406 213.734375 253.148438 L 213.734375 232.121094 Z M 209.496094 232.121094 L 209.496094 251.03125 L 145.671875 251.03125 L 145.671875 232.121094 Z M 160.3125 218.464844 L 175.464844 218.464844 L 175.464844 213.394531 C 172.742188 212.492188 170.839844 209.929688 170.839844 206.988281 L 170.839844 203.359375 C 170.839844 199.644531 173.867188 196.617188 177.574219 196.609375 C 181.289062 196.609375 184.332031 199.640625 184.332031 203.359375 L 184.332031 206.988281 C 184.332031 209.929688 182.425781 212.492188 179.703125 213.394531 L 179.703125 218.464844 L 194.855469 218.464844 L 194.855469 205.214844 C 194.855469 204.046875 195.800781 203.097656 196.972656 203.097656 L 208.503906 203.097656 L 221.582031 187.132812 C 222.898438 185.523438 223.148438 183.949219 221.523438 182.355469 C 220.257812 181.097656 218.339844 180.726562 216.800781 182.222656 L 205.996094 192.742188 C 205.59375 193.140625 205.058594 193.339844 204.527344 193.339844 L 150.5 193.34375 C 149.875 193.34375 149.304688 193.070312 148.914062 192.632812 L 138.285156 182.28125 C 135.21875 179.300781 130.664062 183.738281 133.398438 187.078125 L 146.527344 203.101562 L 158.195312 203.101562 C 159.367188 203.101562 160.316406 204.050781 160.316406 205.21875 L 160.316406 218.464844 Z M 208.300781 155.742188 C 207.128906 155.742188 206.183594 154.796875 206.183594 153.625 C 206.183594 152.457031 207.128906 151.507812 208.300781 151.507812 L 224.601562 151.507812 C 225.773438 151.507812 226.71875 152.457031 226.71875 153.625 C 226.71875 154.792969 225.773438 155.742188 224.601562 155.742188 Z M 208.300781 143.152344 C 207.128906 143.152344 206.183594 142.203125 206.183594 141.035156 C 206.183594 139.867188 207.128906 138.914062 208.300781 138.914062 L 232.164062 138.914062 C 233.324219 138.914062 234.285156 139.863281 234.285156 141.035156 C 234.285156 142.203125 233.324219 143.152344 232.164062 143.152344 Z M 211.046875 171.734375 C 224.671875 176.992188 239.269531 169.429688 244.714844 156.472656 C 246.890625 151.285156 247.507812 145.351562 245.898438 139.328125 C 244.097656 132.371094 239.183594 126.582031 232.921875 123.179688 C 222.363281 117.449219 209.226562 118.8125 200.960938 127.578125 C 191.671875 137.421875 190.925781 153.738281 200.59375 163.804688 L 198.640625 172.34375 C 198.273438 173.914062 199.765625 175.320312 201.328125 174.824219 Z M 203.578125 169.679688 L 210.324219 167.539062 C 210.832031 167.328125 211.414062 167.3125 211.957031 167.539062 C 223.6875 172.460938 236.191406 165.832031 240.804688 154.835938 C 242.617188 150.511719 243.183594 145.402344 241.800781 140.394531 C 237.335938 124.113281 215.53125 118.289062 204.039062 130.472656 C 198.722656 136.101562 196.640625 144.5 198.640625 151.964844 C 199.589844 155.503906 201.460938 158.835938 204.335938 161.5625 C 204.890625 162.058594 205.152344 162.832031 204.972656 163.601562 Z M 177.582031 200.847656 C 178.957031 200.847656 180.09375 201.964844 180.09375 203.359375 L 180.09375 206.988281 C 180.09375 207.675781 179.808594 208.304688 179.359375 208.761719 C 177.75 210.363281 175.074219 209.179688 175.074219 206.988281 L 175.074219 203.359375 C 175.074219 201.984375 176.210938 200.847656 177.585938 200.847656 Z M 186.199219 161.722656 C 181.441406 156.960938 173.722656 156.960938 168.964844 161.722656 C 164.195312 166.484375 164.195312 174.207031 168.964844 178.964844 C 173.726562 183.726562 181.441406 183.726562 186.199219 178.964844 C 190.972656 174.207031 190.972656 166.484375 186.199219 161.722656 Z M 186.199219 161.722656 " fill-opacity="1" fill-rule="evenodd"/></svg>