<?xml version="1.0" encoding="UTF-8"?>
<!DOCTYPE svg PUBLIC "-//W3C//DTD SVG 1.1//EN" "http://www.w3.org/Graphics/SVG/1.1/DTD/svg11.dtd">
<svg xmlns="http://www.w3.org/2000/svg" version="1.1" width="500px" height="500px" style="shape-rendering:geometricPrecision; text-rendering:geometricPrecision; image-rendering:optimizeQuality; fill-rule:evenodd; clip-rule:evenodd" xmlns:xlink="http://www.w3.org/1999/xlink">
<g><path style="opacity:0.039" fill="#fefeed" d="M 358.5,161.5 C 297.167,161.5 235.833,161.5 174.5,161.5C 163.167,161.5 151.833,161.5 140.5,161.5C 140.5,163.167 140.5,164.833 140.5,166.5C 139.549,164.882 138.216,163.549 136.5,162.5C 137.333,160.833 138.167,159.167 139,157.5C 141.351,158.714 143.851,159.548 146.5,160C 217.335,160.167 288.001,160.667 358.5,161.5 Z"/></g>
<g><path style="opacity:1" fill="#cab084" d="M 174.5,162.5 C 174.5,162.167 174.5,161.833 174.5,161.5C 235.833,161.5 297.167,161.5 358.5,161.5C 358.5,163.5 358.5,165.5 358.5,167.5C 356.396,167.799 354.396,167.466 352.5,166.5C 354.045,165.548 355.712,165.215 357.5,165.5C 357.5,164.5 357.5,163.5 357.5,162.5C 344.853,163.349 332.187,163.682 319.5,163.5C 308.094,163.114 296.761,163.781 285.5,165.5C 281.44,164.506 277.44,164.839 273.5,166.5C 273.709,167.086 274.043,167.586 274.5,168C 271.5,168.333 268.5,168.667 265.5,169C 268.051,169.002 270.051,169.836 271.5,171.5C 264.243,170.948 257.243,171.948 250.5,174.5C 246.633,173.865 242.8,173.199 239,172.5C 237.513,173.253 237.346,174.086 238.5,175C 237.167,175.667 235.833,176.333 234.5,177C 234.833,177.333 235.167,177.667 235.5,178C 231.496,178.997 227.496,179.831 223.5,180.5C 224.9,178.984 226.233,177.317 227.5,175.5C 226.833,174.5 226.167,173.5 225.5,172.5C 227.5,171.667 229.5,170.833 231.5,170C 229.055,168.222 226.389,166.889 223.5,166C 225.167,165.667 226.833,165.333 228.5,165C 228.167,164.667 227.833,164.333 227.5,164C 214.886,162.602 202.219,162.102 189.5,162.5C 186.833,162.5 184.167,162.5 181.5,162.5C 179.5,162.5 177.5,162.5 175.5,162.5C 175.167,162.5 174.833,162.5 174.5,162.5 Z"/></g>
<g><path style="opacity:1" fill="#d8b884" d="M 189.5,162.5 C 202.219,162.102 214.886,162.602 227.5,164C 227.833,164.333 228.167,164.667 228.5,165C 226.833,165.333 225.167,165.667 223.5,166C 226.389,166.889 229.055,168.222 231.5,170C 229.5,170.833 227.5,171.667 225.5,172.5C 226.167,173.5 226.833,174.5 227.5,175.5C 226.233,177.317 224.9,178.984 223.5,180.5C 220.428,180.183 217.428,180.516 214.5,181.5C 214.624,182.107 214.957,182.44 215.5,182.5C 220.965,187.464 226.298,192.63 231.5,198C 225.843,198.499 220.176,198.666 214.5,198.5C 216.709,195.595 216.709,192.595 214.5,189.5C 215.091,188.849 215.757,188.182 216.5,187.5C 215.064,185.486 213.73,183.486 212.5,181.5C 214.405,178.696 216.071,175.696 217.5,172.5C 214.381,171.306 214.048,169.806 216.5,168C 215.299,167.097 214.465,165.931 214,164.5C 206.587,163.519 199.087,163.186 191.5,163.5C 190.508,163.672 189.842,163.338 189.5,162.5 Z"/></g>
<g><path style="opacity:1" fill="#c6ad7d" d="M 319.5,163.5 C 319.5,164.833 319.5,166.167 319.5,167.5C 314.347,167.778 309.347,168.111 304.5,168.5C 306.003,170.422 308.003,171.588 310.5,172C 308.438,173.733 307.438,175.567 307.5,177.5C 302.34,178.728 302.34,179.395 307.5,179.5C 307.227,181.451 307.893,182.951 309.5,184C 308.833,184.333 308.167,184.667 307.5,185C 309.291,185.415 310.624,186.415 311.5,188C 309.083,189.144 308.416,190.81 309.5,193C 306.571,193.777 303.737,193.61 301,192.5C 300.25,193.126 299.416,193.626 298.5,194C 300.9,194.186 303.234,194.686 305.5,195.5C 302.387,195.462 299.387,195.962 296.5,197C 299.833,197.333 303.167,197.667 306.5,198C 303.451,199.057 300.451,199.224 297.5,198.5C 296.287,198.747 295.62,199.414 295.5,200.5C 295.5,201.833 295.5,203.167 295.5,204.5C 291.692,204.837 288.026,204.337 284.5,203C 285.293,201.915 285.96,200.748 286.5,199.5C 285.195,195.013 285.195,190.513 286.5,186C 286.192,184.541 285.525,183.374 284.5,182.5C 284.167,182.5 283.833,182.5 283.5,182.5C 277.835,186.476 272.502,191.476 267.5,197.5C 266.512,192.36 266.179,187.026 266.5,181.5C 266.67,180.178 266.337,179.011 265.5,178C 267.473,177.505 269.473,177.338 271.5,177.5C 271.5,176.167 271.5,174.833 271.5,173.5C 273.92,173.708 276.253,173.374 278.5,172.5C 279.192,173.025 279.692,173.692 280,174.5C 282.801,173.205 285.634,173.205 288.5,174.5C 290.444,173.811 292.444,173.311 294.5,173C 286.995,170.544 279.328,170.044 271.5,171.5C 270.051,169.836 268.051,169.002 265.5,169C 268.5,168.667 271.5,168.333 274.5,168C 274.043,167.586 273.709,167.086 273.5,166.5C 277.44,164.839 281.44,164.506 285.5,165.5C 296.761,163.781 308.094,163.114 319.5,163.5 Z"/></g>
<g><path style="opacity:1" fill="#e9bd82" d="M 191.5,163.5 C 199.087,163.186 206.587,163.519 214,164.5C 214.465,165.931 215.299,167.097 216.5,168C 214.048,169.806 214.381,171.306 217.5,172.5C 216.071,175.696 214.405,178.696 212.5,181.5C 213.73,183.486 215.064,185.486 216.5,187.5C 215.757,188.182 215.091,188.849 214.5,189.5C 211.431,188.073 210.431,188.906 211.5,192C 209.798,194.235 208.798,196.735 208.5,199.5C 209.833,199.5 211.167,199.5 212.5,199.5C 212.5,201.167 212.5,202.833 212.5,204.5C 210.554,204.193 208.887,204.193 207.5,204.5C 208.347,205.845 209.513,206.845 211,207.5C 211.758,209.769 211.591,211.936 210.5,214C 211.826,216.158 213.493,217.992 215.5,219.5C 212.721,222.723 210.721,226.39 209.5,230.5C 208.5,231 207.5,231.5 206.5,232C 207.714,234.674 209.047,237.174 210.5,239.5C 206.901,239.262 206.567,240.262 209.5,242.5C 210.396,241.494 211.062,241.494 211.5,242.5C 210.23,244.548 209.897,246.548 210.5,248.5C 208.364,249.472 207.197,251.139 207,253.5C 206.333,252.167 205.667,250.833 205,249.5C 203.194,252.636 201.027,255.469 198.5,258C 196.249,257.793 193.915,257.627 191.5,257.5C 193.446,255.49 193.446,253.824 191.5,252.5C 193.385,251.803 193.718,250.803 192.5,249.5C 200.394,247.066 200.727,245.566 193.5,245C 195.891,244.309 195.891,243.309 193.5,242C 197.5,241.333 197.5,240.667 193.5,240C 194.793,239.51 196.127,239.343 197.5,239.5C 196.563,235.082 194.73,231.082 192,227.5C 191.282,228.451 190.449,228.617 189.5,228C 190.76,224.291 192.094,220.624 193.5,217C 191.842,216.275 191.342,215.108 192,213.5C 193.205,212.929 194.372,212.262 195.5,211.5C 194.429,209.675 195.096,208.508 197.5,208C 195.167,207.667 192.833,207.333 190.5,207C 190.88,204.111 191.214,201.277 191.5,198.5C 196.694,198.058 196.694,197.058 191.5,195.5C 193.475,194.212 193.475,192.545 191.5,190.5C 193.772,189.515 196.105,188.681 198.5,188C 196.956,187.71 195.623,187.044 194.5,186C 195.91,185.632 196.91,184.799 197.5,183.5C 196.5,182.167 195.5,180.833 194.5,179.5C 197.028,178.483 197.028,177.316 194.5,176C 195.5,175.667 196.5,175.333 197.5,175C 194.968,174.381 192.635,173.381 190.5,172C 190.957,171.586 191.291,171.086 191.5,170.5C 195.796,169.672 200.129,169.172 204.5,169C 199.655,168.765 194.989,167.765 190.5,166C 191.252,165.329 191.586,164.496 191.5,163.5 Z"/></g>
<g><path style="opacity:1" fill="#d9ba82" d="M 358.5,167.5 C 358.5,168.167 358.5,168.833 358.5,169.5C 357.566,170.568 357.232,171.901 357.5,173.5C 356.167,173.5 354.833,173.5 353.5,173.5C 347.907,173.807 342.407,173.473 337,172.5C 335.745,173.211 334.579,174.044 333.5,175C 336.146,175.497 338.813,175.664 341.5,175.5C 341.146,178.421 342.146,180.754 344.5,182.5C 343.754,183.736 343.421,185.07 343.5,186.5C 346.347,186.218 349.013,186.218 351.5,186.5C 349.78,187.934 347.78,188.767 345.5,189C 343.919,190.828 342.585,192.828 341.5,195C 339.5,195.333 337.5,195.667 335.5,196C 338.289,196.241 340.956,196.908 343.5,198C 341.109,198.287 338.776,198.787 336.5,199.5C 335.188,198.54 333.854,198.706 332.5,200C 333,200.5 333.5,201 334,201.5C 337.234,201.284 340.401,201.284 343.5,201.5C 340.065,202.367 336.732,203.534 333.5,205C 334.126,205.75 334.626,206.584 335,207.5C 336.726,206.424 338.559,206.257 340.5,207C 335.313,207.635 334.313,209.969 337.5,214C 335.3,216.046 332.633,217.046 329.5,217C 331.708,217.191 333.708,217.691 335.5,218.5C 332.753,218.813 330.086,218.48 327.5,217.5C 328.668,215.783 330.335,215.116 332.5,215.5C 332.72,212.6 332.054,209.933 330.5,207.5C 329.473,208.791 328.473,208.791 327.5,207.5C 327.5,205.833 327.5,204.167 327.5,202.5C 325.712,202.785 324.045,202.452 322.5,201.5C 323.09,200.201 324.09,199.368 325.5,199C 323.009,198.374 323.009,197.541 325.5,196.5C 323.916,193.437 324.582,190.771 327.5,188.5C 326.975,187.808 326.308,187.308 325.5,187C 325.833,186.667 326.167,186.333 326.5,186C 325.707,184.915 325.04,183.748 324.5,182.5C 325.711,181.28 325.711,180.113 324.5,179C 328.5,178 328.5,177 324.5,176C 326.167,175.667 327.833,175.333 329.5,175C 325.918,174.405 325.584,173.071 328.5,171C 328.167,170.667 327.833,170.333 327.5,170C 324.715,169.342 322.049,168.509 319.5,167.5C 319.5,166.167 319.5,164.833 319.5,163.5C 332.187,163.682 344.853,163.349 357.5,162.5C 357.5,163.5 357.5,164.5 357.5,165.5C 355.712,165.215 354.045,165.548 352.5,166.5C 354.396,167.466 356.396,167.799 358.5,167.5 Z"/></g>
<g><path style="opacity:1" fill="#d1b47e" d="M 319.5,167.5 C 322.049,168.509 324.715,169.342 327.5,170C 327.833,170.333 328.167,170.667 328.5,171C 325.584,173.071 325.918,174.405 329.5,175C 327.833,175.333 326.167,175.667 324.5,176C 328.5,177 328.5,178 324.5,179C 325.711,180.113 325.711,181.28 324.5,182.5C 325.04,183.748 325.707,184.915 326.5,186C 326.167,186.333 325.833,186.667 325.5,187C 326.308,187.308 326.975,187.808 327.5,188.5C 324.582,190.771 323.916,193.437 325.5,196.5C 323.009,197.541 323.009,198.374 325.5,199C 324.09,199.368 323.09,200.201 322.5,201.5C 324.045,202.452 325.712,202.785 327.5,202.5C 327.5,204.167 327.5,205.833 327.5,207.5C 325.105,207.772 322.771,207.772 320.5,207.5C 319.28,207.887 318.613,208.72 318.5,210C 318.583,213.743 320.249,216.41 323.5,218C 322.939,219.566 323.606,220.899 325.5,222C 324.377,223.044 323.044,223.71 321.5,224C 322.849,224.772 323.682,225.939 324,227.5C 327.45,228.383 330.95,229.216 334.5,230C 331.167,230.333 327.833,230.667 324.5,231C 325.623,232.044 326.956,232.71 328.5,233C 326.203,234.16 326.536,235.16 329.5,236C 328.402,236.77 328.402,237.603 329.5,238.5C 330.263,239.268 331.263,239.768 332.5,240C 330.5,240.333 328.5,240.667 326.5,241C 327.833,242 327.833,243 326.5,244C 327.167,245.333 328.167,246.333 329.5,247C 327.026,247.037 325.026,247.87 323.5,249.5C 319.445,249.824 315.445,249.491 311.5,248.5C 314.899,248.533 318.565,248.367 322.5,248C 321.366,246.984 321.699,246.317 323.5,246C 322.216,245.316 321.049,245.483 320,246.5C 319.5,245.5 319,244.5 318.5,243.5C 320.401,242.455 322.067,241.122 323.5,239.5C 321.328,238.795 319.328,237.795 317.5,236.5C 318.729,235.719 320.062,235.219 321.5,235C 320.167,234.333 320.167,233.667 321.5,233C 312.889,232.159 312.222,231.159 319.5,230C 317.913,229.138 316.246,228.471 314.5,228C 313.663,226.989 313.33,225.822 313.5,224.5C 314.873,224.343 316.207,224.51 317.5,225C 316.391,226.813 317.058,227.646 319.5,227.5C 319.178,225.278 319.845,223.444 321.5,222C 318.518,221.502 315.518,221.335 312.5,221.5C 313.007,220.141 314.007,219.141 315.5,218.5C 314.119,217.119 312.785,215.785 311.5,214.5C 312.978,214.762 314.311,214.429 315.5,213.5C 310.508,211.579 310.508,210.579 315.5,210.5C 315.297,208.61 315.963,207.11 317.5,206C 317.167,205 316.833,204 316.5,203C 319.461,199.972 320.461,196.472 319.5,192.5C 320.714,190.931 322.381,190.098 324.5,190C 320.782,189.613 317.782,187.947 315.5,185C 315.833,184.667 316.167,184.333 316.5,184C 310.825,183.536 310.492,182.869 315.5,182C 312.365,181.2 310.198,179.366 309,176.5C 308.617,177.056 308.117,177.389 307.5,177.5C 307.438,175.567 308.438,173.733 310.5,172C 308.003,171.588 306.003,170.422 304.5,168.5C 309.347,168.111 314.347,167.778 319.5,167.5 Z"/></g>
<g><path style="opacity:1" fill="#c5ac7e" d="M 266.5,181.5 C 266.167,181.5 265.833,181.5 265.5,181.5C 260.167,181.5 254.833,181.5 249.5,181.5C 248.512,186.64 248.179,191.974 248.5,197.5C 243.035,192.536 237.702,187.37 232.5,182C 226.651,181.182 220.985,181.348 215.5,182.5C 214.957,182.44 214.624,182.107 214.5,181.5C 217.428,180.516 220.428,180.183 223.5,180.5C 227.496,179.831 231.496,178.997 235.5,178C 235.167,177.667 234.833,177.333 234.5,177C 235.833,176.333 237.167,175.667 238.5,175C 237.346,174.086 237.513,173.253 239,172.5C 242.8,173.199 246.633,173.865 250.5,174.5C 257.243,171.948 264.243,170.948 271.5,171.5C 279.328,170.044 286.995,170.544 294.5,173C 292.444,173.311 290.444,173.811 288.5,174.5C 285.634,173.205 282.801,173.205 280,174.5C 279.692,173.692 279.192,173.025 278.5,172.5C 276.253,173.374 273.92,173.708 271.5,173.5C 271.5,174.833 271.5,176.167 271.5,177.5C 269.473,177.338 267.473,177.505 265.5,178C 266.337,179.011 266.67,180.178 266.5,181.5 Z"/></g>
<g><path style="opacity:1" fill="#b79761" d="M 168.5,163.5 C 169.091,164.151 169.757,164.818 170.5,165.5C 168.726,166.187 167.059,167.02 165.5,168C 166.157,171.783 167.49,174.783 169.5,177C 167.864,179.717 168.197,182.05 170.5,184C 168.211,185.719 165.878,187.386 163.5,189C 164.448,189.483 165.448,189.649 166.5,189.5C 166.646,191.942 165.813,192.609 164,191.5C 163.138,193.594 161.972,194.594 160.5,194.5C 161.183,197.461 162.016,197.795 163,195.5C 162.208,197.846 162.375,200.179 163.5,202.5C 165.545,202.834 167.211,203.168 168.5,203.5C 165.823,204.485 163.156,205.485 160.5,206.5C 162.021,206.88 163.687,207.046 165.5,207C 162.833,208.333 162.833,209.667 165.5,211C 164.5,211.333 163.5,211.667 162.5,212C 168.876,213.286 168.542,214.286 161.5,215C 163.782,216.297 166.115,216.797 168.5,216.5C 167.176,217.935 165.51,218.935 163.5,219.5C 170.167,222.267 170.167,223.434 163.5,223C 165.511,224.635 167.511,225.468 169.5,225.5C 171.04,228.535 170.373,229.535 167.5,228.5C 162.156,228.666 156.823,228.499 151.5,228C 154.827,227.247 154.827,225.747 151.5,223.5C 153.078,222.702 154.744,222.202 156.5,222C 154.19,221.503 151.857,221.337 149.5,221.5C 149.5,220.5 149.5,219.5 149.5,218.5C 152.813,217.955 156.146,217.455 159.5,217C 156.774,216.818 154.107,216.318 151.5,215.5C 152.665,214.416 153.998,213.583 155.5,213C 153.5,212.667 151.5,212.333 149.5,212C 152.833,211.667 156.167,211.333 159.5,211C 156.833,210.667 154.167,210.333 151.5,210C 152.956,209.577 153.456,208.744 153,207.5C 152.586,207.957 152.086,208.291 151.5,208.5C 150.231,206.82 148.564,205.653 146.5,205C 148.345,203.872 150.345,203.372 152.5,203.5C 151.54,199.805 151.54,196.139 152.5,192.5C 157.692,190.737 157.359,189.57 151.5,189C 159.819,188.079 160.153,187.079 152.5,186C 154.11,184.505 155.776,184.339 157.5,185.5C 158.95,184.15 159.617,182.484 159.5,180.5C 156.833,180.5 154.167,180.5 151.5,180.5C 151.5,179.5 151.5,178.5 151.5,177.5C 154.187,177.664 156.854,177.497 159.5,177C 158.167,176.667 156.833,176.333 155.5,176C 156.743,174.846 157.743,173.512 158.5,172C 155.126,171.479 152.126,170.146 149.5,168C 152.043,167.86 154.377,167.194 156.5,166C 156,165.5 155.5,165 155,164.5C 153.612,165.554 152.112,165.72 150.5,165C 150.833,164.667 151.167,164.333 151.5,164C 157.259,163.743 162.925,163.576 168.5,163.5 Z"/></g>
<g><path style="opacity:1" fill="#69563e" d="M 249.5,181.5 C 249.5,186.833 249.5,192.167 249.5,197.5C 254.833,197.5 260.167,197.5 265.5,197.5C 265.5,192.167 265.5,186.833 265.5,181.5C 265.833,181.5 266.167,181.5 266.5,181.5C 266.179,187.026 266.512,192.36 267.5,197.5C 267.5,198.167 267.167,198.5 266.5,198.5C 260.833,198.5 255.167,198.5 249.5,198.5C 248.833,198.5 248.5,198.167 248.5,197.5C 248.179,191.974 248.512,186.64 249.5,181.5 Z"/></g>
<g><path style="opacity:1" fill="#b0925e" d="M 174.5,162.5 C 174.833,162.5 175.167,162.5 175.5,162.5C 173.393,163.468 171.059,163.802 168.5,163.5C 162.925,163.576 157.259,163.743 151.5,164C 151.167,164.333 150.833,164.667 150.5,165C 152.112,165.72 153.612,165.554 155,164.5C 155.5,165 156,165.5 156.5,166C 154.377,167.194 152.043,167.86 149.5,168C 152.126,170.146 155.126,171.479 158.5,172C 157.743,173.512 156.743,174.846 155.5,176C 156.833,176.333 158.167,176.667 159.5,177C 156.854,177.497 154.187,177.664 151.5,177.5C 151.5,178.5 151.5,179.5 151.5,180.5C 154.167,180.5 156.833,180.5 159.5,180.5C 159.617,182.484 158.95,184.15 157.5,185.5C 155.776,184.339 154.11,184.505 152.5,186C 160.153,187.079 159.819,188.079 151.5,189C 157.359,189.57 157.692,190.737 152.5,192.5C 151.54,196.139 151.54,199.805 152.5,203.5C 150.345,203.372 148.345,203.872 146.5,205C 148.564,205.653 150.231,206.82 151.5,208.5C 152.086,208.291 152.586,207.957 153,207.5C 153.456,208.744 152.956,209.577 151.5,210C 154.167,210.333 156.833,210.667 159.5,211C 156.167,211.333 152.833,211.667 149.5,212C 151.5,212.333 153.5,212.667 155.5,213C 153.998,213.583 152.665,214.416 151.5,215.5C 154.107,216.318 156.774,216.818 159.5,217C 156.146,217.455 152.813,217.955 149.5,218.5C 149.5,219.5 149.5,220.5 149.5,221.5C 151.857,221.337 154.19,221.503 156.5,222C 154.744,222.202 153.078,222.702 151.5,223.5C 154.827,225.747 154.827,227.247 151.5,228C 156.823,228.499 162.156,228.666 167.5,228.5C 167.5,228.833 167.5,229.167 167.5,229.5C 165.833,229.5 164.167,229.5 162.5,229.5C 162.5,230.5 162.5,231.5 162.5,232.5C 161.448,232.351 160.448,232.517 159.5,233C 161.078,234.14 162.744,234.64 164.5,234.5C 162.577,236.121 160.911,237.954 159.5,240C 160.833,240.333 162.167,240.667 163.5,241C 162.565,243.381 162.232,245.881 162.5,248.5C 159.478,248.804 156.478,249.304 153.5,250C 155.833,250.333 158.167,250.667 160.5,251C 150.811,251.777 150.478,252.777 159.5,254C 156.456,254.359 156.122,255.026 158.5,256C 157.12,257.324 156.786,258.657 157.5,260C 153.787,260.23 153.12,261.397 155.5,263.5C 153.667,264.968 153.334,266.635 154.5,268.5C 156.895,267.477 157.895,268.477 157.5,271.5C 155.123,271.784 152.956,271.784 151,271.5C 149.748,274.014 149.248,276.68 149.5,279.5C 143.739,279.291 143.406,278.458 148.5,277C 146.527,276.505 144.527,276.338 142.5,276.5C 142.832,241.329 142.498,206.329 141.5,171.5C 141.02,168.315 141.686,165.481 143.5,163C 153.828,162.5 164.161,162.334 174.5,162.5 Z"/></g>
<g><path style="opacity:1" fill="#ccb17f" d="M 311.5,214.5 C 307.273,212.72 302.606,211.886 297.5,212C 301.253,211.64 304.586,210.306 307.5,208C 305.295,206.923 303.295,206.257 301.5,206C 302.543,204.024 303.877,203.524 305.5,204.5C 306.308,204.192 306.975,203.692 307.5,203C 305.235,201.882 302.901,201.049 300.5,200.5C 300.719,201.675 300.386,202.675 299.5,203.5C 299.06,202.302 298.727,201.135 298.5,200C 297.423,199.53 296.423,199.697 295.5,200.5C 295.62,199.414 296.287,198.747 297.5,198.5C 300.451,199.224 303.451,199.057 306.5,198C 303.167,197.667 299.833,197.333 296.5,197C 299.387,195.962 302.387,195.462 305.5,195.5C 303.234,194.686 300.9,194.186 298.5,194C 299.416,193.626 300.25,193.126 301,192.5C 303.737,193.61 306.571,193.777 309.5,193C 308.416,190.81 309.083,189.144 311.5,188C 310.624,186.415 309.291,185.415 307.5,185C 308.167,184.667 308.833,184.333 309.5,184C 307.893,182.951 307.227,181.451 307.5,179.5C 302.34,179.395 302.34,178.728 307.5,177.5C 308.117,177.389 308.617,177.056 309,176.5C 310.198,179.366 312.365,181.2 315.5,182C 310.492,182.869 310.825,183.536 316.5,184C 316.167,184.333 315.833,184.667 315.5,185C 317.782,187.947 320.782,189.613 324.5,190C 322.381,190.098 320.714,190.931 319.5,192.5C 320.461,196.472 319.461,199.972 316.5,203C 316.833,204 317.167,205 317.5,206C 315.963,207.11 315.297,208.61 315.5,210.5C 310.508,210.579 310.508,211.579 315.5,213.5C 314.311,214.429 312.978,214.762 311.5,214.5 Z"/></g>
<g><path style="opacity:1" fill="#dcbc82" d="M 353.5,173.5 C 353.258,191.381 354.258,209.047 356.5,226.5C 356.333,232.167 356.167,237.833 356,243.5C 355.415,245.661 354.582,247.661 353.5,249.5C 351.068,247.874 348.401,246.541 345.5,245.5C 346.025,244.808 346.692,244.308 347.5,244C 343.668,243.238 340.002,243.738 336.5,245.5C 335.614,244.675 335.281,243.675 335.5,242.5C 336.552,242.649 337.552,242.483 338.5,242C 337.29,240.961 336.29,239.794 335.5,238.5C 338.198,238.45 340.364,239.45 342,241.5C 343.875,238.356 342.708,236.856 338.5,237C 340.301,236.683 340.634,236.016 339.5,235C 342.244,235.991 344.911,235.657 347.5,234C 342.167,233.333 342.167,232.667 347.5,232C 347.167,231.667 346.833,231.333 346.5,231C 350.901,230.189 351.234,229.023 347.5,227.5C 344.916,228.393 342.249,228.726 339.5,228.5C 340.013,226.71 340.513,225.044 341,223.5C 339,222.167 337,222.167 335,223.5C 333.926,222.382 332.76,221.382 331.5,220.5C 332.949,219.828 334.282,219.161 335.5,218.5C 333.708,217.691 331.708,217.191 329.5,217C 332.633,217.046 335.3,216.046 337.5,214C 334.313,209.969 335.313,207.635 340.5,207C 338.559,206.257 336.726,206.424 335,207.5C 334.626,206.584 334.126,205.75 333.5,205C 336.732,203.534 340.065,202.367 343.5,201.5C 340.401,201.284 337.234,201.284 334,201.5C 333.5,201 333,200.5 332.5,200C 333.854,198.706 335.188,198.54 336.5,199.5C 338.776,198.787 341.109,198.287 343.5,198C 340.956,196.908 338.289,196.241 335.5,196C 337.5,195.667 339.5,195.333 341.5,195C 342.585,192.828 343.919,190.828 345.5,189C 347.78,188.767 349.78,187.934 351.5,186.5C 349.013,186.218 346.347,186.218 343.5,186.5C 343.421,185.07 343.754,183.736 344.5,182.5C 342.146,180.754 341.146,178.421 341.5,175.5C 338.813,175.664 336.146,175.497 333.5,175C 334.579,174.044 335.745,173.211 337,172.5C 342.407,173.473 347.907,173.807 353.5,173.5 Z"/></g>
<g><path style="opacity:1" fill="#3e2a16" d="M 249.5,181.5 C 254.833,181.5 260.167,181.5 265.5,181.5C 265.5,186.833 265.5,192.167 265.5,197.5C 260.167,197.5 254.833,197.5 249.5,197.5C 249.5,192.167 249.5,186.833 249.5,181.5 Z"/></g>
<g><path style="opacity:1" fill="#ddccb1" d="M 283.5,182.5 C 283.833,182.5 284.167,182.5 284.5,182.5C 284.666,188.176 284.499,193.843 284,199.5C 278.658,204.675 273.491,210.009 268.5,215.5C 268.167,215.5 267.833,215.5 267.5,215.5C 267.5,215.167 267.5,214.833 267.5,214.5C 272.464,209.035 277.63,203.702 283,198.5C 283.499,193.177 283.666,187.844 283.5,182.5 Z"/></g>
<g><path style="opacity:1" fill="#3e2b18" d="M 283.5,182.5 C 283.666,187.844 283.499,193.177 283,198.5C 277.63,203.702 272.464,209.035 267.5,214.5C 266.512,209.36 266.179,204.026 266.5,198.5C 267.167,198.5 267.5,198.167 267.5,197.5C 272.502,191.476 277.835,186.476 283.5,182.5 Z"/></g>
<g><path style="opacity:1" fill="#d7b880" d="M 327.5,207.5 C 328.473,208.791 329.473,208.791 330.5,207.5C 332.054,209.933 332.72,212.6 332.5,215.5C 330.335,215.116 328.668,215.783 327.5,217.5C 330.086,218.48 332.753,218.813 335.5,218.5C 334.282,219.161 332.949,219.828 331.5,220.5C 332.76,221.382 333.926,222.382 335,223.5C 337,222.167 339,222.167 341,223.5C 340.513,225.044 340.013,226.71 339.5,228.5C 342.249,228.726 344.916,228.393 347.5,227.5C 351.234,229.023 350.901,230.189 346.5,231C 346.833,231.333 347.167,231.667 347.5,232C 342.167,232.667 342.167,233.333 347.5,234C 344.911,235.657 342.244,235.991 339.5,235C 340.634,236.016 340.301,236.683 338.5,237C 342.708,236.856 343.875,238.356 342,241.5C 340.364,239.45 338.198,238.45 335.5,238.5C 334.325,237.026 333.325,235.36 332.5,233.5C 331.999,235.655 330.999,237.322 329.5,238.5C 328.402,237.603 328.402,236.77 329.5,236C 326.536,235.16 326.203,234.16 328.5,233C 326.956,232.71 325.623,232.044 324.5,231C 327.833,230.667 331.167,230.333 334.5,230C 330.95,229.216 327.45,228.383 324,227.5C 323.682,225.939 322.849,224.772 321.5,224C 323.044,223.71 324.377,223.044 325.5,222C 323.606,220.899 322.939,219.566 323.5,218C 320.249,216.41 318.583,213.743 318.5,210C 318.613,208.72 319.28,207.887 320.5,207.5C 322.771,207.772 325.105,207.772 327.5,207.5 Z"/></g>
<g><path style="opacity:1" fill="#c09f67" d="M 175.5,162.5 C 177.5,162.5 179.5,162.5 181.5,162.5C 181.833,163.167 182.167,163.833 182.5,164.5C 179.527,165.673 176.194,165.84 172.5,165C 176.18,166.225 175.847,167.058 171.5,167.5C 171.244,169.912 172.244,171.579 174.5,172.5C 174.167,173.167 173.833,173.833 173.5,174.5C 176.167,178.167 176.167,181.833 173.5,185.5C 174.025,186.192 174.692,186.692 175.5,187C 174.549,190.057 174.216,193.223 174.5,196.5C 179.063,197.157 179.397,199.157 175.5,202.5C 176.223,206.329 175.223,209.829 172.5,213C 173.308,213.308 173.975,213.808 174.5,214.5C 173.752,216.332 172.752,217.999 171.5,219.5C 173.266,222.82 174.6,226.32 175.5,230C 174.833,230.333 174.167,230.667 173.5,231C 178.765,232.944 178.765,234.944 173.5,237C 176.624,238.541 176.957,240.375 174.5,242.5C 175.376,243.251 176.376,243.751 177.5,244C 176.228,247.317 174.895,250.484 173.5,253.5C 171.833,253.5 170.167,253.5 168.5,253.5C 168.452,252.493 169.452,252.16 171.5,252.5C 171.48,250.857 172.147,249.524 173.5,248.5C 172.833,247.833 172.167,247.167 171.5,246.5C 174.067,244.001 173.733,241.834 170.5,240C 171.308,239.692 171.975,239.192 172.5,238.5C 171.359,237.575 171.359,236.741 172.5,236C 171.051,234.883 169.384,234.216 167.5,234C 169.931,232.568 169.931,231.068 167.5,229.5C 167.5,229.167 167.5,228.833 167.5,228.5C 170.373,229.535 171.04,228.535 169.5,225.5C 167.511,225.468 165.511,224.635 163.5,223C 170.167,223.434 170.167,222.267 163.5,219.5C 165.51,218.935 167.176,217.935 168.5,216.5C 166.115,216.797 163.782,216.297 161.5,215C 168.542,214.286 168.876,213.286 162.5,212C 163.5,211.667 164.5,211.333 165.5,211C 162.833,209.667 162.833,208.333 165.5,207C 163.687,207.046 162.021,206.88 160.5,206.5C 163.156,205.485 165.823,204.485 168.5,203.5C 167.211,203.168 165.545,202.834 163.5,202.5C 162.375,200.179 162.208,197.846 163,195.5C 162.016,197.795 161.183,197.461 160.5,194.5C 161.972,194.594 163.138,193.594 164,191.5C 165.813,192.609 166.646,191.942 166.5,189.5C 165.448,189.649 164.448,189.483 163.5,189C 165.878,187.386 168.211,185.719 170.5,184C 168.197,182.05 167.864,179.717 169.5,177C 167.49,174.783 166.157,171.783 165.5,168C 167.059,167.02 168.726,166.187 170.5,165.5C 169.757,164.818 169.091,164.151 168.5,163.5C 171.059,163.802 173.393,163.468 175.5,162.5 Z"/></g>
<g><path style="opacity:1" fill="#caa56b" d="M 182.5,164.5 C 183.139,165.097 183.472,165.93 183.5,167C 182.622,168.8 181.955,170.633 181.5,172.5C 177.5,173.167 177.5,173.833 181.5,174.5C 180.795,177.726 179.795,180.893 178.5,184C 179.5,184.333 180.5,184.667 181.5,185C 179.302,187.81 177.635,190.976 176.5,194.5C 179.053,195.096 180.72,196.596 181.5,199C 181.245,200.326 180.578,201.326 179.5,202C 180.672,202.419 181.672,203.085 182.5,204C 180.833,204.333 179.167,204.667 177.5,205C 181.294,206.252 182.96,208.918 182.5,213C 182.346,215.379 181.68,217.546 180.5,219.5C 181.808,224.32 181.808,229.154 180.5,234C 181.289,235.626 182.289,237.126 183.5,238.5C 178.279,239.624 178.279,240.458 183.5,241C 179.728,241.611 179.728,242.611 183.5,244C 182.167,244.667 181.167,245.667 180.5,247C 182.178,249.858 183.178,253.024 183.5,256.5C 181.003,257.578 179.337,259.411 178.5,262C 180.134,262.494 181.801,262.66 183.5,262.5C 182.796,258.529 184.129,257.195 187.5,258.5C 187.5,258.833 187.5,259.167 187.5,259.5C 185.167,262.5 182.5,265.167 179.5,267.5C 177.418,267.472 175.584,268.139 174,269.5C 172.842,269.002 172.009,268.169 171.5,267C 172.424,265.85 172.424,264.85 171.5,264C 172.167,263.667 172.833,263.333 173.5,263C 172.07,260.945 170.737,258.779 169.5,256.5C 170.624,255.141 171.958,254.141 173.5,253.5C 174.895,250.484 176.228,247.317 177.5,244C 176.376,243.751 175.376,243.251 174.5,242.5C 176.957,240.375 176.624,238.541 173.5,237C 178.765,234.944 178.765,232.944 173.5,231C 174.167,230.667 174.833,230.333 175.5,230C 174.6,226.32 173.266,222.82 171.5,219.5C 172.752,217.999 173.752,216.332 174.5,214.5C 173.975,213.808 173.308,213.308 172.5,213C 175.223,209.829 176.223,206.329 175.5,202.5C 179.397,199.157 179.063,197.157 174.5,196.5C 174.216,193.223 174.549,190.057 175.5,187C 174.692,186.692 174.025,186.192 173.5,185.5C 176.167,181.833 176.167,178.167 173.5,174.5C 173.833,173.833 174.167,173.167 174.5,172.5C 172.244,171.579 171.244,169.912 171.5,167.5C 175.847,167.058 176.18,166.225 172.5,165C 176.194,165.84 179.527,165.673 182.5,164.5 Z"/></g>
<g><path style="opacity:1" fill="#c6ae81" d="M 284.5,182.5 C 285.525,183.374 286.192,184.541 286.5,186C 285.195,190.513 285.195,195.013 286.5,199.5C 285.96,200.748 285.293,201.915 284.5,203C 288.026,204.337 291.692,204.837 295.5,204.5C 295.5,203.167 295.5,201.833 295.5,200.5C 296.423,199.697 297.423,199.53 298.5,200C 298.727,201.135 299.06,202.302 299.5,203.5C 300.386,202.675 300.719,201.675 300.5,200.5C 302.901,201.049 305.235,201.882 307.5,203C 306.975,203.692 306.308,204.192 305.5,204.5C 303.877,203.524 302.543,204.024 301.5,206C 303.295,206.257 305.295,206.923 307.5,208C 304.586,210.306 301.253,211.64 297.5,212C 302.606,211.886 307.273,212.72 311.5,214.5C 307.136,213.947 302.802,214.614 298.5,216.5C 297.707,216.069 296.873,215.735 296,215.5C 295.333,216.167 294.667,216.833 294,217.5C 291.189,215.877 288.356,214.71 285.5,214C 285.409,216.265 286.076,218.598 287.5,221C 285.645,224.412 285.312,227.912 286.5,231.5C 285.757,232.182 285.091,232.849 284.5,233.5C 284.167,233.5 283.833,233.5 283.5,233.5C 283.5,233.167 283.5,232.833 283.5,232.5C 283.5,226.833 283.5,221.167 283.5,215.5C 278.5,215.5 273.5,215.5 268.5,215.5C 273.491,210.009 278.658,204.675 284,199.5C 284.499,193.843 284.666,188.176 284.5,182.5 Z"/></g>
<g><path style="opacity:1" fill="#dcb275" d="M 181.5,162.5 C 184.167,162.5 186.833,162.5 189.5,162.5C 189.842,163.338 190.508,163.672 191.5,163.5C 191.586,164.496 191.252,165.329 190.5,166C 194.989,167.765 199.655,168.765 204.5,169C 200.129,169.172 195.796,169.672 191.5,170.5C 191.291,171.086 190.957,171.586 190.5,172C 192.635,173.381 194.968,174.381 197.5,175C 196.5,175.333 195.5,175.667 194.5,176C 197.028,177.316 197.028,178.483 194.5,179.5C 195.5,180.833 196.5,182.167 197.5,183.5C 196.91,184.799 195.91,185.632 194.5,186C 195.623,187.044 196.956,187.71 198.5,188C 196.105,188.681 193.772,189.515 191.5,190.5C 193.475,192.545 193.475,194.212 191.5,195.5C 196.694,197.058 196.694,198.058 191.5,198.5C 191.214,201.277 190.88,204.111 190.5,207C 192.833,207.333 195.167,207.667 197.5,208C 195.096,208.508 194.429,209.675 195.5,211.5C 194.372,212.262 193.205,212.929 192,213.5C 191.342,215.108 191.842,216.275 193.5,217C 192.094,220.624 190.76,224.291 189.5,228C 190.449,228.617 191.282,228.451 192,227.5C 194.73,231.082 196.563,235.082 197.5,239.5C 196.127,239.343 194.793,239.51 193.5,240C 197.5,240.667 197.5,241.333 193.5,242C 195.891,243.309 195.891,244.309 193.5,245C 200.727,245.566 200.394,247.066 192.5,249.5C 193.718,250.803 193.385,251.803 191.5,252.5C 193.446,253.824 193.446,255.49 191.5,257.5C 189.901,257.232 188.568,257.566 187.5,258.5C 184.129,257.195 182.796,258.529 183.5,262.5C 181.801,262.66 180.134,262.494 178.5,262C 179.337,259.411 181.003,257.578 183.5,256.5C 183.178,253.024 182.178,249.858 180.5,247C 181.167,245.667 182.167,244.667 183.5,244C 179.728,242.611 179.728,241.611 183.5,241C 178.279,240.458 178.279,239.624 183.5,238.5C 182.289,237.126 181.289,235.626 180.5,234C 181.808,229.154 181.808,224.32 180.5,219.5C 181.68,217.546 182.346,215.379 182.5,213C 182.96,208.918 181.294,206.252 177.5,205C 179.167,204.667 180.833,204.333 182.5,204C 181.672,203.085 180.672,202.419 179.5,202C 180.578,201.326 181.245,200.326 181.5,199C 180.72,196.596 179.053,195.096 176.5,194.5C 177.635,190.976 179.302,187.81 181.5,185C 180.5,184.667 179.5,184.333 178.5,184C 179.795,180.893 180.795,177.726 181.5,174.5C 177.5,173.833 177.5,173.167 181.5,172.5C 181.955,170.633 182.622,168.8 183.5,167C 183.472,165.93 183.139,165.097 182.5,164.5C 182.167,163.833 181.833,163.167 181.5,162.5 Z"/></g>
<g><path style="opacity:1" fill="#5d492d" d="M 266.5,216.5 C 266.5,215.833 266.833,215.5 267.5,215.5C 267.833,215.5 268.167,215.5 268.5,215.5C 273.5,215.5 278.5,215.5 283.5,215.5C 283.5,221.167 283.5,226.833 283.5,232.5C 283.167,232.5 282.833,232.5 282.5,232.5C 282.5,227.167 282.5,221.833 282.5,216.5C 277.167,216.5 271.833,216.5 266.5,216.5 Z"/></g>
<g><path style="opacity:1" fill="#3e2c16" d="M 215.5,182.5 C 220.985,181.348 226.651,181.182 232.5,182C 237.702,187.37 243.035,192.536 248.5,197.5C 248.5,198.167 248.833,198.5 249.5,198.5C 254.63,204.131 259.964,209.631 265.5,215C 260.5,215.333 255.5,215.667 250.5,216C 253.423,218.416 255.757,221.25 257.5,224.5C 253.788,224.231 250.955,222.564 249,219.5C 248.5,219.667 248,219.833 247.5,220C 250.805,223.748 251.472,227.915 249.5,232.5C 248.833,232.167 248.167,231.833 247.5,231.5C 242.703,226.202 237.703,221.035 232.5,216C 237.5,215.667 242.5,215.333 247.5,215C 242.333,209.833 237.167,204.667 232,199.5C 231.501,204.823 231.334,210.156 231.5,215.5C 226.167,215.5 220.833,215.5 215.5,215.5C 214.512,210.36 214.179,205.026 214.5,199.5C 214.5,199.167 214.5,198.833 214.5,198.5C 220.176,198.666 225.843,198.499 231.5,198C 226.298,192.63 220.965,187.464 215.5,182.5 Z"/></g>
<g><path style="opacity:1" fill="#c2ab82" d="M 249.5,198.5 C 255.167,198.5 260.833,198.5 266.5,198.5C 266.179,204.026 266.512,209.36 267.5,214.5C 267.5,214.833 267.5,215.167 267.5,215.5C 266.833,215.5 266.5,215.833 266.5,216.5C 266.827,221.544 266.494,226.544 265.5,231.5C 263.437,228.434 260.77,226.101 257.5,224.5C 255.757,221.25 253.423,218.416 250.5,216C 255.5,215.667 260.5,215.333 265.5,215C 259.964,209.631 254.63,204.131 249.5,198.5 Z"/></g>
<g><path style="opacity:1" fill="#c5ad87" d="M 247.5,231.5 C 242.36,232.488 237.026,232.821 231.5,232.5C 231.666,227.156 231.499,221.823 231,216.5C 229.629,218.041 228.129,219.375 226.5,220.5C 222.895,218.683 219.228,217.017 215.5,215.5C 220.833,215.5 226.167,215.5 231.5,215.5C 231.334,210.156 231.501,204.823 232,199.5C 237.167,204.667 242.333,209.833 247.5,215C 242.5,215.333 237.5,215.667 232.5,216C 237.703,221.035 242.703,226.202 247.5,231.5 Z"/></g>
<g><path style="opacity:1" fill="#3d2a18" d="M 266.5,216.5 C 271.833,216.5 277.167,216.5 282.5,216.5C 282.5,221.833 282.5,227.167 282.5,232.5C 277.156,232.334 271.823,232.501 266.5,233C 271.833,238.333 277.167,243.667 282.5,249C 276.833,249.667 271.167,249.667 265.5,249C 263.297,246.628 260.963,244.461 258.5,242.5C 255.833,239.167 252.833,236.167 249.5,233.5C 249.5,233.167 249.5,232.833 249.5,232.5C 251.472,227.915 250.805,223.748 247.5,220C 248,219.833 248.5,219.667 249,219.5C 250.955,222.564 253.788,224.231 257.5,224.5C 260.77,226.101 263.437,228.434 265.5,231.5C 266.494,226.544 266.827,221.544 266.5,216.5 Z"/></g>
<g><path style="opacity:1" fill="#d7b787" d="M 214.5,199.5 C 214.179,205.026 214.512,210.36 215.5,215.5C 219.228,217.017 222.895,218.683 226.5,220.5C 222.87,224.631 219.037,228.631 215,232.5C 214.501,238.157 214.334,243.824 214.5,249.5C 212.718,244.438 212.052,239.272 212.5,234C 215.153,229.342 217.82,224.675 220.5,220C 218.351,218.836 216.185,217.67 214,216.5C 213.182,210.651 213.348,204.985 214.5,199.5 Z"/></g>
<g><path style="opacity:1" fill="#c4ab78" d="M 311.5,214.5 C 312.785,215.785 314.119,217.119 315.5,218.5C 314.007,219.141 313.007,220.141 312.5,221.5C 311.85,221.196 311.183,220.863 310.5,220.5C 307.088,222.598 304.755,225.098 303.5,228C 304.833,228.333 306.167,228.667 307.5,229C 308.833,229.667 308.833,230.333 307.5,231C 311.5,232 311.5,233 307.5,234C 310.028,235.316 310.028,236.483 307.5,237.5C 308.376,238.251 309.376,238.751 310.5,239C 307.356,239.966 304.356,241.299 301.5,243C 302.167,243.333 302.833,243.667 303.5,244C 298.379,245.423 298.379,246.423 303.5,247C 303.402,248.618 303.402,250.118 303.5,251.5C 302.839,252.718 302.172,254.051 301.5,255.5C 299.139,254.224 296.972,254.558 295,256.5C 294.25,255.874 293.416,255.374 292.5,255C 293.634,253.984 293.301,253.317 291.5,253C 292.424,252.15 292.424,251.15 291.5,250C 291.905,249.055 292.572,248.388 293.5,248C 291.101,247.289 288.768,247.456 286.5,248.5C 284.99,246.491 283.323,244.658 281.5,243C 283.557,242.695 285.557,242.695 287.5,243C 286.788,241.575 286.621,240.075 287,238.5C 286.097,237.299 284.931,236.465 283.5,236C 284.999,235.162 285.332,234.329 284.5,233.5C 285.091,232.849 285.757,232.182 286.5,231.5C 285.312,227.912 285.645,224.412 287.5,221C 286.076,218.598 285.409,216.265 285.5,214C 288.356,214.71 291.189,215.877 294,217.5C 294.667,216.833 295.333,216.167 296,215.5C 296.873,215.735 297.707,216.069 298.5,216.5C 302.802,214.614 307.136,213.947 311.5,214.5 Z"/></g>
<g><path style="opacity:1" fill="#7a6546" d="M 247.5,231.5 C 248.167,231.833 248.833,232.167 249.5,232.5C 249.5,232.833 249.5,233.167 249.5,233.5C 249.167,233.5 248.833,233.5 248.5,233.5C 243.167,233.5 237.833,233.5 232.5,233.5C 232.5,238.833 232.5,244.167 232.5,249.5C 237.833,249.5 243.167,249.5 248.5,249.5C 243.025,250.489 237.358,250.822 231.5,250.5C 231.5,244.833 231.5,239.167 231.5,233.5C 231.5,233.167 231.5,232.833 231.5,232.5C 237.026,232.821 242.36,232.488 247.5,231.5 Z"/></g>
<g><path style="opacity:1" fill="#3e2a16" d="M 231.5,232.5 C 231.5,232.833 231.5,233.167 231.5,233.5C 225.833,238.5 220.5,243.833 215.5,249.5C 215.167,249.5 214.833,249.5 214.5,249.5C 214.334,243.824 214.501,238.157 215,232.5C 219.037,228.631 222.87,224.631 226.5,220.5C 228.129,219.375 229.629,218.041 231,216.5C 231.499,221.823 231.666,227.156 231.5,232.5 Z"/></g>
<g><path style="opacity:1" fill="#3c2a18" d="M 248.5,233.5 C 248.5,238.833 248.5,244.167 248.5,249.5C 243.167,249.5 237.833,249.5 232.5,249.5C 232.5,244.167 232.5,238.833 232.5,233.5C 237.833,233.5 243.167,233.5 248.5,233.5 Z"/></g>
<g><path style="opacity:1" fill="#cdb17a" d="M 312.5,221.5 C 315.518,221.335 318.518,221.502 321.5,222C 319.845,223.444 319.178,225.278 319.5,227.5C 317.058,227.646 316.391,226.813 317.5,225C 316.207,224.51 314.873,224.343 313.5,224.5C 313.33,225.822 313.663,226.989 314.5,228C 316.246,228.471 317.913,229.138 319.5,230C 312.222,231.159 312.889,232.159 321.5,233C 320.167,233.667 320.167,234.333 321.5,235C 320.062,235.219 318.729,235.719 317.5,236.5C 319.328,237.795 321.328,238.795 323.5,239.5C 322.067,241.122 320.401,242.455 318.5,243.5C 319,244.5 319.5,245.5 320,246.5C 321.049,245.483 322.216,245.316 323.5,246C 321.699,246.317 321.366,246.984 322.5,248C 318.565,248.367 314.899,248.533 311.5,248.5C 315.445,249.491 319.445,249.824 323.5,249.5C 325.924,249.192 328.257,249.526 330.5,250.5C 329.271,251.281 327.938,251.781 326.5,252C 327.791,254.09 327.124,255.424 324.5,256C 326.301,256.317 326.634,256.984 325.5,258C 326.167,258.667 326.833,259.333 327.5,260C 326.549,260.718 326.383,261.551 327,262.5C 329.373,259.696 331.206,260.029 332.5,263.5C 332.566,265.266 331.732,266.266 330,266.5C 328.413,263.692 326.247,263.025 323.5,264.5C 323.5,262.5 323.5,260.5 323.5,258.5C 318.833,258.5 314.167,258.5 309.5,258.5C 309.5,257.167 309.5,255.833 309.5,254.5C 306.607,254.969 304.607,253.969 303.5,251.5C 303.402,250.118 303.402,248.618 303.5,247C 298.379,246.423 298.379,245.423 303.5,244C 302.833,243.667 302.167,243.333 301.5,243C 304.356,241.299 307.356,239.966 310.5,239C 309.376,238.751 308.376,238.251 307.5,237.5C 310.028,236.483 310.028,235.316 307.5,234C 311.5,233 311.5,232 307.5,231C 308.833,230.333 308.833,229.667 307.5,229C 306.167,228.667 304.833,228.333 303.5,228C 304.755,225.098 307.088,222.598 310.5,220.5C 311.183,220.863 311.85,221.196 312.5,221.5 Z"/></g>
<g><path style="opacity:1" fill="#d8b980" d="M 335.5,238.5 C 336.29,239.794 337.29,240.961 338.5,242C 337.552,242.483 336.552,242.649 335.5,242.5C 335.281,243.675 335.614,244.675 336.5,245.5C 340.002,243.738 343.668,243.238 347.5,244C 346.692,244.308 346.025,244.808 345.5,245.5C 348.401,246.541 351.068,247.874 353.5,249.5C 353.5,250.167 353.5,250.833 353.5,251.5C 350.044,251.305 346.378,251.305 342.5,251.5C 342.773,253.451 342.107,254.951 340.5,256C 343.321,258.717 342.987,261.05 339.5,263C 340.5,263.333 341.5,263.667 342.5,264C 339.7,265.232 336.7,265.899 333.5,266C 336.638,267.244 339.972,267.911 343.5,268C 340.775,269.107 337.941,269.941 335,270.5C 334.617,269.944 334.117,269.611 333.5,269.5C 329.925,269.079 326.259,268.912 322.5,269C 323.38,267.644 323.714,266.144 323.5,264.5C 326.247,263.025 328.413,263.692 330,266.5C 331.732,266.266 332.566,265.266 332.5,263.5C 331.206,260.029 329.373,259.696 327,262.5C 326.383,261.551 326.549,260.718 327.5,260C 326.833,259.333 326.167,258.667 325.5,258C 326.634,256.984 326.301,256.317 324.5,256C 327.124,255.424 327.791,254.09 326.5,252C 327.938,251.781 329.271,251.281 330.5,250.5C 328.257,249.526 325.924,249.192 323.5,249.5C 325.026,247.87 327.026,247.037 329.5,247C 328.167,246.333 327.167,245.333 326.5,244C 327.833,243 327.833,242 326.5,241C 328.5,240.667 330.5,240.333 332.5,240C 331.263,239.768 330.263,239.268 329.5,238.5C 330.999,237.322 331.999,235.655 332.5,233.5C 333.325,235.36 334.325,237.026 335.5,238.5 Z"/></g>
<g><path style="opacity:1" fill="#d4be98" d="M 231.5,233.5 C 231.5,239.167 231.5,244.833 231.5,250.5C 237.358,250.822 243.025,250.489 248.5,249.5C 249.043,249.56 249.376,249.893 249.5,250.5C 242.839,251.333 236.173,251.999 229.5,252.5C 229.507,249.962 229.841,247.462 230.5,245C 230.612,243.338 229.946,242.171 228.5,241.5C 225.102,243.832 222.102,246.665 219.5,250C 217.934,250.765 216.601,250.598 215.5,249.5C 220.5,243.833 225.833,238.5 231.5,233.5 Z"/></g>
<g><path style="opacity:1" fill="#e4bd85" d="M 214.5,189.5 C 216.709,192.595 216.709,195.595 214.5,198.5C 214.5,198.833 214.5,199.167 214.5,199.5C 213.348,204.985 213.182,210.651 214,216.5C 216.185,217.67 218.351,218.836 220.5,220C 217.82,224.675 215.153,229.342 212.5,234C 212.052,239.272 212.718,244.438 214.5,249.5C 214.389,250.117 214.056,250.617 213.5,251C 214.667,251.5 215.5,252.333 216,253.5C 218.778,252.315 220.278,253.315 220.5,256.5C 218.146,256.838 215.813,257.338 213.5,258C 212.244,258.417 211.577,259.25 211.5,260.5C 200.374,270.125 198.541,281.459 206,294.5C 207.758,296.765 209.925,298.432 212.5,299.5C 214.306,300.024 215.972,300.691 217.5,301.5C 216.443,302.206 216.776,302.539 218.5,302.5C 218.279,304.664 217.279,306.33 215.5,307.5C 212.911,302.081 208.744,298.081 203,295.5C 202.313,297.568 202.48,299.568 203.5,301.5C 201.132,301.43 198.798,301.43 196.5,301.5C 197.647,287.908 197.814,274.242 197,260.5C 196.617,259.944 196.117,259.611 195.5,259.5C 193.052,258.527 190.385,258.194 187.5,258.5C 188.568,257.566 189.901,257.232 191.5,257.5C 193.915,257.627 196.249,257.793 198.5,258C 201.027,255.469 203.194,252.636 205,249.5C 205.667,250.833 206.333,252.167 207,253.5C 207.197,251.139 208.364,249.472 210.5,248.5C 209.897,246.548 210.23,244.548 211.5,242.5C 211.062,241.494 210.396,241.494 209.5,242.5C 206.567,240.262 206.901,239.262 210.5,239.5C 209.047,237.174 207.714,234.674 206.5,232C 207.5,231.5 208.5,231 209.5,230.5C 210.721,226.39 212.721,222.723 215.5,219.5C 213.493,217.992 211.826,216.158 210.5,214C 211.591,211.936 211.758,209.769 211,207.5C 209.513,206.845 208.347,205.845 207.5,204.5C 208.887,204.193 210.554,204.193 212.5,204.5C 212.5,202.833 212.5,201.167 212.5,199.5C 211.167,199.5 209.833,199.5 208.5,199.5C 208.798,196.735 209.798,194.235 211.5,192C 210.431,188.906 211.431,188.073 214.5,189.5 Z"/></g>
<g><path style="opacity:1" fill="#bda880" d="M 282.5,232.5 C 282.833,232.5 283.167,232.5 283.5,232.5C 283.5,232.833 283.5,233.167 283.5,233.5C 281.123,234.887 278.457,235.721 275.5,236C 277.179,240.68 280.012,244.513 284,247.5C 285.11,249.397 285.276,251.23 284.5,253C 275.377,255.787 267.21,253.953 260,247.5C 259.392,245.846 258.892,244.179 258.5,242.5C 260.963,244.461 263.297,246.628 265.5,249C 271.167,249.667 276.833,249.667 282.5,249C 277.167,243.667 271.833,238.333 266.5,233C 271.823,232.501 277.156,232.334 282.5,232.5 Z"/></g>
<g><path style="opacity:1" fill="#c6ad7e" d="M 283.5,233.5 C 283.833,233.5 284.167,233.5 284.5,233.5C 285.332,234.329 284.999,235.162 283.5,236C 284.931,236.465 286.097,237.299 287,238.5C 286.621,240.075 286.788,241.575 287.5,243C 285.557,242.695 283.557,242.695 281.5,243C 283.323,244.658 284.99,246.491 286.5,248.5C 288.768,247.456 291.101,247.289 293.5,248C 292.572,248.388 291.905,249.055 291.5,250C 292.424,251.15 292.424,252.15 291.5,253C 293.301,253.317 293.634,253.984 292.5,255C 293.416,255.374 294.25,255.874 295,256.5C 296.972,254.558 299.139,254.224 301.5,255.5C 302.172,254.051 302.839,252.718 303.5,251.5C 304.607,253.969 306.607,254.969 309.5,254.5C 309.5,255.833 309.5,257.167 309.5,258.5C 314.167,258.5 318.833,258.5 323.5,258.5C 323.5,260.5 323.5,262.5 323.5,264.5C 318.65,269.64 315.65,275.807 314.5,283C 316.581,284.6 317.248,286.434 316.5,288.5C 314.275,285.738 312.275,282.738 310.5,279.5C 314.5,273.167 318.5,266.833 322.5,260.5C 318.878,259.341 315.211,259.175 311.5,260C 309.699,262.443 308.032,264.943 306.5,267.5C 302.049,265.996 300.382,262.996 301.5,258.5C 295.777,257.147 290.11,257.314 284.5,259C 283.891,260.948 283.224,262.782 282.5,264.5C 279.744,262.553 277.078,260.386 274.5,258C 267.994,257.604 261.66,257.437 255.5,257.5C 253.338,259.02 251.005,260.02 248.5,260.5C 246.762,265.382 245.429,270.382 244.5,275.5C 243.5,275.5 242.5,275.5 241.5,275.5C 241.11,272.161 240.61,268.827 240,265.5C 238.855,264.364 237.688,263.364 236.5,262.5C 239.74,262.291 243.073,261.291 246.5,259.5C 247.534,257.562 246.868,256.228 244.5,255.5C 242.226,256.221 240.393,257.554 239,259.5C 237.312,258.675 237.145,257.675 238.5,256.5C 239.5,255.667 240.5,254.833 241.5,254C 244.095,253.774 246.595,253.274 249,252.5C 249.333,252.833 249.667,253.167 250,253.5C 251.107,250.775 251.941,247.941 252.5,245C 251.346,244.086 251.513,243.253 253,242.5C 254.707,243.138 256.54,243.138 258.5,242.5C 258.892,244.179 259.392,245.846 260,247.5C 267.21,253.953 275.377,255.787 284.5,253C 285.276,251.23 285.11,249.397 284,247.5C 280.012,244.513 277.179,240.68 275.5,236C 278.457,235.721 281.123,234.887 283.5,233.5 Z"/></g>
<g><path style="opacity:1" fill="#dcbc83" d="M 353.5,251.5 C 354.145,280.059 353.479,308.392 351.5,336.5C 351.167,336.5 350.833,336.5 350.5,336.5C 347.695,335.681 344.695,335.181 341.5,335C 342.308,334.692 342.975,334.192 343.5,333.5C 339.106,331.816 334.773,330.149 330.5,328.5C 336.614,325.704 336.614,323.871 330.5,323C 332.376,321.983 334.376,321.149 336.5,320.5C 335.5,319.833 334.5,319.167 333.5,318.5C 333.667,318.167 333.833,317.833 334,317.5C 336.033,317.132 338.2,317.132 340.5,317.5C 341.308,317.192 341.975,316.692 342.5,316C 337.672,314.9 337.506,313.733 342,312.5C 342.492,311.451 342.326,310.451 341.5,309.5C 344.147,306.88 344.147,304.214 341.5,301.5C 342.167,300.167 342.833,298.833 343.5,297.5C 342.214,295.374 341.381,293.041 341,290.5C 339.034,287.774 337.034,287.44 335,289.5C 334.292,288.619 333.458,287.953 332.5,287.5C 333.23,286.288 334.23,285.288 335.5,284.5C 332.625,283.694 329.958,283.36 327.5,283.5C 330.012,282.205 332.679,281.539 335.5,281.5C 335.881,279.058 335.214,278.391 333.5,279.5C 331.729,278.965 331.396,278.131 332.5,277C 331.5,276.667 330.5,276.333 329.5,276C 337.5,275.333 337.5,274.667 329.5,274C 331.167,273.667 332.833,273.333 334.5,273C 333.663,271.989 333.33,270.822 333.5,269.5C 334.117,269.611 334.617,269.944 335,270.5C 337.941,269.941 340.775,269.107 343.5,268C 339.972,267.911 336.638,267.244 333.5,266C 336.7,265.899 339.7,265.232 342.5,264C 341.5,263.667 340.5,263.333 339.5,263C 342.987,261.05 343.321,258.717 340.5,256C 342.107,254.951 342.773,253.451 342.5,251.5C 346.378,251.305 350.044,251.305 353.5,251.5 Z"/></g>
<g><path style="opacity:1" fill="#caaf82" d="M 248.5,233.5 C 248.833,233.5 249.167,233.5 249.5,233.5C 252.833,236.167 255.833,239.167 258.5,242.5C 256.54,243.138 254.707,243.138 253,242.5C 251.513,243.253 251.346,244.086 252.5,245C 251.941,247.941 251.107,250.775 250,253.5C 249.667,253.167 249.333,252.833 249,252.5C 246.595,253.274 244.095,253.774 241.5,254C 240.5,254.833 239.5,255.667 238.5,256.5C 237.145,257.675 237.312,258.675 239,259.5C 240.393,257.554 242.226,256.221 244.5,255.5C 246.868,256.228 247.534,257.562 246.5,259.5C 243.073,261.291 239.74,262.291 236.5,262.5C 235.18,261.058 233.514,260.392 231.5,260.5C 224.814,257.891 218.147,257.891 211.5,260.5C 211.577,259.25 212.244,258.417 213.5,258C 215.813,257.338 218.146,256.838 220.5,256.5C 220.278,253.315 218.778,252.315 216,253.5C 215.5,252.333 214.667,251.5 213.5,251C 214.056,250.617 214.389,250.117 214.5,249.5C 214.833,249.5 215.167,249.5 215.5,249.5C 216.601,250.598 217.934,250.765 219.5,250C 222.102,246.665 225.102,243.832 228.5,241.5C 229.946,242.171 230.612,243.338 230.5,245C 229.841,247.462 229.507,249.962 229.5,252.5C 236.173,251.999 242.839,251.333 249.5,250.5C 249.376,249.893 249.043,249.56 248.5,249.5C 248.5,244.167 248.5,238.833 248.5,233.5 Z"/></g>
<g><path style="opacity:1" fill="#b89761" d="M 167.5,229.5 C 169.931,231.068 169.931,232.568 167.5,234C 169.384,234.216 171.051,234.883 172.5,236C 171.359,236.741 171.359,237.575 172.5,238.5C 171.975,239.192 171.308,239.692 170.5,240C 173.733,241.834 174.067,244.001 171.5,246.5C 172.167,247.167 172.833,247.833 173.5,248.5C 172.147,249.524 171.48,250.857 171.5,252.5C 169.452,252.16 168.452,252.493 168.5,253.5C 166.302,254.165 163.969,254.832 161.5,255.5C 161.069,256.293 160.735,257.127 160.5,258C 161.73,261.773 162.73,265.606 163.5,269.5C 165.548,268.23 167.548,267.897 169.5,268.5C 168.975,269.192 168.308,269.692 167.5,270C 167.833,270.333 168.167,270.667 168.5,271C 161.922,271.885 161.922,273.052 168.5,274.5C 162.191,275.495 156.524,277.828 151.5,281.5C 151.167,280.5 150.5,279.833 149.5,279.5C 149.248,276.68 149.748,274.014 151,271.5C 152.956,271.784 155.123,271.784 157.5,271.5C 157.895,268.477 156.895,267.477 154.5,268.5C 153.334,266.635 153.667,264.968 155.5,263.5C 153.12,261.397 153.787,260.23 157.5,260C 156.786,258.657 157.12,257.324 158.5,256C 156.122,255.026 156.456,254.359 159.5,254C 150.478,252.777 150.811,251.777 160.5,251C 158.167,250.667 155.833,250.333 153.5,250C 156.478,249.304 159.478,248.804 162.5,248.5C 162.232,245.881 162.565,243.381 163.5,241C 162.167,240.667 160.833,240.333 159.5,240C 160.911,237.954 162.577,236.121 164.5,234.5C 162.744,234.64 161.078,234.14 159.5,233C 160.448,232.517 161.448,232.351 162.5,232.5C 162.5,231.5 162.5,230.5 162.5,229.5C 164.167,229.5 165.833,229.5 167.5,229.5 Z"/></g>
<g><path style="opacity:1" fill="#c4af89" d="M 282.5,264.5 C 283.612,268.685 284.612,273.185 285.5,278C 285.593,281.842 284.926,285.509 283.5,289C 284.41,291.91 283.743,294.577 281.5,297C 279.36,297.973 277.693,299.473 276.5,301.5C 275.311,302.429 273.978,302.762 272.5,302.5C 272.354,304.942 273.187,305.609 275,304.5C 277.398,307.108 280.231,308.775 283.5,309.5C 281.833,309.5 280.167,309.5 278.5,309.5C 278.5,312.5 278.5,315.5 278.5,318.5C 276.598,320.151 274.598,320.484 272.5,319.5C 274.017,319.489 275.184,318.823 276,317.5C 276.667,315.167 276.667,312.833 276,310.5C 275.667,312.5 275.333,314.5 275,316.5C 273.667,317.833 272.333,317.833 271,316.5C 270.667,314.5 270.333,312.5 270,310.5C 269.503,312.81 269.337,315.143 269.5,317.5C 267.334,314.96 266.334,315.627 266.5,319.5C 265.5,319.5 264.5,319.5 263.5,319.5C 262.245,319.499 260.912,319.166 259.5,318.5C 259.664,315.813 259.497,313.146 259,310.5C 258.667,312.167 258.333,313.833 258,315.5C 257.623,314.058 256.79,313.058 255.5,312.5C 255.715,310.821 255.048,309.821 253.5,309.5C 253.201,307.396 253.534,305.396 254.5,303.5C 255.429,304.689 255.762,306.022 255.5,307.5C 258.737,307.343 262.07,307.009 265.5,306.5C 264.286,304.931 262.619,304.098 260.5,304C 259.748,303.329 259.414,302.496 259.5,301.5C 253.294,301.229 248.961,298.229 246.5,292.5C 245.264,291.754 243.93,291.421 242.5,291.5C 242.649,292.552 242.483,293.552 242,294.5C 235.144,300.006 227.311,302.673 218.5,302.5C 216.776,302.539 216.443,302.206 217.5,301.5C 232.042,301.794 239.709,294.627 240.5,280C 240.378,276.682 239.711,273.515 238.5,270.5C 236.945,266.614 234.612,263.28 231.5,260.5C 233.514,260.392 235.18,261.058 236.5,262.5C 237.688,263.364 238.855,264.364 240,265.5C 240.61,268.827 241.11,272.161 241.5,275.5C 242.5,275.5 243.5,275.5 244.5,275.5C 245.429,270.382 246.762,265.382 248.5,260.5C 251.005,260.02 253.338,259.02 255.5,257.5C 261.66,257.437 267.994,257.604 274.5,258C 277.078,260.386 279.744,262.553 282.5,264.5 Z"/></g>
<g><path style="opacity:1" fill="#3f2e14" d="M 231.5,260.5 C 234.612,263.28 236.945,266.614 238.5,270.5C 234.745,266.779 230.412,263.779 225.5,261.5C 224.09,261.868 223.09,262.701 222.5,264C 219.266,264.711 216.099,265.545 213,266.5C 210.888,264.078 208.888,264.078 207,266.5C 202.923,274.909 202.757,283.242 206.5,291.5C 214.186,296.321 222.02,296.654 230,292.5C 231.452,293.907 231.285,295.407 229.5,297C 224.167,297.333 218.833,297.667 213.5,298C 212.944,298.383 212.611,298.883 212.5,299.5C 209.925,298.432 207.758,296.765 206,294.5C 198.541,281.459 200.374,270.125 211.5,260.5C 218.147,257.891 224.814,257.891 231.5,260.5 Z"/></g>
<g><path style="opacity:1" fill="#3b2c18" d="M 259.5,301.5 C 247.083,294.791 242.916,284.457 247,270.5C 253.879,257.859 263.712,255.026 276.5,262C 283.092,268.886 285.259,277.052 283,286.5C 279.571,298.055 271.738,303.055 259.5,301.5 Z"/></g>
<g><path style="opacity:1" fill="#392a15" d="M 187.5,259.5 C 189.833,259.5 192.167,259.5 194.5,259.5C 194.5,273.167 194.5,286.833 194.5,300.5C 191.833,300.5 189.167,300.5 186.5,300.5C 186.167,300.5 185.833,300.5 185.5,300.5C 185.666,291.494 185.5,282.494 185,273.5C 184.283,274.044 183.783,274.711 183.5,275.5C 182.694,276.728 181.694,277.728 180.5,278.5C 177.931,277.604 175.931,275.938 174.5,273.5C 176.19,271.481 177.856,269.481 179.5,267.5C 182.5,265.167 185.167,262.5 187.5,259.5 Z"/></g>
<g><path style="opacity:1" fill="#3c2d1a" d="M 238.5,270.5 C 239.711,273.515 240.378,276.682 240.5,280C 239.709,294.627 232.042,301.794 217.5,301.5C 215.972,300.691 214.306,300.024 212.5,299.5C 212.611,298.883 212.944,298.383 213.5,298C 218.833,297.667 224.167,297.333 229.5,297C 231.285,295.407 231.452,293.907 230,292.5C 222.02,296.654 214.186,296.321 206.5,291.5C 202.757,283.242 202.923,274.909 207,266.5C 208.888,264.078 210.888,264.078 213,266.5C 216.099,265.545 219.266,264.711 222.5,264C 223.09,262.701 224.09,261.868 225.5,261.5C 230.412,263.779 234.745,266.779 238.5,270.5 Z"/></g>
<g><path style="opacity:1" fill="#d9bd86" d="M 353.5,173.5 C 354.833,173.5 356.167,173.5 357.5,173.5C 357.5,227.833 357.5,282.167 357.5,336.5C 355.5,336.5 353.5,336.5 351.5,336.5C 353.479,308.392 354.145,280.059 353.5,251.5C 353.5,250.833 353.5,250.167 353.5,249.5C 354.582,247.661 355.415,245.661 356,243.5C 356.167,237.833 356.333,232.167 356.5,226.5C 354.258,209.047 353.258,191.381 353.5,173.5 Z"/></g>
<g><path style="opacity:1" fill="#d4b782" d="M 323.5,264.5 C 323.714,266.144 323.38,267.644 322.5,269C 326.259,268.912 329.925,269.079 333.5,269.5C 333.33,270.822 333.663,271.989 334.5,273C 332.833,273.333 331.167,273.667 329.5,274C 337.5,274.667 337.5,275.333 329.5,276C 330.5,276.333 331.5,276.667 332.5,277C 331.396,278.131 331.729,278.965 333.5,279.5C 335.214,278.391 335.881,279.058 335.5,281.5C 332.679,281.539 330.012,282.205 327.5,283.5C 329.958,283.36 332.625,283.694 335.5,284.5C 334.23,285.288 333.23,286.288 332.5,287.5C 331.477,292.861 330.477,298.194 329.5,303.5C 327.167,304.833 324.833,306.167 322.5,307.5C 322.329,310.797 322.995,311.131 324.5,308.5C 324.833,309 325.167,309.5 325.5,310C 325.327,312.926 325.327,315.926 325.5,319C 325.108,320.011 324.441,320.511 323.5,320.5C 324.853,321.524 325.52,322.857 325.5,324.5C 322.203,324.329 321.869,324.995 324.5,326.5C 325.747,328.042 325.747,329.542 324.5,331C 325.412,333.205 326.745,335.038 328.5,336.5C 322.5,336.5 316.5,336.5 310.5,336.5C 310.5,335.833 310.167,335.5 309.5,335.5C 311.231,334.793 312.897,333.793 314.5,332.5C 314.767,328.305 315.101,324.138 315.5,320C 314.833,319.667 314.167,319.333 313.5,319C 315.061,318.059 316.395,316.892 317.5,315.5C 315.717,313.768 313.717,312.268 311.5,311C 317.938,309.42 317.938,308.587 311.5,308.5C 311.5,307.5 311.5,306.5 311.5,305.5C 315.809,304.687 320.143,303.853 324.5,303C 324.167,302.667 323.833,302.333 323.5,302C 325.18,301.653 326.18,300.653 326.5,299C 324.706,295.546 322.539,292.38 320,289.5C 318.989,288.663 317.822,288.33 316.5,288.5C 317.248,286.434 316.581,284.6 314.5,283C 315.65,275.807 318.65,269.64 323.5,264.5 Z"/></g>
<g><path style="opacity:1" fill="#9e896b" d="M 187.5,259.5 C 187.5,259.167 187.5,258.833 187.5,258.5C 190.385,258.194 193.052,258.527 195.5,259.5C 195.829,273.344 195.496,287.01 194.5,300.5C 194.5,286.833 194.5,273.167 194.5,259.5C 192.167,259.5 189.833,259.5 187.5,259.5 Z"/></g>
<g><path style="opacity:1" fill="#c6ae82" d="M 260.5,268.5 C 263.187,268.336 265.854,268.503 268.5,269C 270.333,269.5 271.5,270.667 272,272.5C 274.819,279.528 273.652,285.694 268.5,291C 263.269,292.724 259.435,291.224 257,286.5C 254.266,279.68 255.432,273.68 260.5,268.5 Z"/></g>
<g><path style="opacity:1" fill="#3b2b18" d="M 306.5,267.5 C 308.032,264.943 309.699,262.443 311.5,260C 315.211,259.175 318.878,259.341 322.5,260.5C 318.5,266.833 314.5,273.167 310.5,279.5C 312.275,282.738 314.275,285.738 316.5,288.5C 318.573,292.308 320.906,295.974 323.5,299.5C 319.351,300.809 315.351,300.809 311.5,299.5C 308.928,296.031 306.594,292.364 304.5,288.5C 301.957,292.421 299.29,296.254 296.5,300C 292.789,300.825 289.122,300.659 285.5,299.5C 289.833,292.833 294.167,286.167 298.5,279.5C 294.291,272.914 289.957,266.414 285.5,260C 289.5,259.333 293.5,259.333 297.5,260C 299.671,263.659 302.004,267.159 304.5,270.5C 305.425,269.643 306.092,268.643 306.5,267.5 Z"/></g>
<g><path style="opacity:1" fill="#b1935e" d="M 142.5,276.5 C 144.527,276.338 146.527,276.505 148.5,277C 143.406,278.458 143.739,279.291 149.5,279.5C 150.5,279.833 151.167,280.5 151.5,281.5C 153.042,282.163 154.709,282.83 156.5,283.5C 154.138,284.271 151.804,285.105 149.5,286C 151.5,286.333 153.5,286.667 155.5,287C 154.167,287.333 152.833,287.667 151.5,288C 153.977,289.633 155.81,291.8 157,294.5C 158.507,293.465 160.007,293.632 161.5,295C 159.608,295.973 157.608,296.64 155.5,297C 158.875,298.029 160.042,300.196 159,303.5C 158.667,302.833 158.333,302.167 158,301.5C 157.51,302.793 157.343,304.127 157.5,305.5C 159.527,305.338 161.527,305.505 163.5,306C 158.167,306.667 158.167,307.333 163.5,308C 159.5,308.667 159.5,309.333 163.5,310C 161.754,310.471 160.087,311.138 158.5,312C 158.957,312.414 159.291,312.914 159.5,313.5C 157.5,314.167 155.5,314.833 153.5,315.5C 154.376,316.251 155.376,316.751 156.5,317C 154.822,317.484 154.156,318.317 154.5,319.5C 152.547,318.538 150.714,318.205 149,318.5C 146.803,314.823 147.97,312.823 152.5,312.5C 149.985,311.8 149.318,310.467 150.5,308.5C 149.663,304.657 147.329,302.657 143.5,302.5C 143.142,299.102 143.808,295.935 145.5,293C 144.576,291.189 143.743,291.355 143,293.5C 142.501,287.843 142.334,282.176 142.5,276.5 Z"/></g>
<g><path style="opacity:1" fill="#ba9a64" d="M 168.5,253.5 C 170.167,253.5 171.833,253.5 173.5,253.5C 171.958,254.141 170.624,255.141 169.5,256.5C 170.737,258.779 172.07,260.945 173.5,263C 172.833,263.333 172.167,263.667 171.5,264C 172.424,264.85 172.424,265.85 171.5,267C 172.009,268.169 172.842,269.002 174,269.5C 175.584,268.139 177.418,267.472 179.5,267.5C 177.856,269.481 176.19,271.481 174.5,273.5C 175.931,275.938 177.931,277.604 180.5,278.5C 180.265,279.097 179.765,279.43 179,279.5C 177.418,277.971 175.585,277.471 173.5,278C 172.576,278.85 172.576,279.85 173.5,281C 172.164,283.035 170.83,285.035 169.5,287C 170.833,287.667 172.167,288.333 173.5,289C 172.692,289.308 172.025,289.808 171.5,290.5C 171.96,295.222 171.96,300.055 171.5,305C 170.833,305.667 170.167,306.333 169.5,307C 171.906,309.289 172.572,311.956 171.5,315C 174.167,316.333 174.167,317.667 171.5,319C 172.167,319.333 172.833,319.667 173.5,320C 170.633,325.932 171.3,331.432 175.5,336.5C 172.833,336.5 170.167,336.5 167.5,336.5C 162.966,335.784 158.299,335.117 153.5,334.5C 151.771,332.149 151.104,329.482 151.5,326.5C 153.199,326.66 154.866,326.494 156.5,326C 154.167,325.667 151.833,325.333 149.5,325C 152.711,323.847 156.044,323.18 159.5,323C 156.833,322.667 154.167,322.333 151.5,322C 152.942,321.623 153.942,320.79 154.5,319.5C 154.156,318.317 154.822,317.484 156.5,317C 155.376,316.751 154.376,316.251 153.5,315.5C 155.5,314.833 157.5,314.167 159.5,313.5C 159.291,312.914 158.957,312.414 158.5,312C 160.087,311.138 161.754,310.471 163.5,310C 159.5,309.333 159.5,308.667 163.5,308C 158.167,307.333 158.167,306.667 163.5,306C 161.527,305.505 159.527,305.338 157.5,305.5C 157.343,304.127 157.51,302.793 158,301.5C 158.333,302.167 158.667,302.833 159,303.5C 160.042,300.196 158.875,298.029 155.5,297C 157.608,296.64 159.608,295.973 161.5,295C 160.007,293.632 158.507,293.465 157,294.5C 155.81,291.8 153.977,289.633 151.5,288C 152.833,287.667 154.167,287.333 155.5,287C 153.5,286.667 151.5,286.333 149.5,286C 151.804,285.105 154.138,284.271 156.5,283.5C 154.709,282.83 153.042,282.163 151.5,281.5C 156.524,277.828 162.191,275.495 168.5,274.5C 161.922,273.052 161.922,271.885 168.5,271C 168.167,270.667 167.833,270.333 167.5,270C 168.308,269.692 168.975,269.192 169.5,268.5C 167.548,267.897 165.548,268.23 163.5,269.5C 162.73,265.606 161.73,261.773 160.5,258C 160.735,257.127 161.069,256.293 161.5,255.5C 163.969,254.832 166.302,254.165 168.5,253.5 Z"/></g>
<g><path style="opacity:1" fill="#e2c296" d="M 195.5,259.5 C 196.117,259.611 196.617,259.944 197,260.5C 197.814,274.242 197.647,287.908 196.5,301.5C 193.816,303.542 190.816,303.875 187.5,302.5C 185.302,302.591 184.969,301.925 186.5,300.5C 189.167,300.5 191.833,300.5 194.5,300.5C 195.496,287.01 195.829,273.344 195.5,259.5 Z"/></g>
<g><path style="opacity:0.939" fill="#d2b994" d="M 358.5,169.5 C 358.5,225.5 358.5,281.5 358.5,337.5C 294.863,337.667 231.197,337.667 167.5,337.5C 167.5,337.167 167.5,336.833 167.5,336.5C 170.167,336.5 172.833,336.5 175.5,336.5C 178.833,336.5 182.167,336.5 185.5,336.5C 196.5,336.5 207.5,336.5 218.5,336.5C 220.5,336.5 222.5,336.5 224.5,336.5C 253.167,336.5 281.833,336.5 310.5,336.5C 316.5,336.5 322.5,336.5 328.5,336.5C 335.833,336.5 343.167,336.5 350.5,336.5C 350.833,336.5 351.167,336.5 351.5,336.5C 353.5,336.5 355.5,336.5 357.5,336.5C 357.5,282.167 357.5,227.833 357.5,173.5C 357.232,171.901 357.566,170.568 358.5,169.5 Z"/></g>
<g><path style="opacity:1" fill="#8d714b" d="M 185.5,300.5 C 184.833,292.167 184.167,283.833 183.5,275.5C 183.783,274.711 184.283,274.044 185,273.5C 185.5,282.494 185.666,291.494 185.5,300.5 Z"/></g>
<g><path style="opacity:1" fill="#d7b98a" d="M 216.5,268.5 C 219.187,268.336 221.854,268.503 224.5,269C 226.667,269.833 228.167,271.333 229,273.5C 229.667,277.833 229.667,282.167 229,286.5C 224.76,292.296 219.76,292.963 214,288.5C 211.321,281.237 212.155,274.57 216.5,268.5 Z"/></g>
<g><path style="opacity:1" fill="#d7b982" d="M 332.5,287.5 C 333.458,287.953 334.292,288.619 335,289.5C 337.034,287.44 339.034,287.774 341,290.5C 341.381,293.041 342.214,295.374 343.5,297.5C 342.833,298.833 342.167,300.167 341.5,301.5C 344.147,304.214 344.147,306.88 341.5,309.5C 342.326,310.451 342.492,311.451 342,312.5C 337.506,313.733 337.672,314.9 342.5,316C 341.975,316.692 341.308,317.192 340.5,317.5C 338.2,317.132 336.033,317.132 334,317.5C 333.833,317.833 333.667,318.167 333.5,318.5C 334.5,319.167 335.5,319.833 336.5,320.5C 334.376,321.149 332.376,321.983 330.5,323C 336.614,323.871 336.614,325.704 330.5,328.5C 334.773,330.149 339.106,331.816 343.5,333.5C 342.975,334.192 342.308,334.692 341.5,335C 344.695,335.181 347.695,335.681 350.5,336.5C 343.167,336.5 335.833,336.5 328.5,336.5C 326.745,335.038 325.412,333.205 324.5,331C 325.747,329.542 325.747,328.042 324.5,326.5C 321.869,324.995 322.203,324.329 325.5,324.5C 325.52,322.857 324.853,321.524 323.5,320.5C 324.441,320.511 325.108,320.011 325.5,319C 325.327,315.926 325.327,312.926 325.5,310C 325.167,309.5 324.833,309 324.5,308.5C 322.995,311.131 322.329,310.797 322.5,307.5C 324.833,306.167 327.167,304.833 329.5,303.5C 330.477,298.194 331.477,292.861 332.5,287.5 Z"/></g>
<g><path style="opacity:0.406" fill="#f5e8d2" d="M 358.5,161.5 C 359.117,161.611 359.617,161.944 360,162.5C 360.667,219.833 360.667,277.167 360,334.5C 359.768,335.737 359.268,336.737 358.5,337.5C 358.5,281.5 358.5,225.5 358.5,169.5C 358.5,168.833 358.5,168.167 358.5,167.5C 358.5,165.5 358.5,163.5 358.5,161.5 Z"/></g>
<g><path style="opacity:1" fill="#c8ae7e" d="M 259.5,301.5 C 259.414,302.496 259.748,303.329 260.5,304C 262.619,304.098 264.286,304.931 265.5,306.5C 262.07,307.009 258.737,307.343 255.5,307.5C 255.762,306.022 255.429,304.689 254.5,303.5C 253.534,305.396 253.201,307.396 253.5,309.5C 253.5,309.833 253.5,310.167 253.5,310.5C 252.833,310.5 252.167,310.5 251.5,310.5C 250.081,309.549 248.415,309.216 246.5,309.5C 244.109,309.001 241.776,308.668 239.5,308.5C 238.778,308.082 238.278,307.416 238,306.5C 237.667,307.167 237.333,307.833 237,308.5C 234.939,306.23 232.773,305.73 230.5,307C 230.833,307.333 231.167,307.667 231.5,308C 229.934,308.608 228.6,309.442 227.5,310.5C 226.833,310.5 226.167,310.5 225.5,310.5C 224.432,309.566 223.099,309.232 221.5,309.5C 220.179,307.58 218.846,307.413 217.5,309C 218.167,309.667 218.833,310.333 219.5,311C 218.065,310.689 216.732,310.855 215.5,311.5C 214.534,313.396 214.201,315.396 214.5,317.5C 212.98,315.412 211.98,313.078 211.5,310.5C 211.5,310.167 211.5,309.833 211.5,309.5C 213.153,309.34 214.486,308.674 215.5,307.5C 217.279,306.33 218.279,304.664 218.5,302.5C 227.311,302.673 235.144,300.006 242,294.5C 242.483,293.552 242.649,292.552 242.5,291.5C 243.93,291.421 245.264,291.754 246.5,292.5C 248.961,298.229 253.294,301.229 259.5,301.5 Z"/></g>
<g><path style="opacity:1" fill="#cab17f" d="M 316.5,288.5 C 317.822,288.33 318.989,288.663 320,289.5C 322.539,292.38 324.706,295.546 326.5,299C 326.18,300.653 325.18,301.653 323.5,302C 323.833,302.333 324.167,302.667 324.5,303C 320.143,303.853 315.809,304.687 311.5,305.5C 311.5,306.5 311.5,307.5 311.5,308.5C 317.938,308.587 317.938,309.42 311.5,311C 313.717,312.268 315.717,313.768 317.5,315.5C 316.395,316.892 315.061,318.059 313.5,319C 314.167,319.333 314.833,319.667 315.5,320C 315.101,324.138 314.767,328.305 314.5,332.5C 312.897,333.793 311.231,334.793 309.5,335.5C 307.925,334.672 306.592,334.338 305.5,334.5C 304.984,330.976 302.65,328.476 298.5,327C 299.618,325.926 300.618,324.76 301.5,323.5C 302.895,324.815 303.895,324.481 304.5,322.5C 303.091,322.346 301.424,322.179 299.5,322C 300.416,321.722 301.082,321.222 301.5,320.5C 302.213,317.763 302.213,315.096 301.5,312.5C 303.045,311.548 304.712,311.215 306.5,311.5C 306.65,307.839 305.15,306.839 302,308.5C 301.667,307.833 301.333,307.167 301,306.5C 299.274,307.576 297.441,307.743 295.5,307C 296.641,306.259 296.641,305.425 295.5,304.5C 298.538,300.435 301.205,300.601 303.5,305C 304.448,305.483 305.448,305.649 306.5,305.5C 306.5,303.833 306.5,302.167 306.5,300.5C 304.61,300.703 303.11,300.037 302,298.5C 301.409,297.517 301.743,296.85 303,296.5C 305.895,297.409 308.728,298.409 311.5,299.5C 315.351,300.809 319.351,300.809 323.5,299.5C 320.906,295.974 318.573,292.308 316.5,288.5 Z"/></g>
<g><path style="opacity:0.737" fill="#beb092" d="M 174.5,161.5 C 174.5,161.833 174.5,162.167 174.5,162.5C 164.161,162.334 153.828,162.5 143.5,163C 141.686,165.481 141.02,168.315 141.5,171.5C 141.333,226.168 141.5,280.834 142,335.5C 150.415,336.483 158.915,336.817 167.5,336.5C 167.5,336.833 167.5,337.167 167.5,337.5C 158.249,337.818 149.083,337.485 140,336.5C 139.179,279.805 139.346,223.138 140.5,166.5C 140.5,164.833 140.5,163.167 140.5,161.5C 151.833,161.5 163.167,161.5 174.5,161.5 Z"/></g>
<g><path style="opacity:1" fill="#c2ac7f" d="M 306.5,267.5 C 306.092,268.643 305.425,269.643 304.5,270.5C 302.004,267.159 299.671,263.659 297.5,260C 293.5,259.333 289.5,259.333 285.5,260C 289.957,266.414 294.291,272.914 298.5,279.5C 294.167,286.167 289.833,292.833 285.5,299.5C 289.122,300.659 292.789,300.825 296.5,300C 299.29,296.254 301.957,292.421 304.5,288.5C 306.594,292.364 308.928,296.031 311.5,299.5C 308.728,298.409 305.895,297.409 303,296.5C 301.743,296.85 301.409,297.517 302,298.5C 303.11,300.037 304.61,300.703 306.5,300.5C 306.5,302.167 306.5,303.833 306.5,305.5C 305.448,305.649 304.448,305.483 303.5,305C 301.205,300.601 298.538,300.435 295.5,304.5C 296.641,305.425 296.641,306.259 295.5,307C 297.441,307.743 299.274,307.576 301,306.5C 301.333,307.167 301.667,307.833 302,308.5C 305.15,306.839 306.65,307.839 306.5,311.5C 304.712,311.215 303.045,311.548 301.5,312.5C 302.213,315.096 302.213,317.763 301.5,320.5C 299.167,320.5 296.833,320.5 294.5,320.5C 294.265,324.803 291.931,326.47 287.5,325.5C 287.007,323.194 286.674,320.861 286.5,318.5C 285.279,319.028 284.113,319.695 283,320.5C 282,319.167 281,319.167 280,320.5C 279.536,319.906 279.369,319.239 279.5,318.5C 279.5,317.5 279.5,316.5 279.5,315.5C 281.124,315.36 282.29,316.027 283,317.5C 284.513,314.836 284.68,312.17 283.5,309.5C 280.231,308.775 277.398,307.108 275,304.5C 273.187,305.609 272.354,304.942 272.5,302.5C 273.978,302.762 275.311,302.429 276.5,301.5C 277.693,299.473 279.36,297.973 281.5,297C 283.743,294.577 284.41,291.91 283.5,289C 284.926,285.509 285.593,281.842 285.5,278C 284.612,273.185 283.612,268.685 282.5,264.5C 283.224,262.782 283.891,260.948 284.5,259C 290.11,257.314 295.777,257.147 301.5,258.5C 300.382,262.996 302.049,265.996 306.5,267.5 Z"/></g>
<g><path style="opacity:1" fill="#463213" d="M 261.5,310.5 C 265.991,309.259 267.324,309.259 265.5,310.5C 265.167,321.167 264.833,321.167 264.5,310.5C 263.5,310.5 262.5,310.5 261.5,310.5 Z"/></g>
<g><path style="opacity:1" fill="#8c7954" d="M 295.5,309.5 C 297.103,309.312 298.437,309.812 299.5,311C 298.86,312.647 298.86,314.481 299.5,316.5C 298.167,319.667 296.167,320.167 293.5,318C 295.256,317.798 296.922,317.298 298.5,316.5C 296.833,315.167 295.167,313.833 293.5,312.5C 294.193,311.482 294.859,310.482 295.5,309.5 Z"/></g>
<g><path style="opacity:1" fill="#513f20" d="M 253.5,309.5 C 255.048,309.821 255.715,310.821 255.5,312.5C 254.691,314.292 254.191,316.292 254,318.5C 253.503,315.854 253.336,313.187 253.5,310.5C 253.5,310.167 253.5,309.833 253.5,309.5 Z"/></g>
<g><path style="opacity:1" fill="#705d3c" d="M 259.5,318.5 C 257.178,317.198 255.845,315.198 255.5,312.5C 256.79,313.058 257.623,314.058 258,315.5C 258.333,313.833 258.667,312.167 259,310.5C 259.497,313.146 259.664,315.813 259.5,318.5 Z"/></g>
<g><path style="opacity:1" fill="#615234" d="M 283.5,309.5 C 284.68,312.17 284.513,314.836 283,317.5C 282.29,316.027 281.124,315.36 279.5,315.5C 279.5,316.5 279.5,317.5 279.5,318.5C 279.167,318.5 278.833,318.5 278.5,318.5C 278.5,315.5 278.5,312.5 278.5,309.5C 280.167,309.5 281.833,309.5 283.5,309.5 Z"/></g>
<g><path style="opacity:1" fill="#a99b81" d="M 280.5,310.5 C 284.474,312.581 284.141,313.914 279.5,314.5C 279.433,313.041 279.766,311.708 280.5,310.5 Z"/></g>
<g><path style="opacity:1" fill="#5d4b30" d="M 246.5,309.5 C 248.415,309.216 250.081,309.549 251.5,310.5C 250.167,310.5 248.833,310.5 247.5,310.5C 247.5,311.5 247.5,312.5 247.5,313.5C 251.5,313.833 251.5,314.167 247.5,314.5C 247.657,315.873 247.49,317.207 247,318.5C 246.502,315.518 246.335,312.518 246.5,309.5 Z"/></g>
<g><path style="opacity:1" fill="#665839" d="M 286.5,318.5 C 286.5,315.5 286.5,312.5 286.5,309.5C 288.199,309.34 289.866,309.506 291.5,310C 286.372,311.562 286.372,312.895 291.5,314C 290.207,314.49 288.873,314.657 287.5,314.5C 287.5,315.5 287.5,316.5 287.5,317.5C 289.199,317.34 290.866,317.506 292.5,318C 290.527,318.495 288.527,318.662 286.5,318.5 Z"/></g>
<g><path style="opacity:1" fill="#b09261" d="M 141.5,171.5 C 142.498,206.329 142.832,241.329 142.5,276.5C 142.334,282.176 142.501,287.843 143,293.5C 143.743,291.355 144.576,291.189 145.5,293C 143.808,295.935 143.142,299.102 143.5,302.5C 147.329,302.657 149.663,304.657 150.5,308.5C 149.318,310.467 149.985,311.8 152.5,312.5C 147.97,312.823 146.803,314.823 149,318.5C 150.714,318.205 152.547,318.538 154.5,319.5C 153.942,320.79 152.942,321.623 151.5,322C 154.167,322.333 156.833,322.667 159.5,323C 156.044,323.18 152.711,323.847 149.5,325C 151.833,325.333 154.167,325.667 156.5,326C 154.866,326.494 153.199,326.66 151.5,326.5C 151.104,329.482 151.771,332.149 153.5,334.5C 158.299,335.117 162.966,335.784 167.5,336.5C 158.915,336.817 150.415,336.483 142,335.5C 141.5,280.834 141.333,226.168 141.5,171.5 Z"/></g>
<g><path style="opacity:1" fill="#645232" d="M 272.5,319.5 C 271.71,318.599 270.71,317.932 269.5,317.5C 269.337,315.143 269.503,312.81 270,310.5C 270.333,312.5 270.667,314.5 271,316.5C 272.333,317.833 273.667,317.833 275,316.5C 275.333,314.5 275.667,312.5 276,310.5C 276.667,312.833 276.667,315.167 276,317.5C 275.184,318.823 274.017,319.489 272.5,319.5 Z"/></g>
<g><path style="opacity:1" fill="#caa66d" d="M 183.5,275.5 C 184.167,283.833 184.833,292.167 185.5,300.5C 185.833,300.5 186.167,300.5 186.5,300.5C 184.969,301.925 185.302,302.591 187.5,302.5C 187.64,304.124 186.973,305.29 185.5,306C 186.167,306.333 186.833,306.667 187.5,307C 183.148,307.419 182.815,308.086 186.5,309C 185.185,310.395 185.519,311.395 187.5,312C 187.167,312.333 186.833,312.667 186.5,313C 187.167,314.667 187.833,316.333 188.5,318C 186.519,318.605 186.185,319.605 187.5,321C 186.692,321.308 186.025,321.808 185.5,322.5C 186.833,323.5 186.833,324.5 185.5,325.5C 190.16,326.549 190.16,328.383 185.5,331C 188.821,333.503 188.821,335.336 185.5,336.5C 182.167,336.5 178.833,336.5 175.5,336.5C 171.3,331.432 170.633,325.932 173.5,320C 172.833,319.667 172.167,319.333 171.5,319C 174.167,317.667 174.167,316.333 171.5,315C 172.572,311.956 171.906,309.289 169.5,307C 170.167,306.333 170.833,305.667 171.5,305C 171.96,300.055 171.96,295.222 171.5,290.5C 172.025,289.808 172.692,289.308 173.5,289C 172.167,288.333 170.833,287.667 169.5,287C 170.83,285.035 172.164,283.035 173.5,281C 172.576,279.85 172.576,278.85 173.5,278C 175.585,277.471 177.418,277.971 179,279.5C 179.765,279.43 180.265,279.097 180.5,278.5C 181.694,277.728 182.694,276.728 183.5,275.5 Z"/></g>
<g><path style="opacity:1" fill="#c4ac7b" d="M 269.5,317.5 C 270.71,317.932 271.71,318.599 272.5,319.5C 274.598,320.484 276.598,320.151 278.5,318.5C 278.833,318.5 279.167,318.5 279.5,318.5C 279.369,319.239 279.536,319.906 280,320.5C 281,319.167 282,319.167 283,320.5C 284.113,319.695 285.279,319.028 286.5,318.5C 286.674,320.861 287.007,323.194 287.5,325.5C 291.931,326.47 294.265,324.803 294.5,320.5C 296.833,320.5 299.167,320.5 301.5,320.5C 301.082,321.222 300.416,321.722 299.5,322C 301.424,322.179 303.091,322.346 304.5,322.5C 303.895,324.481 302.895,324.815 301.5,323.5C 300.618,324.76 299.618,325.926 298.5,327C 302.65,328.476 304.984,330.976 305.5,334.5C 302.155,333.001 298.989,333.334 296,335.5C 287.839,335.168 279.672,335.168 271.5,335.5C 271.244,333.208 271.577,331.041 272.5,329C 270.104,328.121 267.771,327.454 265.5,327C 267.473,326.505 269.473,326.338 271.5,326.5C 271.5,324.833 271.5,323.167 271.5,321.5C 268.505,321.706 265.838,321.04 263.5,319.5C 264.5,319.5 265.5,319.5 266.5,319.5C 266.334,315.627 267.334,314.96 269.5,317.5 Z"/></g>
<g><path style="opacity:1" fill="#cfb284" d="M 239.5,308.5 C 235.173,311.075 234.173,314.742 236.5,319.5C 237.833,319.5 239.167,319.5 240.5,319.5C 240.261,321.467 240.594,323.301 241.5,325C 242.996,325.507 244.163,325.007 245,323.5C 245.492,324.549 245.326,325.549 244.5,326.5C 246.075,327.446 247.742,327.446 249.5,326.5C 252.526,327.741 255.526,328.741 258.5,329.5C 255.562,330.489 252.562,331.156 249.5,331.5C 249.506,334.548 248.506,335.048 246.5,333C 246.957,332.586 247.291,332.086 247.5,331.5C 244.634,330.792 241.8,330.125 239,329.5C 238.598,330.872 238.098,332.205 237.5,333.5C 233.057,334.6 228.724,335.6 224.5,336.5C 222.5,336.5 220.5,336.5 218.5,336.5C 217.307,334.195 217.641,331.862 219.5,329.5C 219.385,326.922 218.051,325.422 215.5,325C 215.833,324.667 216.167,324.333 216.5,324C 210.711,320.97 204.378,319.636 197.5,320C 196.544,316.606 196.211,313.106 196.5,309.5C 200.79,310.355 205.124,310.355 209.5,309.5C 209.5,312.167 209.5,314.833 209.5,317.5C 208.178,317.67 207.011,317.337 206,316.5C 205.667,314.5 205.333,312.5 205,310.5C 204.333,312.833 204.333,315.167 205,317.5C 207.522,320.326 209.522,319.993 211,316.5C 211.495,314.527 211.662,312.527 211.5,310.5C 211.98,313.078 212.98,315.412 214.5,317.5C 214.201,315.396 214.534,313.396 215.5,311.5C 216.732,310.855 218.065,310.689 219.5,311C 218.833,310.333 218.167,309.667 217.5,309C 218.846,307.413 220.179,307.58 221.5,309.5C 221.335,312.518 221.502,315.518 222,318.5C 222.284,316.114 223.284,315.448 225,316.5C 226.669,314.831 227.502,312.831 227.5,310.5C 228.6,309.442 229.934,308.608 231.5,308C 231.167,307.667 230.833,307.333 230.5,307C 232.773,305.73 234.939,306.23 237,308.5C 237.333,307.833 237.667,307.167 238,306.5C 238.278,307.416 238.778,308.082 239.5,308.5 Z"/></g>
<g><path style="opacity:1" fill="#8f7b5e" d="M 230.5,309.5 C 232.384,309.712 233.717,310.712 234.5,312.5C 233.305,313.967 233.305,315.467 234.5,317C 232.28,320.403 230.28,320.236 228.5,316.5C 229.17,314.137 229.837,311.804 230.5,309.5 Z"/></g>
<g><path style="opacity:1" fill="#816642" d="M 209.5,309.5 C 210.167,309.5 210.833,309.5 211.5,309.5C 211.5,309.833 211.5,310.167 211.5,310.5C 211.662,312.527 211.495,314.527 211,316.5C 209.522,319.993 207.522,320.326 205,317.5C 204.333,315.167 204.333,312.833 205,310.5C 205.333,312.5 205.667,314.5 206,316.5C 207.011,317.337 208.178,317.67 209.5,317.5C 209.5,314.833 209.5,312.167 209.5,309.5 Z"/></g>
<g><path style="opacity:1" fill="#866f48" d="M 214.5,317.5 C 216.199,317.34 217.866,317.506 219.5,318C 217.549,320.065 215.882,319.898 214.5,317.5 Z"/></g>
<g><path style="opacity:1" fill="#6c5739" d="M 221.5,309.5 C 223.099,309.232 224.432,309.566 225.5,310.5C 226.167,310.5 226.833,310.5 227.5,310.5C 227.502,312.831 226.669,314.831 225,316.5C 223.284,315.448 222.284,316.114 222,318.5C 221.502,315.518 221.335,312.518 221.5,309.5 Z"/></g>
<g><path style="opacity:1" fill="#d2bfa3" d="M 225.5,310.5 C 225.5,311.5 225.5,312.5 225.5,313.5C 224.5,313.5 223.5,313.5 222.5,313.5C 222.5,312.5 222.5,311.5 222.5,310.5C 223.5,310.5 224.5,310.5 225.5,310.5 Z"/></g>
<g><path style="opacity:1" fill="#e6bc81" d="M 215.5,307.5 C 214.486,308.674 213.153,309.34 211.5,309.5C 210.833,309.5 210.167,309.5 209.5,309.5C 205.124,310.355 200.79,310.355 196.5,309.5C 196.211,313.106 196.544,316.606 197.5,320C 204.378,319.636 210.711,320.97 216.5,324C 216.167,324.333 215.833,324.667 215.5,325C 218.051,325.422 219.385,326.922 219.5,329.5C 217.641,331.862 217.307,334.195 218.5,336.5C 207.5,336.5 196.5,336.5 185.5,336.5C 188.821,335.336 188.821,333.503 185.5,331C 190.16,328.383 190.16,326.549 185.5,325.5C 186.833,324.5 186.833,323.5 185.5,322.5C 186.025,321.808 186.692,321.308 187.5,321C 186.185,319.605 186.519,318.605 188.5,318C 187.833,316.333 187.167,314.667 186.5,313C 186.833,312.667 187.167,312.333 187.5,312C 185.519,311.395 185.185,310.395 186.5,309C 182.815,308.086 183.148,307.419 187.5,307C 186.833,306.667 186.167,306.333 185.5,306C 186.973,305.29 187.64,304.124 187.5,302.5C 190.816,303.875 193.816,303.542 196.5,301.5C 198.798,301.43 201.132,301.43 203.5,301.5C 202.48,299.568 202.313,297.568 203,295.5C 208.744,298.081 212.911,302.081 215.5,307.5 Z"/></g>
<g><path style="opacity:0.978" fill="#c6ad80" d="M 239.5,308.5 C 241.776,308.668 244.109,309.001 246.5,309.5C 246.335,312.518 246.502,315.518 247,318.5C 247.49,317.207 247.657,315.873 247.5,314.5C 251.5,314.167 251.5,313.833 247.5,313.5C 247.5,312.5 247.5,311.5 247.5,310.5C 248.833,310.5 250.167,310.5 251.5,310.5C 252.167,310.5 252.833,310.5 253.5,310.5C 253.336,313.187 253.503,315.854 254,318.5C 254.191,316.292 254.691,314.292 255.5,312.5C 255.845,315.198 257.178,317.198 259.5,318.5C 260.912,319.166 262.245,319.499 263.5,319.5C 265.838,321.04 268.505,321.706 271.5,321.5C 271.5,323.167 271.5,324.833 271.5,326.5C 269.473,326.338 267.473,326.505 265.5,327C 267.771,327.454 270.104,328.121 272.5,329C 271.577,331.041 271.244,333.208 271.5,335.5C 279.672,335.168 287.839,335.168 296,335.5C 298.989,333.334 302.155,333.001 305.5,334.5C 306.592,334.338 307.925,334.672 309.5,335.5C 310.167,335.5 310.5,335.833 310.5,336.5C 281.833,336.5 253.167,336.5 224.5,336.5C 228.724,335.6 233.057,334.6 237.5,333.5C 238.098,332.205 238.598,330.872 239,329.5C 241.8,330.125 244.634,330.792 247.5,331.5C 247.291,332.086 246.957,332.586 246.5,333C 248.506,335.048 249.506,334.548 249.5,331.5C 252.562,331.156 255.562,330.489 258.5,329.5C 255.526,328.741 252.526,327.741 249.5,326.5C 247.742,327.446 246.075,327.446 244.5,326.5C 245.326,325.549 245.492,324.549 245,323.5C 244.163,325.007 242.996,325.507 241.5,325C 240.594,323.301 240.261,321.467 240.5,319.5C 239.167,319.5 237.833,319.5 236.5,319.5C 234.173,314.742 235.173,311.075 239.5,308.5 Z"/></g>
<g><path style="opacity:1" fill="#6d5d3e" d="M 238.5,310.5 C 239.927,312.148 240.76,314.148 241,316.5C 242.044,315.377 242.71,314.044 243,312.5C 243.756,314.809 243.256,316.809 241.5,318.5C 239.599,316.272 238.599,313.605 238.5,310.5 Z"/></g>
</svg>
