<?xml version="1.0" encoding="UTF-8"?>
<!DOCTYPE svg PUBLIC "-//W3C//DTD SVG 1.1//EN" "http://www.w3.org/Graphics/SVG/1.1/DTD/svg11.dtd">
<svg xmlns="http://www.w3.org/2000/svg" version="1.1" width="500px" height="500px" style="shape-rendering:geometricPrecision; text-rendering:geometricPrecision; image-rendering:optimizeQuality; fill-rule:evenodd; clip-rule:evenodd" xmlns:xlink="http://www.w3.org/1999/xlink">
<g><path style="opacity:0.349" fill="#828282" d="M 259.5,141.5 C 250.148,141.434 240.815,141.768 231.5,142.5C 237.1,141.057 242.933,140.39 249,140.5C 252.683,140.501 256.183,140.835 259.5,141.5 Z"/></g>
<g><path style="opacity:1" fill="#383538" d="M 205.5,150.5 C 203.895,153.375 201.895,156.042 199.5,158.5C 197.929,159.309 196.262,159.643 194.5,159.5C 194.5,161.167 194.5,162.833 194.5,164.5C 194.5,165.167 194.167,165.5 193.5,165.5C 192.141,164.993 191.141,163.993 190.5,162.5C 189.131,164.124 187.464,164.624 185.5,164C 187.384,162.951 188.718,161.451 189.5,159.5C 193.907,155.016 199.24,152.016 205.5,150.5 Z"/></g>
<g><path style="opacity:1" fill="#353027" d="M 205.5,150.5 C 208.483,150.433 210.15,151.433 210.5,153.5C 216.126,153.732 221.793,153.398 227.5,152.5C 227.698,154.575 227.865,156.575 228,158.5C 224.853,159.162 222.019,160.495 219.5,162.5C 218.835,164.101 218.501,165.601 218.5,167C 216.527,167.495 214.527,167.662 212.5,167.5C 213.091,166.849 213.757,166.182 214.5,165.5C 212.922,164.702 211.256,164.202 209.5,164C 212.802,163.339 215.802,162.172 218.5,160.5C 220.941,159.443 223.275,158.11 225.5,156.5C 223.833,156.167 222.167,155.833 220.5,155.5C 217.795,155.316 215.462,155.983 213.5,157.5C 211.742,157.877 210.075,158.544 208.5,159.5C 207.146,157.816 205.479,157.316 203.5,158C 200.062,159.611 197.062,161.777 194.5,164.5C 194.5,162.833 194.5,161.167 194.5,159.5C 196.262,159.643 197.929,159.309 199.5,158.5C 201.895,156.042 203.895,153.375 205.5,150.5 Z"/></g>
<g><path style="opacity:1" fill="#282828" d="M 277.5,156.5 C 280.057,159.792 283.391,162.126 287.5,163.5C 287.167,164.167 286.833,164.833 286.5,165.5C 288.756,168.405 291.756,170.072 295.5,170.5C 295.5,170.833 295.5,171.167 295.5,171.5C 295.5,172.833 295.5,174.167 295.5,175.5C 293.738,175.643 292.071,175.309 290.5,174.5C 287.244,177.509 283.91,177.842 280.5,175.5C 279.833,176.5 279.167,177.5 278.5,178.5C 274.873,176.295 272.039,173.295 270,169.5C 269.82,171.488 269.986,173.488 270.5,175.5C 268.408,175.439 266.908,174.439 266,172.5C 265.751,173.624 265.251,174.624 264.5,175.5C 261.562,174.425 258.562,174.259 255.5,175C 256.902,176.342 256.569,177.176 254.5,177.5C 251.765,175.875 248.765,175.208 245.5,175.5C 245.5,174.5 245.5,173.5 245.5,172.5C 242.306,172.176 241.306,173.342 242.5,176C 241.975,176.692 241.308,177.192 240.5,177.5C 239.333,175.833 238.167,174.167 237,172.5C 236.072,175.035 234.238,176.035 231.5,175.5C 231.649,176.552 231.483,177.552 231,178.5C 230.558,176.321 229.558,175.655 228,176.5C 226.2,182.817 224.533,182.484 223,175.5C 222.103,178.292 220.937,180.959 219.5,183.5C 218.186,182.687 217.019,181.687 216,180.5C 215.502,183.482 215.335,186.482 215.5,189.5C 211.577,189.24 207.91,188.24 204.5,186.5C 207.019,184.359 207.019,182.359 204.5,180.5C 203.77,182.341 203.103,184.175 202.5,186C 199.1,187.409 195.767,188.909 192.5,190.5C 190.591,189.652 188.591,189.318 186.5,189.5C 185.662,189.158 185.328,188.492 185.5,187.5C 186.916,185.821 188.25,184.154 189.5,182.5C 192.242,180.914 195.242,179.747 198.5,179C 200.253,177.001 201.587,174.835 202.5,172.5C 204.92,172.292 207.253,172.626 209.5,173.5C 211.251,171.936 212.251,169.936 212.5,167.5C 214.527,167.662 216.527,167.495 218.5,167C 218.501,165.601 218.835,164.101 219.5,162.5C 222.019,160.495 224.853,159.162 228,158.5C 227.865,156.575 227.698,154.575 227.5,152.5C 228.75,152.577 229.583,153.244 230,154.5C 231.308,152.359 232.808,150.359 234.5,148.5C 235.905,151.852 237.239,152.018 238.5,149C 237.5,148.167 236.5,147.333 235.5,146.5C 237.401,145.769 239.401,145.769 241.5,146.5C 241.214,148.277 240.547,149.944 239.5,151.5C 239.833,152.167 240.167,152.833 240.5,153.5C 242.001,152.248 243.668,151.248 245.5,150.5C 244.164,148.625 244.664,147.292 247,146.5C 248.158,146.998 248.991,147.831 249.5,149C 247.971,150.582 247.471,152.415 248,154.5C 248.92,152.686 250.42,151.686 252.5,151.5C 254.894,152.428 257.227,152.428 259.5,151.5C 263.397,154.409 264.564,153.743 263,149.5C 260.708,150.908 258.541,150.741 256.5,149C 261.851,147.601 266.017,149.101 269,153.5C 270.874,151.062 271.707,148.562 271.5,146C 273.833,145.333 276.167,145.333 278.5,146C 277.112,146.889 277.278,147.389 279,147.5C 280.412,146.077 281.579,146.244 282.5,148C 280.55,150.706 278.883,153.539 277.5,156.5 Z"/></g>
<g><path style="opacity:1" fill="#d3cba4" d="M 218.5,160.5 C 218.414,159.504 218.748,158.671 219.5,158C 217.527,157.505 215.527,157.338 213.5,157.5C 215.462,155.983 217.795,155.316 220.5,155.5C 222.167,155.833 223.833,156.167 225.5,156.5C 223.275,158.11 220.941,159.443 218.5,160.5 Z"/></g>
<g><path style="opacity:1" fill="#333131" d="M 259.5,141.5 C 286.442,143.973 309.109,154.973 327.5,174.5C 327.751,176.17 328.418,177.67 329.5,179C 328.23,179.9 327.23,181.066 326.5,182.5C 325.809,179.647 324.476,177.147 322.5,175C 323.634,173.984 323.301,173.317 321.5,173C 321.833,172.667 322.167,172.333 322.5,172C 321.207,171.51 319.873,171.343 318.5,171.5C 317.833,171.5 317.5,171.167 317.5,170.5C 317.461,169.417 317.127,168.417 316.5,167.5C 313.893,166.682 311.226,166.182 308.5,166C 307.667,163.833 306.167,162.333 304,161.5C 303.517,160.552 303.351,159.552 303.5,158.5C 301.167,158.5 298.833,158.5 296.5,158.5C 292.646,159.837 288.979,159.337 285.5,157C 282.854,156.503 280.187,156.336 277.5,156.5C 278.883,153.539 280.55,150.706 282.5,148C 281.579,146.244 280.412,146.077 279,147.5C 277.278,147.389 277.112,146.889 278.5,146C 276.167,145.333 273.833,145.333 271.5,146C 271.707,148.562 270.874,151.062 269,153.5C 266.017,149.101 261.851,147.601 256.5,149C 258.541,150.741 260.708,150.908 263,149.5C 264.564,153.743 263.397,154.409 259.5,151.5C 257.227,152.428 254.894,152.428 252.5,151.5C 250.42,151.686 248.92,152.686 248,154.5C 247.471,152.415 247.971,150.582 249.5,149C 248.991,147.831 248.158,146.998 247,146.5C 244.664,147.292 244.164,148.625 245.5,150.5C 243.668,151.248 242.001,152.248 240.5,153.5C 240.167,152.833 239.833,152.167 239.5,151.5C 240.547,149.944 241.214,148.277 241.5,146.5C 239.401,145.769 237.401,145.769 235.5,146.5C 236.5,147.333 237.5,148.167 238.5,149C 237.239,152.018 235.905,151.852 234.5,148.5C 232.808,150.359 231.308,152.359 230,154.5C 229.583,153.244 228.75,152.577 227.5,152.5C 221.793,153.398 216.126,153.732 210.5,153.5C 210.15,151.433 208.483,150.433 205.5,150.5C 213.595,146.304 222.262,143.638 231.5,142.5C 240.815,141.768 250.148,141.434 259.5,141.5 Z"/></g>
<g><path style="opacity:1" fill="#7e7342" d="M 287.5,163.5 C 289.482,163.995 291.482,164.495 293.5,165C 291.19,165.497 288.857,165.663 286.5,165.5C 286.833,164.833 287.167,164.167 287.5,163.5 Z"/></g>
<g><path style="opacity:1" fill="#413821" d="M 296.5,158.5 C 298.833,158.5 301.167,158.5 303.5,158.5C 303.351,159.552 303.517,160.552 304,161.5C 306.167,162.333 307.667,163.833 308.5,166C 311.226,166.182 313.893,166.682 316.5,167.5C 317.127,168.417 317.461,169.417 317.5,170.5C 315.606,169.952 313.94,168.952 312.5,167.5C 311.269,168.651 311.269,169.817 312.5,171C 311.5,171.667 310.5,171.667 309.5,171C 306.59,165.255 302.257,161.088 296.5,158.5 Z"/></g>
<g><path style="opacity:1" fill="#222122" d="M 295.5,171.5 C 298.247,171.187 300.914,171.52 303.5,172.5C 302.675,173.386 301.675,173.719 300.5,173.5C 299.522,173.811 298.855,174.478 298.5,175.5C 299.309,177.071 299.643,178.738 299.5,180.5C 303.384,180.424 307.05,181.09 310.5,182.5C 310.324,186.192 311.991,188.192 315.5,188.5C 315.741,190.886 315.075,192.886 313.5,194.5C 312.141,193.993 311.141,192.993 310.5,191.5C 309.126,192.711 307.626,193.711 306,194.5C 303.663,194.101 301.163,194.101 298.5,194.5C 298.5,193.5 298.5,192.5 298.5,191.5C 296.833,191.5 295.167,191.5 293.5,191.5C 293.085,187.939 292.085,188.106 290.5,192C 291.973,192.71 292.64,193.876 292.5,195.5C 290.362,195.297 288.695,194.297 287.5,192.5C 285.099,195.413 283.766,195.079 283.5,191.5C 282.5,191.5 281.5,191.5 280.5,191.5C 280.323,198.134 279.823,198.134 279,191.5C 277.991,193.025 277.491,194.692 277.5,196.5C 274.762,195.965 272.928,196.965 272,199.5C 272.361,194.2 270.861,193.367 267.5,197C 268.741,198.487 268.241,199.32 266,199.5C 265.167,199.333 264.333,199.167 263.5,199C 266.712,197.291 266.878,195.791 264,194.5C 263.717,197.742 262.883,198.076 261.5,195.5C 260.148,196.518 259.148,197.851 258.5,199.5C 256.842,197.677 255.009,196.01 253,194.5C 252.558,196.679 251.558,197.345 250,196.5C 249.333,197.167 248.667,197.833 248,198.5C 245.754,197.447 243.754,196.114 242,194.5C 239.824,195.516 238.657,197.182 238.5,199.5C 236.473,199.338 234.473,199.505 232.5,200C 233.711,200.893 233.711,201.726 232.5,202.5C 231.833,200.833 231.167,199.167 230.5,197.5C 228.929,198.309 227.262,198.643 225.5,198.5C 225.719,199.675 225.386,200.675 224.5,201.5C 223.702,199.922 223.202,198.256 223,196.5C 222.517,197.448 222.351,198.448 222.5,199.5C 220.856,199.714 219.356,199.38 218,198.5C 217.517,199.448 217.351,200.448 217.5,201.5C 215.94,201.519 214.44,201.852 213,202.5C 211.242,200.231 209.408,200.065 207.5,202C 210.44,203.152 213.44,204.152 216.5,205C 214.105,207.145 211.938,206.978 210,204.5C 208.312,205.325 208.145,206.325 209.5,207.5C 207.816,208.15 206.483,209.15 205.5,210.5C 202.482,210.335 199.482,210.502 196.5,211C 195.748,211.671 195.414,212.504 195.5,213.5C 193.92,215.717 192.92,218.384 192.5,221.5C 191.914,221.291 191.414,220.957 191,220.5C 190.89,210.526 186.39,207.86 177.5,212.5C 176.853,215.454 176.686,218.454 177,221.5C 175.35,221.932 173.85,223.265 172.5,225.5C 173.491,226.665 174.491,227.832 175.5,229C 174.228,233.322 173.228,232.989 172.5,228C 170.075,226.355 167.408,225.189 164.5,224.5C 165.309,222.929 165.643,221.262 165.5,219.5C 166.376,219.631 167.043,219.298 167.5,218.5C 169.262,215.481 170.595,212.314 171.5,209C 169.965,208.504 168.465,208.67 167,209.5C 165.97,209.164 165.47,208.497 165.5,207.5C 166.605,206.4 167.938,205.733 169.5,205.5C 172.695,203.647 175.861,201.647 179,199.5C 179.498,196.518 179.665,193.518 179.5,190.5C 182.059,190.802 184.393,190.468 186.5,189.5C 188.591,189.318 190.591,189.652 192.5,190.5C 195.767,188.909 199.1,187.409 202.5,186C 203.103,184.175 203.77,182.341 204.5,180.5C 207.019,182.359 207.019,184.359 204.5,186.5C 207.91,188.24 211.577,189.24 215.5,189.5C 215.335,186.482 215.502,183.482 216,180.5C 217.019,181.687 218.186,182.687 219.5,183.5C 220.937,180.959 222.103,178.292 223,175.5C 224.533,182.484 226.2,182.817 228,176.5C 229.558,175.655 230.558,176.321 231,178.5C 231.483,177.552 231.649,176.552 231.5,175.5C 234.238,176.035 236.072,175.035 237,172.5C 238.167,174.167 239.333,175.833 240.5,177.5C 241.308,177.192 241.975,176.692 242.5,176C 241.306,173.342 242.306,172.176 245.5,172.5C 245.5,173.5 245.5,174.5 245.5,175.5C 248.765,175.208 251.765,175.875 254.5,177.5C 256.569,177.176 256.902,176.342 255.5,175C 258.562,174.259 261.562,174.425 264.5,175.5C 265.251,174.624 265.751,173.624 266,172.5C 266.908,174.439 268.408,175.439 270.5,175.5C 269.986,173.488 269.82,171.488 270,169.5C 272.039,173.295 274.873,176.295 278.5,178.5C 279.167,177.5 279.833,176.5 280.5,175.5C 283.91,177.842 287.244,177.509 290.5,174.5C 292.071,175.309 293.738,175.643 295.5,175.5C 295.5,174.167 295.5,172.833 295.5,171.5 Z"/></g>
<g><path style="opacity:1" fill="#615630" d="M 295.5,171.5 C 295.5,171.167 295.5,170.833 295.5,170.5C 300.461,169.687 304.794,170.853 308.5,174C 305.964,174.186 303.631,174.686 301.5,175.5C 300.662,175.158 300.328,174.492 300.5,173.5C 301.675,173.719 302.675,173.386 303.5,172.5C 300.914,171.52 298.247,171.187 295.5,171.5 Z"/></g>
<g><path style="opacity:1" fill="#383121" d="M 212.5,167.5 C 212.251,169.936 211.251,171.936 209.5,173.5C 207.253,172.626 204.92,172.292 202.5,172.5C 201.587,174.835 200.253,177.001 198.5,179C 195.242,179.747 192.242,180.914 189.5,182.5C 186.786,182.75 184.119,182.917 181.5,183C 182.5,182 183.5,181 184.5,180C 190.55,179.733 195.884,177.733 200.5,174C 197.833,173.667 195.167,173.333 192.5,173C 196.83,170.868 201.497,169.868 206.5,170C 208.407,168.878 210.407,168.045 212.5,167.5 Z"/></g>
<g><path style="opacity:1" fill="#342d1d" d="M 300.5,173.5 C 300.328,174.492 300.662,175.158 301.5,175.5C 301.953,176.458 302.619,177.292 303.5,178C 307.661,179.737 311.995,180.737 316.5,181C 317.551,182.385 318.884,183.385 320.5,184C 321.696,184.654 321.696,185.154 320.5,185.5C 317.897,184.438 315.23,184.272 312.5,185C 313.71,186.039 314.71,187.206 315.5,188.5C 311.991,188.192 310.324,186.192 310.5,182.5C 307.05,181.09 303.384,180.424 299.5,180.5C 299.643,178.738 299.309,177.071 298.5,175.5C 298.855,174.478 299.522,173.811 300.5,173.5 Z"/></g>
<g><path style="opacity:1" fill="#eee5af" d="M 213.5,157.5 C 215.527,157.338 217.527,157.505 219.5,158C 218.748,158.671 218.414,159.504 218.5,160.5C 215.802,162.172 212.802,163.339 209.5,164C 211.256,164.202 212.922,164.702 214.5,165.5C 213.757,166.182 213.091,166.849 212.5,167.5C 210.407,168.045 208.407,168.878 206.5,170C 201.497,169.868 196.83,170.868 192.5,173C 195.167,173.333 197.833,173.667 200.5,174C 195.884,177.733 190.55,179.733 184.5,180C 183.5,181 182.5,182 181.5,183C 184.119,182.917 186.786,182.75 189.5,182.5C 188.25,184.154 186.916,185.821 185.5,187.5C 180.729,188.823 176.229,190.823 172,193.5C 171.535,194.931 170.701,196.097 169.5,197C 172.141,196.189 174.808,195.022 177.5,193.5C 177.833,193.833 178.167,194.167 178.5,194.5C 175.855,198.476 172.855,202.143 169.5,205.5C 167.938,205.733 166.605,206.4 165.5,207.5C 164.167,208.167 163.167,209.167 162.5,210.5C 161.153,211.171 159.986,211.171 159,210.5C 158.692,211.308 158.192,211.975 157.5,212.5C 156.201,209.423 156.368,206.423 158,203.5C 158.671,202.748 159.504,202.414 160.5,202.5C 160.786,204.933 161.452,204.933 162.5,202.5C 163.114,197.167 163.947,191.834 165,186.5C 167.706,184.129 170.039,181.463 172,178.5C 171.872,181.486 171.872,184.486 172,187.5C 173.333,186.167 174.667,184.833 176,183.5C 176.835,174.995 181.168,168.995 189,165.5C 188.873,168.383 188.207,171.05 187,173.5C 188.378,171.787 190.045,170.453 192,169.5C 192.791,168.255 193.291,166.922 193.5,165.5C 194.167,165.5 194.5,165.167 194.5,164.5C 197.062,161.777 200.062,159.611 203.5,158C 205.479,157.316 207.146,157.816 208.5,159.5C 210.075,158.544 211.742,157.877 213.5,157.5 Z"/></g>
<g><path style="opacity:1" fill="#eee2aa" d="M 277.5,156.5 C 280.187,156.336 282.854,156.503 285.5,157C 288.979,159.337 292.646,159.837 296.5,158.5C 302.257,161.088 306.59,165.255 309.5,171C 310.5,171.667 311.5,171.667 312.5,171C 311.269,169.817 311.269,168.651 312.5,167.5C 313.94,168.952 315.606,169.952 317.5,170.5C 317.5,171.167 317.833,171.5 318.5,171.5C 321.92,176.673 325.087,182.006 328,187.5C 328.333,185.5 328.667,183.5 329,181.5C 335.52,186.759 338.353,193.592 337.5,202C 337.833,202.5 338.167,203 338.5,203.5C 339.308,201.577 339.808,199.577 340,197.5C 345.071,204.079 346.737,211.412 345,219.5C 345.69,220.738 346.19,220.738 346.5,219.5C 347.812,221.743 348.478,224.41 348.5,227.5C 348.622,230.691 348.122,233.691 347,236.5C 345.171,231.496 342.671,226.829 339.5,222.5C 340.807,221.135 340.807,219.802 339.5,218.5C 340.262,215.848 339.762,213.182 338,210.5C 336.67,209.418 335.17,208.751 333.5,208.5C 328.573,204.659 324.573,199.992 321.5,194.5C 325.008,195.504 328.174,197.171 331,199.5C 330.693,195.03 328.193,192.697 323.5,192.5C 320.899,191.199 318.232,189.866 315.5,188.5C 314.71,187.206 313.71,186.039 312.5,185C 315.23,184.272 317.897,184.438 320.5,185.5C 321.696,185.154 321.696,184.654 320.5,184C 318.884,183.385 317.551,182.385 316.5,181C 311.995,180.737 307.661,179.737 303.5,178C 302.619,177.292 301.953,176.458 301.5,175.5C 303.631,174.686 305.964,174.186 308.5,174C 304.794,170.853 300.461,169.687 295.5,170.5C 291.756,170.072 288.756,168.405 286.5,165.5C 288.857,165.663 291.19,165.497 293.5,165C 291.482,164.495 289.482,163.995 287.5,163.5C 283.391,162.126 280.057,159.792 277.5,156.5 Z"/></g>
<g><path style="opacity:1" fill="#40372c" d="M 318.5,171.5 C 319.873,171.343 321.207,171.51 322.5,172C 322.167,172.333 321.833,172.667 321.5,173C 323.301,173.317 323.634,173.984 322.5,175C 324.476,177.147 325.809,179.647 326.5,182.5C 327.23,181.066 328.23,179.9 329.5,179C 328.418,177.67 327.751,176.17 327.5,174.5C 338.508,185.165 346.508,197.832 351.5,212.5C 350.25,212.577 349.417,213.244 349,214.5C 348.112,211.922 347.612,209.255 347.5,206.5C 346.249,209.874 346.249,213.207 347.5,216.5C 346.89,217.391 346.557,218.391 346.5,219.5C 346.19,220.738 345.69,220.738 345,219.5C 346.737,211.412 345.071,204.079 340,197.5C 339.808,199.577 339.308,201.577 338.5,203.5C 338.167,203 337.833,202.5 337.5,202C 338.353,193.592 335.52,186.759 329,181.5C 328.667,183.5 328.333,185.5 328,187.5C 325.087,182.006 321.92,176.673 318.5,171.5 Z"/></g>
<g><path style="opacity:1" fill="#1e1d1d" d="M 313.5,194.5 C 313.52,196.143 312.853,197.476 311.5,198.5C 314.353,199.191 316.853,200.524 319,202.5C 318.966,197.77 320.466,197.27 323.5,201C 321.673,204.352 319.006,206.685 315.5,208C 317.009,211.669 315.676,213.169 311.5,212.5C 306.871,211.519 302.204,211.352 297.5,212C 296.944,212.383 296.611,212.883 296.5,213.5C 291.737,212.912 287.071,211.912 282.5,210.5C 278.957,210.507 275.79,211.507 273,213.5C 272.5,213 272,212.5 271.5,212C 264.962,211.225 258.462,211.391 252,212.5C 250.105,210.818 247.938,210.318 245.5,211C 244.748,211.671 244.414,212.504 244.5,213.5C 239.994,212.689 235.66,212.689 231.5,213.5C 226.388,211.9 221.055,211.067 215.5,211C 214.586,208.403 212.919,208.07 210.5,210C 209.624,211.586 208.624,213.086 207.5,214.5C 206.295,213.423 205.628,212.09 205.5,210.5C 206.483,209.15 207.816,208.15 209.5,207.5C 208.145,206.325 208.312,205.325 210,204.5C 211.938,206.978 214.105,207.145 216.5,205C 213.44,204.152 210.44,203.152 207.5,202C 209.408,200.065 211.242,200.231 213,202.5C 214.44,201.852 215.94,201.519 217.5,201.5C 217.351,200.448 217.517,199.448 218,198.5C 219.356,199.38 220.856,199.714 222.5,199.5C 222.351,198.448 222.517,197.448 223,196.5C 223.202,198.256 223.702,199.922 224.5,201.5C 225.386,200.675 225.719,199.675 225.5,198.5C 227.262,198.643 228.929,198.309 230.5,197.5C 231.167,199.167 231.833,200.833 232.5,202.5C 233.711,201.726 233.711,200.893 232.5,200C 234.473,199.505 236.473,199.338 238.5,199.5C 238.657,197.182 239.824,195.516 242,194.5C 243.754,196.114 245.754,197.447 248,198.5C 248.667,197.833 249.333,197.167 250,196.5C 251.558,197.345 252.558,196.679 253,194.5C 255.009,196.01 256.842,197.677 258.5,199.5C 259.148,197.851 260.148,196.518 261.5,195.5C 262.883,198.076 263.717,197.742 264,194.5C 266.878,195.791 266.712,197.291 263.5,199C 264.333,199.167 265.167,199.333 266,199.5C 268.241,199.32 268.741,198.487 267.5,197C 270.861,193.367 272.361,194.2 272,199.5C 272.928,196.965 274.762,195.965 277.5,196.5C 277.491,194.692 277.991,193.025 279,191.5C 279.823,198.134 280.323,198.134 280.5,191.5C 281.5,191.5 282.5,191.5 283.5,191.5C 283.766,195.079 285.099,195.413 287.5,192.5C 288.695,194.297 290.362,195.297 292.5,195.5C 292.64,193.876 291.973,192.71 290.5,192C 292.085,188.106 293.085,187.939 293.5,191.5C 295.167,191.5 296.833,191.5 298.5,191.5C 298.5,192.5 298.5,193.5 298.5,194.5C 301.163,194.101 303.663,194.101 306,194.5C 307.626,193.711 309.126,192.711 310.5,191.5C 311.141,192.993 312.141,193.993 313.5,194.5 Z"/></g>
<g><path style="opacity:1" fill="#403215" d="M 323.5,192.5 C 328.193,192.697 330.693,195.03 331,199.5C 328.174,197.171 325.008,195.504 321.5,194.5C 322.167,193.833 322.833,193.167 323.5,192.5 Z"/></g>
<g><path style="opacity:1" fill="#362f1e" d="M 185.5,187.5 C 185.328,188.492 185.662,189.158 186.5,189.5C 184.393,190.468 182.059,190.802 179.5,190.5C 179.665,193.518 179.498,196.518 179,199.5C 175.861,201.647 172.695,203.647 169.5,205.5C 172.855,202.143 175.855,198.476 178.5,194.5C 178.167,194.167 177.833,193.833 177.5,193.5C 174.808,195.022 172.141,196.189 169.5,197C 170.701,196.097 171.535,194.931 172,193.5C 176.229,190.823 180.729,188.823 185.5,187.5 Z"/></g>
<g><path style="opacity:1" fill="#90865f" d="M 160.5,196.5 C 161.167,198.5 161.833,200.5 162.5,202.5C 161.452,204.933 160.786,204.933 160.5,202.5C 160.5,200.5 160.5,198.5 160.5,196.5 Z"/></g>
<g><path style="opacity:1" fill="#1f1b17" d="M 315.5,188.5 C 318.232,189.866 320.899,191.199 323.5,192.5C 322.833,193.167 322.167,193.833 321.5,194.5C 324.573,199.992 328.573,204.659 333.5,208.5C 333.096,209.756 332.429,210.923 331.5,212C 331.57,212.765 331.903,213.265 332.5,213.5C 334.306,218.446 336.639,223.112 339.5,227.5C 338.167,228.167 336.833,228.833 335.5,229.5C 334.167,230.933 332.667,232.267 331,233.5C 328.726,232.189 326.56,232.189 324.5,233.5C 321.642,233.028 319.642,234.028 318.5,236.5C 318.672,235.508 318.338,234.842 317.5,234.5C 316.295,233.314 314.961,233.314 313.5,234.5C 313.284,232.319 314.117,230.653 316,229.5C 316.663,224.463 316.496,219.463 315.5,214.5C 313.62,214.771 312.287,214.104 311.5,212.5C 315.676,213.169 317.009,211.669 315.5,208C 319.006,206.685 321.673,204.352 323.5,201C 320.466,197.27 318.966,197.77 319,202.5C 316.853,200.524 314.353,199.191 311.5,198.5C 312.853,197.476 313.52,196.143 313.5,194.5C 315.075,192.886 315.741,190.886 315.5,188.5 Z"/></g>
<g><path style="opacity:1" fill="#312819" d="M 165.5,207.5 C 165.47,208.497 165.97,209.164 167,209.5C 168.465,208.67 169.965,208.504 171.5,209C 170.595,212.314 169.262,215.481 167.5,218.5C 167.043,219.298 166.376,219.631 165.5,219.5C 170.072,209.102 168.572,208.102 161,216.5C 160.964,214.428 161.464,212.428 162.5,210.5C 163.167,209.167 164.167,208.167 165.5,207.5 Z"/></g>
<g><path style="opacity:1" fill="#423318" d="M 333.5,208.5 C 335.17,208.751 336.67,209.418 338,210.5C 339.762,213.182 340.262,215.848 339.5,218.5C 338.24,215.404 336.074,213.071 333,211.5C 332.536,212.094 332.369,212.761 332.5,213.5C 331.903,213.265 331.57,212.765 331.5,212C 332.429,210.923 333.096,209.756 333.5,208.5 Z"/></g>
<g><path style="opacity:1" fill="#373028" d="M 189.5,159.5 C 188.718,161.451 187.384,162.951 185.5,164C 187.464,164.624 189.131,164.124 190.5,162.5C 191.141,163.993 192.141,164.993 193.5,165.5C 193.291,166.922 192.791,168.255 192,169.5C 190.045,170.453 188.378,171.787 187,173.5C 188.207,171.05 188.873,168.383 189,165.5C 181.168,168.995 176.835,174.995 176,183.5C 174.667,184.833 173.333,186.167 172,187.5C 171.872,184.486 171.872,181.486 172,178.5C 170.039,181.463 167.706,184.129 165,186.5C 163.947,191.834 163.114,197.167 162.5,202.5C 161.833,200.5 161.167,198.5 160.5,196.5C 158.442,198.927 156.609,201.593 155,204.5C 154.819,209.907 154.652,215.24 154.5,220.5C 153.573,218.887 152.739,217.221 152,215.5C 147.333,223.167 147.333,230.833 152,238.5C 152.667,240.5 152.667,242.5 152,244.5C 150.672,241.688 149.172,239.022 147.5,236.5C 147.5,236.167 147.5,235.833 147.5,235.5C 147.001,231.51 146.501,227.51 146,223.5C 145.148,224.571 144.315,225.571 143.5,226.5C 149.485,197.553 164.819,175.22 189.5,159.5 Z"/></g>
<g><path style="opacity:1" fill="#dfd29e" d="M 193.5,231.5 C 193.238,232.978 193.571,234.311 194.5,235.5C 195.288,234.23 196.288,233.23 197.5,232.5C 195.986,238.406 194.986,244.406 194.5,250.5C 193.167,250.5 191.833,250.5 190.5,250.5C 186.254,217.463 184.587,217.463 185.5,250.5C 183.5,250.5 181.5,250.5 179.5,250.5C 179.5,238.167 179.5,225.833 179.5,213.5C 182.5,213.5 185.5,213.5 188.5,213.5C 189.342,220.21 190.508,226.877 192,233.5C 192.278,232.584 192.778,231.918 193.5,231.5 Z"/></g>
<g><path style="opacity:1" fill="#271e11" d="M 296.5,213.5 C 296.5,225.833 296.5,238.167 296.5,250.5C 298.735,250.795 300.735,250.461 302.5,249.5C 302.833,249.5 303.167,249.5 303.5,249.5C 303.25,250.922 302.417,251.922 301,252.5C 298.959,251.577 296.792,251.244 294.5,251.5C 294.617,249.516 293.95,247.85 292.5,246.5C 291.333,248.167 290.167,249.833 289,251.5C 288.617,250.944 288.117,250.611 287.5,250.5C 289.27,248.887 290.436,246.887 291,244.5C 291.667,235.833 291.667,227.167 291,218.5C 288.416,213.295 284.249,211.461 278.5,213C 276,214.167 274.167,216 273,218.5C 272.5,226.827 272.334,235.16 272.5,243.5C 271.508,235.684 271.174,227.684 271.5,219.5C 269.856,219.286 268.356,219.62 267,220.5C 266.83,229.676 266.33,238.676 265.5,247.5C 265.5,237.833 265.5,228.167 265.5,218.5C 267.5,218.5 269.5,218.5 271.5,218.5C 271.5,216.833 271.5,215.167 271.5,213.5C 265.167,213.5 258.833,213.5 252.5,213.5C 252.5,215.167 252.5,216.833 252.5,218.5C 254.5,218.5 256.5,218.5 258.5,218.5C 258.5,220.5 258.5,222.5 258.5,224.5C 257.549,223.081 257.216,221.415 257.5,219.5C 255.533,219.261 253.699,219.594 252,220.5C 251.343,228.515 251.509,236.515 252.5,244.5C 252.333,246.167 252.167,247.833 252,249.5C 251.617,250.056 251.117,250.389 250.5,250.5C 250.5,238.167 250.5,225.833 250.5,213.5C 248.5,213.5 246.5,213.5 244.5,213.5C 244.414,212.504 244.748,211.671 245.5,211C 247.938,210.318 250.105,210.818 252,212.5C 258.462,211.391 264.962,211.225 271.5,212C 272,212.5 272.5,213 273,213.5C 275.79,211.507 278.957,210.507 282.5,210.5C 287.071,211.912 291.737,212.912 296.5,213.5 Z"/></g>
<g><path style="opacity:1" fill="#322716" d="M 311.5,212.5 C 312.287,214.104 313.62,214.771 315.5,214.5C 316.496,219.463 316.663,224.463 316,229.5C 314.117,230.653 313.284,232.319 313.5,234.5C 313.5,235.5 313.5,236.5 313.5,237.5C 312.521,236.235 311.521,234.901 310.5,233.5C 312.159,232.183 313.326,230.517 314,228.5C 314.667,224.833 314.667,221.167 314,217.5C 312.786,215.951 311.286,214.785 309.5,214C 305.179,213.501 300.846,213.334 296.5,213.5C 296.611,212.883 296.944,212.383 297.5,212C 302.204,211.352 306.871,211.519 311.5,212.5 Z"/></g>
<g><path style="opacity:1" fill="#282014" d="M 231.5,213.5 C 235.66,212.689 239.994,212.689 244.5,213.5C 244.666,220.508 244.5,227.508 244,234.5C 241.466,227.898 239.133,221.231 237,214.5C 235.301,213.594 233.467,213.261 231.5,213.5 Z"/></g>
<g><path style="opacity:1" fill="#d5c896" d="M 265.5,247.5 C 265.5,248.5 265.5,249.5 265.5,250.5C 263.167,250.5 260.833,250.5 258.5,250.5C 258.5,241.833 258.5,233.167 258.5,224.5C 258.5,222.5 258.5,220.5 258.5,218.5C 256.5,218.5 254.5,218.5 252.5,218.5C 252.5,216.833 252.5,215.167 252.5,213.5C 258.833,213.5 265.167,213.5 271.5,213.5C 271.5,215.167 271.5,216.833 271.5,218.5C 269.5,218.5 267.5,218.5 265.5,218.5C 265.5,228.167 265.5,237.833 265.5,247.5 Z"/></g>
<g><path style="opacity:1" fill="#e6daa4" d="M 160.5,196.5 C 160.5,198.5 160.5,200.5 160.5,202.5C 159.504,202.414 158.671,202.748 158,203.5C 156.368,206.423 156.201,209.423 157.5,212.5C 158.192,211.975 158.692,211.308 159,210.5C 159.986,211.171 161.153,211.171 162.5,210.5C 161.464,212.428 160.964,214.428 161,216.5C 168.572,208.102 170.072,209.102 165.5,219.5C 162.934,223.609 160.101,227.609 157,231.5C 156.333,233.833 156.333,236.167 157,238.5C 158.018,233.789 160.518,230.122 164.5,227.5C 165.011,231.159 164.511,234.826 163,238.5C 160.371,242.115 158.204,245.948 156.5,250C 156.796,251.888 157.296,253.722 158,255.5C 161.055,245.203 162.889,245.203 163.5,255.5C 163.495,257.696 163.162,259.696 162.5,261.5C 162.719,260.325 162.386,259.325 161.5,258.5C 157.62,258.71 155.953,260.71 156.5,264.5C 152.815,260.138 149.482,255.472 146.5,250.5C 146.181,245.637 146.514,240.97 147.5,236.5C 149.172,239.022 150.672,241.688 152,244.5C 152.667,242.5 152.667,240.5 152,238.5C 147.333,230.833 147.333,223.167 152,215.5C 152.739,217.221 153.573,218.887 154.5,220.5C 154.652,215.24 154.819,209.907 155,204.5C 156.609,201.593 158.442,198.927 160.5,196.5 Z"/></g>
<g><path style="opacity:1" fill="#251e14" d="M 195.5,213.5 C 195.114,219.534 194.447,225.534 193.5,231.5C 192.778,231.918 192.278,232.584 192,233.5C 190.508,226.877 189.342,220.21 188.5,213.5C 185.5,213.5 182.5,213.5 179.5,213.5C 179.5,225.833 179.5,238.167 179.5,250.5C 178.018,245.68 176.685,240.68 175.5,235.5C 174.998,234.479 174.332,234.312 173.5,235C 174.654,235.914 174.487,236.747 173,237.5C 172.178,235.212 171.511,232.878 171,230.5C 170,229.167 169,229.167 168,230.5C 167.184,235.623 165.684,240.457 163.5,245C 164.891,246.02 166.391,246.853 168,247.5C 168.556,245.405 169.056,245.238 169.5,247C 167.296,248.894 165.796,251.061 165,253.5C 164.238,257.587 164.404,261.587 165.5,265.5C 164.679,268.641 164.179,271.975 164,275.5C 161.24,271.1 160.74,266.434 162.5,261.5C 163.162,259.696 163.495,257.696 163.5,255.5C 162.889,245.203 161.055,245.203 158,255.5C 157.296,253.722 156.796,251.888 156.5,250C 158.204,245.948 160.371,242.115 163,238.5C 164.511,234.826 165.011,231.159 164.5,227.5C 160.518,230.122 158.018,233.789 157,238.5C 156.333,236.167 156.333,233.833 157,231.5C 160.101,227.609 162.934,223.609 165.5,219.5C 165.643,221.262 165.309,222.929 164.5,224.5C 167.408,225.189 170.075,226.355 172.5,228C 173.228,232.989 174.228,233.322 175.5,229C 174.491,227.832 173.491,226.665 172.5,225.5C 173.85,223.265 175.35,221.932 177,221.5C 176.686,218.454 176.853,215.454 177.5,212.5C 186.39,207.86 190.89,210.526 191,220.5C 191.414,220.957 191.914,221.291 192.5,221.5C 192.92,218.384 193.92,215.717 195.5,213.5 Z"/></g>
<g><path style="opacity:1" fill="#ebdea1" d="M 199.5,230.5 C 199.663,228.143 199.497,225.81 199,223.5C 198.495,225.518 197.995,227.518 197.5,229.5C 197.5,230.5 197.5,231.5 197.5,232.5C 196.288,233.23 195.288,234.23 194.5,235.5C 193.571,234.311 193.238,232.978 193.5,231.5C 196.204,229.013 196.87,226.013 195.5,222.5C 196.213,220.224 196.713,217.891 197,215.5C 199.041,214.577 201.208,214.244 203.5,214.5C 203.5,225.5 203.5,236.5 203.5,247.5C 202.5,247.5 201.5,247.5 200.5,247.5C 200.822,241.642 200.489,235.975 199.5,230.5 Z"/></g>
<g><path style="opacity:0.557" fill="#8c8987" d="M 353.5,219.5 C 354.924,221.515 355.59,223.848 355.5,226.5C 354.076,224.485 353.41,222.152 353.5,219.5 Z"/></g>
<g><path style="opacity:1" fill="#e0d5a8" d="M 195.5,213.5 C 198.5,213.5 201.5,213.5 204.5,213.5C 204.5,225.833 204.5,238.167 204.5,250.5C 202.833,250.5 201.167,250.5 199.5,250.5C 199.5,243.833 199.5,237.167 199.5,230.5C 200.489,235.975 200.822,241.642 200.5,247.5C 201.5,247.5 202.5,247.5 203.5,247.5C 203.5,236.5 203.5,225.5 203.5,214.5C 201.208,214.244 199.041,214.577 197,215.5C 196.713,217.891 196.213,220.224 195.5,222.5C 196.87,226.013 196.204,229.013 193.5,231.5C 194.447,225.534 195.114,219.534 195.5,213.5 Z"/></g>
<g><path style="opacity:1" fill="#3f2f14" d="M 339.5,227.5 C 342.313,229.47 343.48,232.137 343,235.5C 341.39,233.269 339.557,231.269 337.5,229.5C 336.614,230.325 336.281,231.325 336.5,232.5C 335.596,231.791 335.263,230.791 335.5,229.5C 336.833,228.833 338.167,228.167 339.5,227.5 Z"/></g>
<g><path style="opacity:1" fill="#dccd98" d="M 287.5,250.5 C 287.167,250.5 286.833,250.5 286.5,250.5C 279.626,252.633 274.959,250.299 272.5,243.5C 272.334,235.16 272.5,226.827 273,218.5C 274.167,216 276,214.167 278.5,213C 284.249,211.461 288.416,213.295 291,218.5C 291.667,227.167 291.667,235.833 291,244.5C 290.436,246.887 289.27,248.887 287.5,250.5 Z"/></g>
<g><path style="opacity:1" fill="#1f170b" d="M 280.5,217.5 C 281.822,217.33 282.989,217.663 284,218.5C 284.5,227.494 284.666,236.494 284.5,245.5C 282.833,245.5 281.167,245.5 279.5,245.5C 279.195,236.083 279.528,226.75 280.5,217.5 Z"/></g>
<g><path style="opacity:1" fill="#756644" d="M 199.5,230.5 C 199.5,237.167 199.5,243.833 199.5,250.5C 198.833,243.5 198.167,236.5 197.5,229.5C 197.995,227.518 198.495,225.518 199,223.5C 199.497,225.81 199.663,228.143 199.5,230.5 Z"/></g>
<g><path style="opacity:1" fill="#e0d19d" d="M 231.5,213.5 C 233.467,213.261 235.301,213.594 237,214.5C 239.133,221.231 241.466,227.898 244,234.5C 244.5,227.508 244.666,220.508 244.5,213.5C 246.5,213.5 248.5,213.5 250.5,213.5C 250.5,225.833 250.5,238.167 250.5,250.5C 248.396,250.799 246.396,250.466 244.5,249.5C 242.292,244.205 240.292,238.871 238.5,233.5C 238.108,231.821 237.608,230.154 237,228.5C 236.5,235.826 236.334,243.159 236.5,250.5C 234.833,250.5 233.167,250.5 231.5,250.5C 231.5,238.167 231.5,225.833 231.5,213.5 Z"/></g>
<g><path style="opacity:1" fill="#1e170e" d="M 335.5,229.5 C 335.263,230.791 335.596,231.791 336.5,232.5C 338.36,238.593 340.694,244.426 343.5,250C 343.333,251.167 343.167,252.333 343,253.5C 341.585,251.039 340.085,248.706 338.5,246.5C 338.167,248.667 337.833,250.833 337.5,253C 338.403,259.164 338.903,265.331 339,271.5C 338.667,272.167 338.333,272.833 338,273.5C 337.818,270.774 337.318,268.107 336.5,265.5C 335.818,266.243 335.151,266.909 334.5,267.5C 333.496,266.317 332.662,264.984 332,263.5C 330.249,264.809 328.749,264.475 327.5,262.5C 325.24,263.912 322.907,264.912 320.5,265.5C 317.263,267.015 314.263,266.681 311.5,264.5C 308.772,263.795 305.939,263.128 303,262.5C 302.502,259.518 302.335,256.518 302.5,253.5C 303.833,253.5 305.167,253.5 306.5,253.5C 306.912,251.027 305.912,249.694 303.5,249.5C 303.181,244.637 303.514,239.97 304.5,235.5C 307.383,238.908 309.716,242.742 311.5,247C 308.548,251.757 305.881,256.591 303.5,261.5C 305.527,261.662 307.527,261.495 309.5,261C 311.377,258.079 313.377,255.246 315.5,252.5C 317.623,255.246 319.623,258.079 321.5,261C 323.902,261.814 326.235,261.647 328.5,260.5C 325.001,256.173 322.001,251.506 319.5,246.5C 321.969,242.199 324.636,238.033 327.5,234C 326.552,233.517 325.552,233.351 324.5,233.5C 326.56,232.189 328.726,232.189 331,233.5C 332.667,232.267 334.167,230.933 335.5,229.5 Z"/></g>
<g><path style="opacity:1" fill="#756e4d" d="M 147.5,235.5 C 147.5,235.833 147.5,236.167 147.5,236.5C 146.514,240.97 146.181,245.637 146.5,250.5C 145.836,248.19 145.503,245.69 145.5,243C 145.525,240.071 146.191,237.571 147.5,235.5 Z"/></g>
<g><path style="opacity:1" fill="#281e12" d="M 351.5,212.5 C 352.924,214.515 353.59,216.848 353.5,219.5C 353.41,222.152 354.076,224.485 355.5,226.5C 355.5,226.833 355.5,227.167 355.5,227.5C 356.418,239.733 355.418,251.733 352.5,263.5C 352.762,262.022 352.429,260.689 351.5,259.5C 349.517,260.982 347.684,262.649 346,264.5C 345.833,263.833 345.667,263.167 345.5,262.5C 347.439,259.385 349.606,256.385 352,253.5C 353.517,247.92 353.851,242.253 353,236.5C 351.426,237.984 350.093,239.651 349,241.5C 348.833,240.833 348.667,240.167 348.5,239.5C 352.731,231.528 352.398,223.862 347.5,216.5C 346.249,213.207 346.249,209.874 347.5,206.5C 347.612,209.255 348.112,211.922 349,214.5C 349.417,213.244 350.25,212.577 351.5,212.5 Z"/></g>
<g><path style="opacity:1" fill="#e5d59d" d="M 296.5,213.5 C 300.846,213.334 305.179,213.501 309.5,214C 311.286,214.785 312.786,215.951 314,217.5C 314.667,221.167 314.667,224.833 314,228.5C 313.326,230.517 312.159,232.183 310.5,233.5C 311.521,234.901 312.521,236.235 313.5,237.5C 313.415,238.995 314.081,239.995 315.5,240.5C 317.288,239.717 318.288,238.384 318.5,236.5C 319.642,234.028 321.642,233.028 324.5,233.5C 325.552,233.351 326.552,233.517 327.5,234C 324.636,238.033 321.969,242.199 319.5,246.5C 322.001,251.506 325.001,256.173 328.5,260.5C 326.235,261.647 323.902,261.814 321.5,261C 319.623,258.079 317.623,255.246 315.5,252.5C 313.377,255.246 311.377,258.079 309.5,261C 307.527,261.495 305.527,261.662 303.5,261.5C 305.881,256.591 308.548,251.757 311.5,247C 309.716,242.742 307.383,238.908 304.5,235.5C 304.44,234.957 304.107,234.624 303.5,234.5C 302.506,239.456 302.173,244.456 302.5,249.5C 300.735,250.461 298.735,250.795 296.5,250.5C 296.5,238.167 296.5,225.833 296.5,213.5 Z"/></g>
<g><path style="opacity:1" fill="#645930" d="M 304.5,235.5 C 303.514,239.97 303.181,244.637 303.5,249.5C 303.167,249.5 302.833,249.5 302.5,249.5C 302.173,244.456 302.506,239.456 303.5,234.5C 304.107,234.624 304.44,234.957 304.5,235.5 Z"/></g>
<g><path style="opacity:1" fill="#5a4e38" d="M 317.5,234.5 C 318.338,234.842 318.672,235.508 318.5,236.5C 318.288,238.384 317.288,239.717 315.5,240.5C 314.081,239.995 313.415,238.995 313.5,237.5C 314.833,237.5 316.167,237.5 317.5,237.5C 317.5,236.5 317.5,235.5 317.5,234.5 Z"/></g>
<g><path style="opacity:1" fill="#f0e8e4" d="M 317.5,234.5 C 317.5,235.5 317.5,236.5 317.5,237.5C 316.167,237.5 314.833,237.5 313.5,237.5C 313.5,236.5 313.5,235.5 313.5,234.5C 314.961,233.314 316.295,233.314 317.5,234.5 Z"/></g>
<g><path style="opacity:1" fill="#2f2513" d="M 307.5,219.5 C 309.113,222.854 308.78,225.854 306.5,228.5C 305.5,228.5 304.5,228.5 303.5,228.5C 303.5,225.5 303.5,222.5 303.5,219.5C 304.833,219.5 306.167,219.5 307.5,219.5 Z"/></g>
<g><path style="opacity:1" fill="#71633d" d="M 307.5,219.5 C 306.167,219.5 304.833,219.5 303.5,219.5C 303.5,222.5 303.5,225.5 303.5,228.5C 304.5,228.5 305.5,228.5 306.5,228.5C 305.432,229.434 304.099,229.768 302.5,229.5C 302.5,225.833 302.5,222.167 302.5,218.5C 304.415,218.216 306.081,218.549 307.5,219.5 Z"/></g>
<g><path style="opacity:1" fill="#29221c" d="M 147.5,235.5 C 146.191,237.571 145.525,240.071 145.5,243C 145.503,245.69 145.836,248.19 146.5,250.5C 149.482,255.472 152.815,260.138 156.5,264.5C 156.649,265.552 156.483,266.552 156,267.5C 153.667,263.833 150.667,260.833 147,258.5C 147.013,261.897 147.679,265.23 149,268.5C 152.416,272.587 156.416,275.92 161,278.5C 162.358,280.859 163.358,283.193 164,285.5C 160.974,282.974 157.807,280.64 154.5,278.5C 153.566,280.095 153.566,281.761 154.5,283.5C 153.504,283.586 152.671,283.252 152,282.5C 150.308,279.356 149.142,276.023 148.5,272.5C 144.935,269.549 143.601,270.549 144.5,275.5C 141.739,267.016 140.406,258.183 140.5,249C 140.352,241.209 141.352,233.709 143.5,226.5C 144.315,225.571 145.148,224.571 146,223.5C 146.501,227.51 147.001,231.51 147.5,235.5 Z"/></g>
<g><path style="opacity:1" fill="#221c14" d="M 231.5,213.5 C 231.5,225.833 231.5,238.167 231.5,250.5C 233.167,250.5 234.833,250.5 236.5,250.5C 237.167,244.833 237.833,239.167 238.5,233.5C 240.292,238.871 242.292,244.205 244.5,249.5C 246.396,250.466 248.396,250.799 250.5,250.5C 251.117,250.389 251.617,250.056 252,249.5C 252.167,247.833 252.333,246.167 252.5,244.5C 251.509,236.515 251.343,228.515 252,220.5C 253.699,219.594 255.533,219.261 257.5,219.5C 257.216,221.415 257.549,223.081 258.5,224.5C 258.5,233.167 258.5,241.833 258.5,250.5C 260.833,250.5 263.167,250.5 265.5,250.5C 265.5,249.5 265.5,248.5 265.5,247.5C 266.33,238.676 266.83,229.676 267,220.5C 268.356,219.62 269.856,219.286 271.5,219.5C 271.174,227.684 271.508,235.684 272.5,243.5C 274.959,250.299 279.626,252.633 286.5,250.5C 285.486,251.765 283.986,252.431 282,252.5C 277.585,251.872 273.418,250.539 269.5,248.5C 269,247.5 268.5,246.5 268,245.5C 267.474,248.883 266.141,251.883 264,254.5C 261.317,254.479 258.483,254.145 255.5,253.5C 255.817,250.428 255.484,247.428 254.5,244.5C 254.814,252.363 251.314,255.03 244,252.5C 242.632,253.703 241.132,254.703 239.5,255.5C 238.646,254.478 237.646,253.645 236.5,253C 230.603,251.744 224.603,251.577 218.5,252.5C 215.5,252.333 212.5,252.167 209.5,252C 208.01,250.366 206.676,250.699 205.5,253C 202.46,253.32 199.46,253.32 196.5,253C 197.765,254.337 198.265,255.837 198,257.5C 195.804,255.001 193.304,254.001 190.5,254.5C 188.61,251.372 186.443,251.039 184,253.5C 181.974,253.085 180.474,252.085 179.5,250.5C 181.5,250.5 183.5,250.5 185.5,250.5C 184.587,217.463 186.254,217.463 190.5,250.5C 191.833,250.5 193.167,250.5 194.5,250.5C 194.986,244.406 195.986,238.406 197.5,232.5C 197.5,231.5 197.5,230.5 197.5,229.5C 198.167,236.5 198.833,243.5 199.5,250.5C 201.167,250.5 202.833,250.5 204.5,250.5C 204.5,238.167 204.5,225.833 204.5,213.5C 201.5,213.5 198.5,213.5 195.5,213.5C 195.414,212.504 195.748,211.671 196.5,211C 199.482,210.502 202.482,210.335 205.5,210.5C 205.628,212.09 206.295,213.423 207.5,214.5C 208.624,213.086 209.624,211.586 210.5,210C 212.919,208.07 214.586,208.403 215.5,211C 221.055,211.067 226.388,211.9 231.5,213.5 Z"/></g>
<g><path style="opacity:1" fill="#807352" d="M 217.5,233.5 C 217.5,237.167 217.5,240.833 217.5,244.5C 220.713,244.19 223.713,244.523 226.5,245.5C 223.167,245.5 219.833,245.5 216.5,245.5C 216.183,241.298 216.517,237.298 217.5,233.5 Z"/></g>
<g><path style="opacity:1" fill="#504325" d="M 238.5,233.5 C 237.833,239.167 237.167,244.833 236.5,250.5C 236.334,243.159 236.5,235.826 237,228.5C 237.608,230.154 238.108,231.821 238.5,233.5 Z"/></g>
<g><path style="opacity:1" fill="#ded09d" d="M 217.5,233.5 C 216.517,237.298 216.183,241.298 216.5,245.5C 219.833,245.5 223.167,245.5 226.5,245.5C 226.5,247.167 226.5,248.833 226.5,250.5C 221.167,250.5 215.833,250.5 210.5,250.5C 210.5,238.167 210.5,225.833 210.5,213.5C 215.833,213.5 221.167,213.5 226.5,213.5C 226.5,215.167 226.5,216.833 226.5,218.5C 223.5,218.5 220.5,218.5 217.5,218.5C 217.5,221.833 217.5,225.167 217.5,228.5C 219.5,228.5 221.5,228.5 223.5,228.5C 223.5,230.167 223.5,231.833 223.5,233.5C 221.5,233.5 219.5,233.5 217.5,233.5 Z"/></g>
<g><path style="opacity:1" fill="#161210" d="M 179.5,250.5 C 180.474,252.085 181.974,253.085 184,253.5C 186.443,251.039 188.61,251.372 190.5,254.5C 193.304,254.001 195.804,255.001 198,257.5C 198.265,255.837 197.765,254.337 196.5,253C 199.46,253.32 202.46,253.32 205.5,253C 206.676,250.699 208.01,250.366 209.5,252C 212.5,252.167 215.5,252.333 218.5,252.5C 224.603,251.577 230.603,251.744 236.5,253C 237.646,253.645 238.646,254.478 239.5,255.5C 241.132,254.703 242.632,253.703 244,252.5C 251.314,255.03 254.814,252.363 254.5,244.5C 255.484,247.428 255.817,250.428 255.5,253.5C 258.483,254.145 261.317,254.479 264,254.5C 266.141,251.883 267.474,248.883 268,245.5C 268.5,246.5 269,247.5 269.5,248.5C 273.418,250.539 277.585,251.872 282,252.5C 283.986,252.431 285.486,251.765 286.5,250.5C 286.833,250.5 287.167,250.5 287.5,250.5C 288.117,250.611 288.617,250.944 289,251.5C 290.167,249.833 291.333,248.167 292.5,246.5C 293.95,247.85 294.617,249.516 294.5,251.5C 296.792,251.244 298.959,251.577 301,252.5C 302.417,251.922 303.25,250.922 303.5,249.5C 305.912,249.694 306.912,251.027 306.5,253.5C 305.167,253.5 303.833,253.5 302.5,253.5C 302.335,256.518 302.502,259.518 303,262.5C 305.939,263.128 308.772,263.795 311.5,264.5C 310.232,265.787 310.565,266.787 312.5,267.5C 310.709,268.17 309.042,268.837 307.5,269.5C 306.442,270.6 305.608,271.934 305,273.5C 304.51,272.207 304.343,270.873 304.5,269.5C 303.5,269.5 302.5,269.5 301.5,269.5C 300.307,267.946 299.14,266.279 298,264.5C 296.698,265.085 295.531,265.751 294.5,266.5C 294.5,266.833 294.5,267.167 294.5,267.5C 294.167,267.5 293.833,267.5 293.5,267.5C 293.5,267.167 293.5,266.833 293.5,266.5C 288.376,264.458 283.042,264.124 277.5,265.5C 275.758,263.027 273.925,263.027 272,265.5C 271.044,264.106 269.711,263.439 268,263.5C 265.811,264.688 263.644,264.688 261.5,263.5C 259.792,263.703 258.459,264.536 257.5,266C 258.167,266.333 258.833,266.667 259.5,267C 256.865,268.024 254.198,268.857 251.5,269.5C 247.153,265.632 242.153,264.299 236.5,265.5C 233.427,264.738 230.594,264.071 228,263.5C 226.956,264.623 226.29,265.956 226,267.5C 225.517,266.552 225.351,265.552 225.5,264.5C 223.227,263.265 221.394,263.598 220,265.5C 218.192,265.112 216.525,265.112 215,265.5C 214.333,262.833 213.667,262.833 213,265.5C 209.771,262.603 207.437,263.27 206,267.5C 202.149,264.351 198.149,263.684 194,265.5C 192.846,263.043 191.512,263.043 190,265.5C 187.932,264.658 185.765,264.658 183.5,265.5C 181.626,265.61 180.126,264.944 179,263.5C 177.866,264.425 176.699,265.425 175.5,266.5C 174.707,270.436 174.707,274.436 175.5,278.5C 175.389,280.648 176.056,280.981 177.5,279.5C 179.134,279.968 180.3,280.968 181,282.5C 181.667,281.833 182.333,281.167 183,280.5C 185.738,281.482 188.572,282.148 191.5,282.5C 191.5,283.5 191.5,284.5 191.5,285.5C 188.341,285.481 185.674,286.648 183.5,289C 186.82,290.261 187.154,291.928 184.5,294C 186.041,295.371 187.375,296.871 188.5,298.5C 189.065,302.33 189.898,305.996 191,309.5C 189.622,307.787 187.955,306.453 186,305.5C 184.225,297.276 180.392,290.276 174.5,284.5C 174.167,285.333 173.833,286.167 173.5,287C 174.218,289.217 174.718,291.384 175,293.5C 174,292.5 173,291.5 172,290.5C 171.667,285.833 171.333,281.167 171,276.5C 169.138,272.776 167.304,269.109 165.5,265.5C 164.404,261.587 164.238,257.587 165,253.5C 165.796,251.061 167.296,248.894 169.5,247C 169.056,245.238 168.556,245.405 168,247.5C 166.391,246.853 164.891,246.02 163.5,245C 165.684,240.457 167.184,235.623 168,230.5C 169,229.167 170,229.167 171,230.5C 171.511,232.878 172.178,235.212 173,237.5C 174.487,236.747 174.654,235.914 173.5,235C 174.332,234.312 174.998,234.479 175.5,235.5C 176.685,240.68 178.018,245.68 179.5,250.5 Z"/></g>
<g><path style="opacity:1" fill="#1d1d1d" d="M 251.5,269.5 C 249.585,269.216 247.919,269.549 246.5,270.5C 245.833,270.167 245.167,269.833 244.5,269.5C 241.833,269.5 239.167,269.5 236.5,269.5C 236.567,271.401 236.233,273.234 235.5,275C 235.833,275.5 236.167,276 236.5,276.5C 238.434,268.534 239.767,268.534 240.5,276.5C 241.895,277.648 241.728,278.648 240,279.5C 237.142,278.959 233.976,278.292 230.5,277.5C 227.482,277.12 224.482,277.787 221.5,279.5C 216.646,278.513 211.813,278.513 207,279.5C 204.95,279.309 203.117,278.642 201.5,277.5C 201.167,278.167 200.833,278.833 200.5,279.5C 198.481,278.867 198.147,277.867 199.5,276.5C 198.5,276.5 197.5,276.5 196.5,276.5C 194.575,278.462 192.242,279.295 189.5,279C 191.301,278.683 191.634,278.016 190.5,277C 189.552,276.517 188.552,276.351 187.5,276.5C 187.201,274.396 187.534,272.396 188.5,270.5C 188.478,271.995 188.811,273.662 189.5,275.5C 190.326,273.041 190.993,270.541 191.5,268C 191.167,267.5 190.833,267 190.5,266.5C 189.614,267.325 189.281,268.325 189.5,269.5C 187.486,269.392 185.82,270.058 184.5,271.5C 183.194,270.533 182.527,269.199 182.5,267.5C 183.552,267.649 184.552,267.483 185.5,267C 180.079,265.72 178.079,267.887 179.5,273.5C 178.596,274.209 178.263,275.209 178.5,276.5C 177.222,276.782 176.222,277.449 175.5,278.5C 174.707,274.436 174.707,270.436 175.5,266.5C 176.699,265.425 177.866,264.425 179,263.5C 180.126,264.944 181.626,265.61 183.5,265.5C 185.765,264.658 187.932,264.658 190,265.5C 191.512,263.043 192.846,263.043 194,265.5C 198.149,263.684 202.149,264.351 206,267.5C 207.437,263.27 209.771,262.603 213,265.5C 213.667,262.833 214.333,262.833 215,265.5C 216.525,265.112 218.192,265.112 220,265.5C 221.394,263.598 223.227,263.265 225.5,264.5C 225.351,265.552 225.517,266.552 226,267.5C 226.29,265.956 226.956,264.623 228,263.5C 230.594,264.071 233.427,264.738 236.5,265.5C 242.153,264.299 247.153,265.632 251.5,269.5 Z"/></g>
<g><path style="opacity:1" fill="#cdcdcd" d="M 184.5,271.5 C 183.5,271.5 182.5,271.5 181.5,271.5C 180.71,272.609 180.21,273.942 180,275.5C 179.536,274.906 179.369,274.239 179.5,273.5C 178.079,267.887 180.079,265.72 185.5,267C 184.552,267.483 183.552,267.649 182.5,267.5C 182.527,269.199 183.194,270.533 184.5,271.5 Z"/></g>
<g><path style="opacity:1" fill="#29221d" d="M 355.5,227.5 C 361.038,252.731 357.705,276.731 345.5,299.5C 344.752,297.416 344.752,295.416 345.5,293.5C 344.5,292.667 343.5,291.833 342.5,291C 344.587,291.218 346.587,291.051 348.5,290.5C 346.738,287.527 344.405,286.86 341.5,288.5C 343.396,285.716 345.063,282.716 346.5,279.5C 346.167,279.167 345.833,278.833 345.5,278.5C 342.847,280.387 340.181,281.887 337.5,283C 338.717,281.352 339.55,279.519 340,277.5C 346.137,274.533 350.304,269.866 352.5,263.5C 355.418,251.733 356.418,239.733 355.5,227.5 Z"/></g>
<g><path style="opacity:1" fill="#c6c5c6" d="M 203.5,270.5 C 205.379,269.659 207.379,269.325 209.5,269.5C 209.007,271.806 208.674,274.139 208.5,276.5C 204.092,276.938 202.425,274.938 203.5,270.5 Z"/></g>
<g><path style="opacity:1" fill="#c4c4c4" d="M 231.5,266.5 C 237.167,266.664 237.5,266.997 232.5,267.5C 232.36,269.124 233.027,270.29 234.5,271C 233.552,271.483 232.552,271.649 231.5,271.5C 231.5,272.5 231.5,273.5 231.5,274.5C 232.675,274.281 233.675,274.614 234.5,275.5C 232.955,276.452 231.288,276.785 229.5,276.5C 229.311,272.963 229.977,269.63 231.5,266.5 Z"/></g>
<g><path style="opacity:1" fill="#c8c9c8" d="M 244.5,269.5 C 244.5,270.5 244.5,271.5 244.5,272.5C 244.719,273.675 244.386,274.675 243.5,275.5C 242.206,269.149 241.206,269.483 240.5,276.5C 239.767,268.534 238.434,268.534 236.5,276.5C 236.167,276 235.833,275.5 235.5,275C 236.233,273.234 236.567,271.401 236.5,269.5C 239.167,269.5 241.833,269.5 244.5,269.5 Z"/></g>
<g><path style="opacity:1" fill="#b3b3b3" d="M 196.5,276.5 C 191.169,276.22 190.169,273.887 193.5,269.5C 194.298,271.078 194.798,272.744 195,274.5C 195.202,272.744 195.702,271.078 196.5,269.5C 196.833,270.167 197.167,270.833 197.5,271.5C 196.954,273.135 196.62,274.801 196.5,276.5 Z"/></g>
<g><path style="opacity:1" fill="#302f30" d="M 205.5,270.5 C 206.497,270.47 207.164,270.97 207.5,272C 205.906,276.314 205.239,275.814 205.5,270.5 Z"/></g>
<g><path style="opacity:1" fill="#d2d1d1" d="M 211.5,267.5 C 212.922,267.75 213.922,268.583 214.5,270C 212.302,271.67 211.968,273.67 213.5,276C 212.552,276.483 211.552,276.649 210.5,276.5C 210.368,273.43 210.701,270.43 211.5,267.5 Z"/></g>
<g><path style="opacity:1" fill="#737373" d="M 244.5,269.5 C 245.167,269.833 245.833,270.167 246.5,270.5C 246.768,272.099 246.434,273.432 245.5,274.5C 245.672,273.508 245.338,272.842 244.5,272.5C 244.5,271.5 244.5,270.5 244.5,269.5 Z"/></g>
<g><path style="opacity:1" fill="#b7b8b8" d="M 187.5,276.5 C 184.676,276.108 181.676,276.108 178.5,276.5C 178.263,275.209 178.596,274.209 179.5,273.5C 179.369,274.239 179.536,274.906 180,275.5C 180.21,273.942 180.71,272.609 181.5,271.5C 181.5,272.5 181.5,273.5 181.5,274.5C 182.5,274.5 183.5,274.5 184.5,274.5C 184.5,273.5 184.5,272.5 184.5,271.5C 185.82,270.058 187.486,269.392 189.5,269.5C 189.281,268.325 189.614,267.325 190.5,266.5C 190.833,267 191.167,267.5 191.5,268C 190.993,270.541 190.326,273.041 189.5,275.5C 188.811,273.662 188.478,271.995 188.5,270.5C 187.534,272.396 187.201,274.396 187.5,276.5 Z"/></g>
<g><path style="opacity:1" fill="#181916" d="M 181.5,271.5 C 182.5,271.5 183.5,271.5 184.5,271.5C 184.5,272.5 184.5,273.5 184.5,274.5C 183.5,274.5 182.5,274.5 181.5,274.5C 181.5,273.5 181.5,272.5 181.5,271.5 Z"/></g>
<g><path style="opacity:1" fill="#b4b3b4" d="M 215.5,269.5 C 217.167,269.5 218.833,269.5 220.5,269.5C 220.675,272.329 219.342,273.996 216.5,274.5C 217.025,275.192 217.692,275.692 218.5,276C 216.08,276.915 214.747,276.082 214.5,273.5C 214.846,272.151 215.179,270.817 215.5,269.5 Z"/></g>
<g><path style="opacity:1" fill="#d1d1d1" d="M 251.5,269.5 C 251.896,272.044 251.229,274.211 249.5,276C 247.939,276.318 246.772,277.151 246,278.5C 245.51,277.207 245.343,275.873 245.5,274.5C 246.434,273.432 246.768,272.099 246.5,270.5C 247.919,269.549 249.585,269.216 251.5,269.5 Z"/></g>
<g><path style="opacity:1" fill="#cccccc" d="M 203.5,270.5 C 202.5,270.5 201.5,270.5 200.5,270.5C 200.141,272.766 200.808,274.599 202.5,276C 201.552,276.483 200.552,276.649 199.5,276.5C 198.489,274.598 198.322,272.598 199,270.5C 200.616,269.199 202.116,269.199 203.5,270.5 Z"/></g>
<g><path style="opacity:1" fill="#b2b2b2" d="M 223.5,274.5 C 225.337,274.639 225.67,275.306 224.5,276.5C 223.702,276.043 223.369,275.376 223.5,274.5 Z"/></g>
<g><path style="opacity:1" fill="#1c1b1b" d="M 334.5,267.5 C 333.5,267.5 332.5,267.5 331.5,267.5C 331.657,268.873 331.49,270.207 331,271.5C 328.558,274.048 326.892,277.048 326,280.5C 324.488,281.257 323.154,282.257 322,283.5C 321.784,281.616 321.117,279.949 320,278.5C 295.118,279.153 269.952,279.487 244.5,279.5C 244.5,278.5 244.5,277.5 244.5,276.5C 243.167,276.5 241.833,276.5 240.5,276.5C 241.206,269.483 242.206,269.149 243.5,275.5C 244.386,274.675 244.719,273.675 244.5,272.5C 245.338,272.842 245.672,273.508 245.5,274.5C 245.343,275.873 245.51,277.207 246,278.5C 246.772,277.151 247.939,276.318 249.5,276C 251.229,274.211 251.896,272.044 251.5,269.5C 254.198,268.857 256.865,268.024 259.5,267C 258.833,266.667 258.167,266.333 257.5,266C 258.459,264.536 259.792,263.703 261.5,263.5C 263.644,264.688 265.811,264.688 268,263.5C 269.711,263.439 271.044,264.106 272,265.5C 273.925,263.027 275.758,263.027 277.5,265.5C 283.042,264.124 288.376,264.458 293.5,266.5C 291.5,266.5 289.5,266.5 287.5,266.5C 287.5,268.167 287.5,269.833 287.5,271.5C 286.549,272.919 286.216,274.585 286.5,276.5C 288.288,276.785 289.955,276.452 291.5,275.5C 290.147,274.476 289.48,273.143 289.5,271.5C 290.239,271.631 290.906,271.464 291.5,271C 290.027,270.29 289.36,269.124 289.5,267.5C 290.833,267.5 292.167,267.5 293.5,267.5C 293.833,267.5 294.167,267.5 294.5,267.5C 293.916,270.003 293.249,272.503 292.5,275C 292.833,275.5 293.167,276 293.5,276.5C 295.55,273.195 295.883,269.862 294.5,266.5C 295.531,265.751 296.698,265.085 298,264.5C 299.14,266.279 300.307,267.946 301.5,269.5C 299.856,269.286 298.356,269.62 297,270.5C 296.505,272.473 296.338,274.473 296.5,276.5C 301.22,276.775 301.554,275.941 297.5,274C 299.421,273.64 301.088,272.806 302.5,271.5C 303.933,277.896 305.767,277.896 308,271.5C 308.273,273.101 308.773,274.601 309.5,276C 311.463,276.844 312.796,276.344 313.5,274.5C 314.167,274.833 314.833,275.167 315.5,275.5C 316.251,276.573 317.251,276.74 318.5,276C 316.922,273.661 317.255,271.828 319.5,270.5C 319.5,270.833 319.5,271.167 319.5,271.5C 318.756,274.95 320.09,276.616 323.5,276.5C 325.982,274.497 326.982,271.831 326.5,268.5C 324.833,268.5 323.167,268.5 321.5,268.5C 321.737,267.209 321.404,266.209 320.5,265.5C 322.907,264.912 325.24,263.912 327.5,262.5C 328.749,264.475 330.249,264.809 332,263.5C 332.662,264.984 333.496,266.317 334.5,267.5 Z"/></g>
<g><path style="opacity:1" fill="#989898" d="M 287.5,271.5 C 287.343,272.873 287.51,274.207 288,275.5C 288.21,273.942 288.71,272.609 289.5,271.5C 289.48,273.143 290.147,274.476 291.5,275.5C 289.955,276.452 288.288,276.785 286.5,276.5C 286.216,274.585 286.549,272.919 287.5,271.5 Z"/></g>
<g><path style="opacity:1" fill="#b9b9b9" d="M 280.5,274.5 C 282.337,274.639 282.67,275.306 281.5,276.5C 280.702,276.043 280.369,275.376 280.5,274.5 Z"/></g>
<g><path style="opacity:1" fill="#c0c0c0" d="M 301.5,269.5 C 302.5,269.5 303.5,269.5 304.5,269.5C 304.343,270.873 304.51,272.207 305,273.5C 305.608,271.934 306.442,270.6 307.5,269.5C 309.71,269.514 312.044,269.847 314.5,270.5C 313.754,271.736 313.421,273.07 313.5,274.5C 312.796,276.344 311.463,276.844 309.5,276C 308.773,274.601 308.273,273.101 308,271.5C 305.767,277.896 303.933,277.896 302.5,271.5C 301.088,272.806 299.421,273.64 297.5,274C 301.554,275.941 301.22,276.775 296.5,276.5C 296.338,274.473 296.505,272.473 297,270.5C 298.356,269.62 299.856,269.286 301.5,269.5 Z"/></g>
<g><path style="opacity:1" fill="#393939" d="M 247.5,270.5 C 249.972,271.749 250.139,273.415 248,275.5C 247.506,273.866 247.34,272.199 247.5,270.5 Z"/></g>
<g><path style="opacity:1" fill="#a2a2a0" d="M 323.5,276.5 C 320.09,276.616 318.756,274.95 319.5,271.5C 321.142,269.919 323.142,269.253 325.5,269.5C 325.675,272.329 324.342,273.996 321.5,274.5C 322.243,275.182 322.909,275.849 323.5,276.5 Z"/></g>
<g><path style="opacity:1" fill="#c1c1c1" d="M 253.5,269.5 C 255.674,269.92 257.674,269.92 259.5,269.5C 260.251,270.376 260.751,271.376 261,272.5C 262.667,271.5 264.333,270.5 266,269.5C 266.342,271.818 265.842,273.985 264.5,276C 263.256,276.456 262.423,275.956 262,274.5C 261.29,275.973 260.124,276.64 258.5,276.5C 258.541,272.757 257.874,272.59 256.5,276C 255.207,276.49 253.873,276.657 252.5,276.5C 252.298,274.05 252.631,271.717 253.5,269.5 Z"/></g>
<g><path style="opacity:1" fill="#505050" d="M 254.5,270.5 C 255.376,270.369 256.043,270.702 256.5,271.5C 254.172,276.557 253.506,276.224 254.5,270.5 Z"/></g>
<g><path style="opacity:1" fill="#2c2c2d" d="M 310.5,270.5 C 311.497,270.47 312.164,270.97 312.5,272C 310.906,276.314 310.239,275.814 310.5,270.5 Z"/></g>
<g><path style="opacity:1" fill="#c6c6c6" d="M 294.5,266.5 C 295.883,269.862 295.55,273.195 293.5,276.5C 293.167,276 292.833,275.5 292.5,275C 293.249,272.503 293.916,270.003 294.5,267.5C 294.5,267.167 294.5,266.833 294.5,266.5 Z"/></g>
<g><path style="opacity:1" fill="#989998" d="M 271.5,272.5 C 269.069,273.741 269.069,274.908 271.5,276C 269.934,276.765 268.601,276.598 267.5,275.5C 268.234,274.122 268.901,272.622 269.5,271C 270.167,270.333 270.833,270.333 271.5,271C 270.262,271.69 270.262,272.19 271.5,272.5 Z"/></g>
<g><path style="opacity:1" fill="#cfd0d1" d="M 319.5,270.5 C 317.255,271.828 316.922,273.661 318.5,276C 317.251,276.74 316.251,276.573 315.5,275.5C 315.125,272.603 315.625,269.937 317,267.5C 317.698,268.691 318.531,269.691 319.5,270.5 Z"/></g>
<g><path style="opacity:1" fill="#d0d1d2" d="M 274.5,269.5 C 278.838,269.622 279.172,269.955 275.5,270.5C 275.819,272.75 275.319,274.75 274,276.5C 273.297,274.071 273.463,271.738 274.5,269.5 Z"/></g>
<g><path style="opacity:1" fill="#d6d8d8" d="M 271.5,272.5 C 270.262,272.19 270.262,271.69 271.5,271C 270.833,270.333 270.167,270.333 269.5,271C 268.901,272.622 268.234,274.122 267.5,275.5C 266.425,271.062 268.092,269.062 272.5,269.5C 272.737,270.791 272.404,271.791 271.5,272.5 Z"/></g>
<g><path style="opacity:1" fill="#d5d6d5" d="M 293.5,266.5 C 293.5,266.833 293.5,267.167 293.5,267.5C 292.167,267.5 290.833,267.5 289.5,267.5C 289.36,269.124 290.027,270.29 291.5,271C 290.906,271.464 290.239,271.631 289.5,271.5C 288.71,272.609 288.21,273.942 288,275.5C 287.51,274.207 287.343,272.873 287.5,271.5C 287.5,269.833 287.5,268.167 287.5,266.5C 289.5,266.5 291.5,266.5 293.5,266.5 Z"/></g>
<g><path style="opacity:1" fill="#2e2d2d" d="M 311.5,264.5 C 314.263,266.681 317.263,267.015 320.5,265.5C 321.404,266.209 321.737,267.209 321.5,268.5C 323.167,268.5 324.833,268.5 326.5,268.5C 326.982,271.831 325.982,274.497 323.5,276.5C 322.909,275.849 322.243,275.182 321.5,274.5C 324.342,273.996 325.675,272.329 325.5,269.5C 323.142,269.253 321.142,269.919 319.5,271.5C 319.5,271.167 319.5,270.833 319.5,270.5C 318.531,269.691 317.698,268.691 317,267.5C 315.625,269.937 315.125,272.603 315.5,275.5C 314.833,275.167 314.167,274.833 313.5,274.5C 313.421,273.07 313.754,271.736 314.5,270.5C 312.044,269.847 309.71,269.514 307.5,269.5C 309.042,268.837 310.709,268.17 312.5,267.5C 310.565,266.787 310.232,265.787 311.5,264.5 Z"/></g>
<g><path style="opacity:1" fill="#100a06" d="M 334.5,267.5 C 331.105,274.028 329.605,281.028 330,288.5C 329.333,289.167 328.667,289.833 328,290.5C 327.808,288.423 327.308,286.423 326.5,284.5C 322.638,287.697 319.972,291.697 318.5,296.5C 316.672,299.135 315.505,302.135 315,305.5C 313.829,307.616 312.329,308.282 310.5,307.5C 311.97,304.727 313.303,301.894 314.5,299C 314.167,298.5 313.833,298 313.5,297.5C 310.48,300.355 307.313,303.021 304,305.5C 301.898,309.929 299.398,314.095 296.5,318C 293.047,320.24 289.381,321.573 285.5,322C 290.547,318.62 294.547,314.286 297.5,309C 287.376,310.948 280.376,316.781 276.5,326.5C 274.425,326.698 272.425,326.865 270.5,327C 283.672,314.703 283.005,312.37 268.5,320C 265.167,323.333 261.833,326.667 258.5,330C 253.004,332.145 247.671,331.978 242.5,329.5C 237.875,322.545 231.542,317.879 223.5,315.5C 222.592,316.79 222.759,318.123 224,319.5C 226.5,322 229,324.5 231.5,327C 229.069,327.252 226.735,326.752 224.5,325.5C 219.646,317.233 212.646,311.566 203.5,308.5C 202.167,308.5 200.833,308.5 199.5,308.5C 196.023,304.933 192.356,301.6 188.5,298.5C 187.375,296.871 186.041,295.371 184.5,294C 187.154,291.928 186.82,290.261 183.5,289C 185.674,286.648 188.341,285.481 191.5,285.5C 191.5,284.5 191.5,283.5 191.5,282.5C 188.572,282.148 185.738,281.482 183,280.5C 182.333,281.167 181.667,281.833 181,282.5C 180.3,280.968 179.134,279.968 177.5,279.5C 176.056,280.981 175.389,280.648 175.5,278.5C 176.222,277.449 177.222,276.782 178.5,276.5C 181.676,276.108 184.676,276.108 187.5,276.5C 188.552,276.351 189.552,276.517 190.5,277C 191.634,278.016 191.301,278.683 189.5,279C 192.242,279.295 194.575,278.462 196.5,276.5C 197.5,276.5 198.5,276.5 199.5,276.5C 198.147,277.867 198.481,278.867 200.5,279.5C 200.833,278.833 201.167,278.167 201.5,277.5C 203.117,278.642 204.95,279.309 207,279.5C 211.813,278.513 216.646,278.513 221.5,279.5C 224.482,277.787 227.482,277.12 230.5,277.5C 233.976,278.292 237.142,278.959 240,279.5C 241.728,278.648 241.895,277.648 240.5,276.5C 241.833,276.5 243.167,276.5 244.5,276.5C 244.5,277.5 244.5,278.5 244.5,279.5C 269.952,279.487 295.118,279.153 320,278.5C 321.117,279.949 321.784,281.616 322,283.5C 323.154,282.257 324.488,281.257 326,280.5C 326.892,277.048 328.558,274.048 331,271.5C 331.49,270.207 331.657,268.873 331.5,267.5C 332.5,267.5 333.5,267.5 334.5,267.5 Z"/></g>
<g><path style="opacity:1" fill="#ddcb91" d="M 339.5,218.5 C 340.807,219.802 340.807,221.135 339.5,222.5C 342.671,226.829 345.171,231.496 347,236.5C 348.122,233.691 348.622,230.691 348.5,227.5C 348.478,224.41 347.812,221.743 346.5,219.5C 346.557,218.391 346.89,217.391 347.5,216.5C 352.398,223.862 352.731,231.528 348.5,239.5C 348.667,240.167 348.833,240.833 349,241.5C 350.093,239.651 351.426,237.984 353,236.5C 353.851,242.253 353.517,247.92 352,253.5C 349.606,256.385 347.439,259.385 345.5,262.5C 345.667,263.167 345.833,263.833 346,264.5C 347.684,262.649 349.517,260.982 351.5,259.5C 352.429,260.689 352.762,262.022 352.5,263.5C 350.304,269.866 346.137,274.533 340,277.5C 339.55,279.519 338.717,281.352 337.5,283C 340.181,281.887 342.847,280.387 345.5,278.5C 345.833,278.833 346.167,279.167 346.5,279.5C 345.063,282.716 343.396,285.716 341.5,288.5C 337.148,291.338 332.648,294.005 328,296.5C 327.626,297.416 327.126,298.25 326.5,299C 329.047,298.661 331.547,297.827 334,296.5C 334.5,296.833 335,297.167 335.5,297.5C 334.37,300.472 332.37,302.472 329.5,303.5C 328.178,303.67 327.011,303.337 326,302.5C 325.682,304.061 324.849,305.228 323.5,306C 320.874,306.995 318.207,307.328 315.5,307C 317.438,303.837 318.438,300.337 318.5,296.5C 319.972,291.697 322.638,287.697 326.5,284.5C 327.308,286.423 327.808,288.423 328,290.5C 328.667,289.833 329.333,289.167 330,288.5C 329.605,281.028 331.105,274.028 334.5,267.5C 335.151,266.909 335.818,266.243 336.5,265.5C 337.318,268.107 337.818,270.774 338,273.5C 338.333,272.833 338.667,272.167 339,271.5C 338.903,265.331 338.403,259.164 337.5,253C 337.833,250.833 338.167,248.667 338.5,246.5C 340.085,248.706 341.585,251.039 343,253.5C 343.167,252.333 343.333,251.167 343.5,250C 340.694,244.426 338.36,238.593 336.5,232.5C 336.281,231.325 336.614,230.325 337.5,229.5C 339.557,231.269 341.39,233.269 343,235.5C 343.48,232.137 342.313,229.47 339.5,227.5C 336.639,223.112 334.306,218.446 332.5,213.5C 332.369,212.761 332.536,212.094 333,211.5C 336.074,213.071 338.24,215.404 339.5,218.5 Z"/></g>
<g><path style="opacity:1" fill="#17120c" d="M 154.5,283.5 C 159.028,289.109 164.695,293.276 171.5,296C 172.833,297.333 174.167,298.667 175.5,300C 171.958,299.264 168.458,298.097 165,296.5C 167.201,303.348 172.035,307.514 179.5,309C 184.408,308.597 188.408,310.263 191.5,314C 186.639,313.696 181.806,312.863 177,311.5C 176.5,311.667 176,311.833 175.5,312C 182.65,318.933 191.317,321.599 201.5,320C 202.244,321.039 203.244,321.539 204.5,321.5C 200.833,322.167 197.167,322.833 193.5,323.5C 192.448,323.351 191.448,323.517 190.5,324C 198.781,330.03 207.781,331.197 217.5,327.5C 219.548,327.672 221.548,328.005 223.5,328.5C 219.063,329.701 214.73,331.368 210.5,333.5C 216.694,336.515 223.194,338.515 230,339.5C 234.485,338.15 238.985,337.317 243.5,337C 233.97,340.299 224.303,343.133 214.5,345.5C 215.722,348.089 217.722,348.923 220.5,348C 227.67,346.292 234.67,344.126 241.5,341.5C 240.972,342.721 240.305,343.887 239.5,345C 231.444,347.271 223.444,349.438 215.5,351.5C 214.5,351.5 213.5,351.5 212.5,351.5C 176.813,337.813 154.146,312.48 144.5,275.5C 143.601,270.549 144.935,269.549 148.5,272.5C 149.142,276.023 150.308,279.356 152,282.5C 152.671,283.252 153.504,283.586 154.5,283.5 Z"/></g>
<g><path style="opacity:1" fill="#1b130a" d="M 345.5,299.5 C 344.069,299.881 343.236,300.881 343,302.5C 340.871,301.137 340.371,301.471 341.5,303.5C 338.786,307.873 335.453,311.54 331.5,314.5C 329.856,314.714 328.356,314.38 327,313.5C 325.288,316.952 322.788,317.952 319.5,316.5C 321.27,315.236 322.937,313.736 324.5,312C 320.012,311.44 315.679,311.773 311.5,313C 312.833,311.667 314.167,310.333 315.5,309C 319.653,308.616 323.653,307.616 327.5,306C 328.381,305.292 329.047,304.458 329.5,303.5C 332.37,302.472 334.37,300.472 335.5,297.5C 335,297.167 334.5,296.833 334,296.5C 331.547,297.827 329.047,298.661 326.5,299C 327.126,298.25 327.626,297.416 328,296.5C 332.648,294.005 337.148,291.338 341.5,288.5C 344.405,286.86 346.738,287.527 348.5,290.5C 346.587,291.051 344.587,291.218 342.5,291C 343.5,291.833 344.5,292.667 345.5,293.5C 344.752,295.416 344.752,297.416 345.5,299.5 Z"/></g>
<g><path style="opacity:1" fill="#2d2b29" d="M 345.5,299.5 C 340.538,309.756 333.871,318.756 325.5,326.5C 325.297,324.61 325.963,323.11 327.5,322C 326.542,320.853 326.875,319.853 328.5,319C 329.793,318.51 331.127,318.343 332.5,318.5C 332.567,317.041 332.234,315.708 331.5,314.5C 335.453,311.54 338.786,307.873 341.5,303.5C 340.371,301.471 340.871,301.137 343,302.5C 343.236,300.881 344.069,299.881 345.5,299.5 Z"/></g>
<g><path style="opacity:1" fill="#59452d" d="M 204.5,321.5 C 205.473,321.987 206.473,322.487 207.5,323C 202.845,323.499 198.179,323.666 193.5,323.5C 197.167,322.833 200.833,322.167 204.5,321.5 Z"/></g>
<g><path style="opacity:1" fill="#c0ad78" d="M 318.5,296.5 C 318.438,300.337 317.438,303.837 315.5,307C 318.207,307.328 320.874,306.995 323.5,306C 324.849,305.228 325.682,304.061 326,302.5C 327.011,303.337 328.178,303.67 329.5,303.5C 329.047,304.458 328.381,305.292 327.5,306C 323.653,307.616 319.653,308.616 315.5,309C 314.167,310.333 312.833,311.667 311.5,313C 315.679,311.773 320.012,311.44 324.5,312C 322.937,313.736 321.27,315.236 319.5,316.5C 313.453,318.926 307.119,320.092 300.5,320C 299.167,320.667 297.833,321.333 296.5,322C 313.005,321.352 314.005,323.685 299.5,329C 294.21,329.788 289.043,329.288 284,327.5C 282.373,327.625 280.873,328.125 279.5,329C 283.167,330.167 286.834,331.334 290.5,332.5C 284.943,334.63 279.276,336.463 273.5,338C 269.134,338.363 264.801,338.363 260.5,338C 269.138,340.824 277.804,343.324 286.5,345.5C 286.291,346.086 285.957,346.586 285.5,347C 274.565,347.268 264.565,344.435 255.5,338.5C 264.439,336.865 273.439,335.365 282.5,334C 283.993,332.844 283.826,332.01 282,331.5C 280.211,332.409 278.377,332.576 276.5,332C 276.854,330.374 276.854,328.541 276.5,326.5C 280.376,316.781 287.376,310.948 297.5,309C 294.547,314.286 290.547,318.62 285.5,322C 289.381,321.573 293.047,320.24 296.5,318C 299.398,314.095 301.898,309.929 304,305.5C 307.313,303.021 310.48,300.355 313.5,297.5C 313.833,298 314.167,298.5 314.5,299C 313.303,301.894 311.97,304.727 310.5,307.5C 312.329,308.282 313.829,307.616 315,305.5C 315.505,302.135 316.672,299.135 318.5,296.5 Z"/></g>
<g><path style="opacity:1" fill="#dac78f" d="M 156.5,264.5 C 155.953,260.71 157.62,258.71 161.5,258.5C 162.386,259.325 162.719,260.325 162.5,261.5C 160.74,266.434 161.24,271.1 164,275.5C 164.179,271.975 164.679,268.641 165.5,265.5C 167.304,269.109 169.138,272.776 171,276.5C 171.333,281.167 171.667,285.833 172,290.5C 173,291.5 174,292.5 175,293.5C 174.718,291.384 174.218,289.217 173.5,287C 173.833,286.167 174.167,285.333 174.5,284.5C 180.392,290.276 184.225,297.276 186,305.5C 187.955,306.453 189.622,307.787 191,309.5C 189.898,305.996 189.065,302.33 188.5,298.5C 192.356,301.6 196.023,304.933 199.5,308.5C 201.456,314.956 205.623,319.29 212,321.5C 212.5,321.333 213,321.167 213.5,321C 211.714,320.215 210.214,319.049 209,317.5C 206.517,314.861 204.684,311.861 203.5,308.5C 212.646,311.566 219.646,317.233 224.5,325.5C 226.735,326.752 229.069,327.252 231.5,327C 229,324.5 226.5,322 224,319.5C 222.759,318.123 222.592,316.79 223.5,315.5C 231.542,317.879 237.875,322.545 242.5,329.5C 242.511,331.017 243.177,332.184 244.5,333C 249.155,333.499 253.821,333.666 258.5,333.5C 258.5,334.5 258.5,335.5 258.5,336.5C 252.696,336.878 247.03,336.211 241.5,334.5C 238.959,334.881 236.626,335.714 234.5,337C 231.5,337.667 228.5,337.667 225.5,337C 224.562,335.937 223.562,334.77 222.5,333.5C 220.007,334.964 217.674,334.797 215.5,333C 218.436,331.955 221.436,331.121 224.5,330.5C 225.67,329.306 225.337,328.639 223.5,328.5C 221.548,328.005 219.548,327.672 217.5,327.5C 207.781,331.197 198.781,330.03 190.5,324C 191.448,323.517 192.448,323.351 193.5,323.5C 198.179,323.666 202.845,323.499 207.5,323C 206.473,322.487 205.473,321.987 204.5,321.5C 203.244,321.539 202.244,321.039 201.5,320C 191.317,321.599 182.65,318.933 175.5,312C 176,311.833 176.5,311.667 177,311.5C 181.806,312.863 186.639,313.696 191.5,314C 188.408,310.263 184.408,308.597 179.5,309C 172.035,307.514 167.201,303.348 165,296.5C 168.458,298.097 171.958,299.264 175.5,300C 174.167,298.667 172.833,297.333 171.5,296C 164.695,293.276 159.028,289.109 154.5,283.5C 153.566,281.761 153.566,280.095 154.5,278.5C 157.807,280.64 160.974,282.974 164,285.5C 163.358,283.193 162.358,280.859 161,278.5C 156.416,275.92 152.416,272.587 149,268.5C 147.679,265.23 147.013,261.897 147,258.5C 150.667,260.833 153.667,263.833 156,267.5C 156.483,266.552 156.649,265.552 156.5,264.5 Z"/></g>
<g><path style="opacity:1" fill="#2c1e0e" d="M 199.5,308.5 C 200.833,308.5 202.167,308.5 203.5,308.5C 204.684,311.861 206.517,314.861 209,317.5C 210.214,319.049 211.714,320.215 213.5,321C 213,321.167 212.5,321.333 212,321.5C 205.623,319.29 201.456,314.956 199.5,308.5 Z"/></g>
<g><path style="opacity:1" fill="#cdbb86" d="M 276.5,326.5 C 276.854,328.541 276.854,330.374 276.5,332C 278.377,332.576 280.211,332.409 282,331.5C 283.826,332.01 283.993,332.844 282.5,334C 273.439,335.365 264.439,336.865 255.5,338.5C 254.305,338.322 253.138,337.989 252,337.5C 248.527,339.2 245.027,340.533 241.5,341.5C 234.67,344.126 227.67,346.292 220.5,348C 217.722,348.923 215.722,348.089 214.5,345.5C 224.303,343.133 233.97,340.299 243.5,337C 238.985,337.317 234.485,338.15 230,339.5C 223.194,338.515 216.694,336.515 210.5,333.5C 214.73,331.368 219.063,329.701 223.5,328.5C 225.337,328.639 225.67,329.306 224.5,330.5C 221.436,331.121 218.436,331.955 215.5,333C 217.674,334.797 220.007,334.964 222.5,333.5C 223.562,334.77 224.562,335.937 225.5,337C 228.5,337.667 231.5,337.667 234.5,337C 236.626,335.714 238.959,334.881 241.5,334.5C 247.03,336.211 252.696,336.878 258.5,336.5C 258.5,335.5 258.5,334.5 258.5,333.5C 253.821,333.666 249.155,333.499 244.5,333C 243.177,332.184 242.511,331.017 242.5,329.5C 247.671,331.978 253.004,332.145 258.5,330C 261.833,326.667 265.167,323.333 268.5,320C 283.005,312.37 283.672,314.703 270.5,327C 272.425,326.865 274.425,326.698 276.5,326.5 Z"/></g>
<g><path style="opacity:1" fill="#130e0a" d="M 331.5,314.5 C 332.234,315.708 332.567,317.041 332.5,318.5C 331.127,318.343 329.793,318.51 328.5,319C 326.875,319.853 326.542,320.853 327.5,322C 325.963,323.11 325.297,324.61 325.5,326.5C 300.047,351.695 269.38,361.862 233.5,357C 228.642,356.452 223.975,355.286 219.5,353.5C 218.329,352.655 216.995,351.989 215.5,351.5C 223.444,349.438 231.444,347.271 239.5,345C 240.305,343.887 240.972,342.721 241.5,341.5C 245.027,340.533 248.527,339.2 252,337.5C 253.138,337.989 254.305,338.322 255.5,338.5C 264.565,344.435 274.565,347.268 285.5,347C 285.957,346.586 286.291,346.086 286.5,345.5C 277.804,343.324 269.138,340.824 260.5,338C 264.801,338.363 269.134,338.363 273.5,338C 279.276,336.463 284.943,334.63 290.5,332.5C 286.834,331.334 283.167,330.167 279.5,329C 280.873,328.125 282.373,327.625 284,327.5C 289.043,329.288 294.21,329.788 299.5,329C 314.005,323.685 313.005,321.352 296.5,322C 297.833,321.333 299.167,320.667 300.5,320C 307.119,320.092 313.453,318.926 319.5,316.5C 322.788,317.952 325.288,316.952 327,313.5C 328.356,314.38 329.856,314.714 331.5,314.5 Z"/></g>
<g><path style="opacity:0.627" fill="#5a5a59" d="M 212.5,351.5 C 213.5,351.5 214.5,351.5 215.5,351.5C 216.995,351.989 218.329,352.655 219.5,353.5C 216.848,353.59 214.515,352.924 212.5,351.5 Z"/></g>
</svg>
