<?xml version="1.0" encoding="UTF-8"?>
<!DOCTYPE svg PUBLIC "-//W3C//DTD SVG 1.1//EN" "http://www.w3.org/Graphics/SVG/1.1/DTD/svg11.dtd">
<svg xmlns="http://www.w3.org/2000/svg" version="1.1" width="500px" height="500px" style="shape-rendering:geometricPrecision; text-rendering:geometricPrecision; image-rendering:optimizeQuality; fill-rule:evenodd; clip-rule:evenodd" xmlns:xlink="http://www.w3.org/1999/xlink">
<g><path style="opacity:1" fill="#9f110d" d="M 255.5,141.5 C 253.549,141.773 252.049,141.107 251,139.5C 250.29,140.973 249.124,141.64 247.5,141.5C 250.281,132.232 252.948,132.232 255.5,141.5 Z"/></g>
<g><path style="opacity:1" fill="#62070b" d="M 221.5,151.5 C 218.167,150.833 214.833,150.167 211.5,149.5C 211.5,151.167 211.5,152.833 211.5,154.5C 210.532,152.393 210.198,150.059 210.5,147.5C 214.533,148.025 218.2,149.358 221.5,151.5 Z"/></g>
<g><path style="opacity:1" fill="#a0080a" d="M 252.5,148.5 C 251.504,148.414 250.671,148.748 250,149.5C 248.694,152.621 246.86,155.287 244.5,157.5C 245.423,154.223 246.256,150.89 247,147.5C 247.414,147.957 247.914,148.291 248.5,148.5C 249.512,143.471 250.845,143.471 252.5,148.5 Z"/></g>
<g><path style="opacity:1" fill="#720d10" d="M 289.5,162.5 C 289.5,158.5 289.5,154.5 289.5,150.5C 287.194,150.993 284.861,151.326 282.5,151.5C 285.075,150.213 287.741,148.879 290.5,147.5C 290.833,148.5 291.167,149.5 291.5,150.5C 291.044,154.678 290.377,158.678 289.5,162.5 Z"/></g>
<g><path style="opacity:0.788" fill="#7f0b0a" d="M 243.5,147.5 C 242.433,151.459 240.433,154.959 237.5,158C 235.209,158.015 233.042,158.182 231,158.5C 230.517,157.552 230.351,156.552 230.5,155.5C 232.441,155.869 234.275,156.536 236,157.5C 238.748,154.266 241.248,150.932 243.5,147.5 Z"/></g>
<g><path style="opacity:1" fill="#d90603" d="M 255.5,141.5 C 255.892,145.391 256.725,149.058 258,152.5C 257.667,152.833 257.333,153.167 257,153.5C 255.807,151.503 254.307,149.836 252.5,148.5C 250.845,143.471 249.512,143.471 248.5,148.5C 247.914,148.291 247.414,147.957 247,147.5C 246.256,150.89 245.423,154.223 244.5,157.5C 242.561,158.014 241.561,159.347 241.5,161.5C 242.156,163.453 242.489,165.453 242.5,167.5C 240.179,166.523 237.846,165.523 235.5,164.5C 235.67,163.178 235.337,162.011 234.5,161C 230.879,159.862 227.212,159.028 223.5,158.5C 224.512,163.191 226.512,167.191 229.5,170.5C 232.545,170.508 235.545,170.841 238.5,171.5C 238.833,171.5 239.167,171.5 239.5,171.5C 239.56,172.043 239.893,172.376 240.5,172.5C 241.771,168.029 244.104,167.363 247.5,170.5C 247.484,172.484 248.484,173.484 250.5,173.5C 251.713,173.253 252.38,172.586 252.5,171.5C 255.596,170.24 257.929,168.074 259.5,165C 260.725,164.437 261.725,164.77 262.5,166C 261.552,166.483 260.552,166.649 259.5,166.5C 259.757,169.932 260.424,173.266 261.5,176.5C 258.975,177.64 256.308,178.307 253.5,178.5C 253.5,179.5 253.5,180.5 253.5,181.5C 252.835,184.314 252.502,187.314 252.5,190.5C 252.753,196.51 253.753,202.01 255.5,207C 252.538,206.308 249.538,206.474 246.5,207.5C 245.956,209.58 245.122,211.58 244,213.5C 243.617,212.944 243.117,212.611 242.5,212.5C 243.883,210.022 244.883,207.355 245.5,204.5C 245.5,203.833 245.167,203.5 244.5,203.5C 242.859,201.742 240.859,200.242 238.5,199C 236.866,198.506 235.199,198.34 233.5,198.5C 233.147,196.365 233.98,195.032 236,194.5C 238.167,195.667 240.333,196.833 242.5,198C 244.441,198.743 246.274,198.576 248,197.5C 248.667,191.833 248.667,186.167 248,180.5C 244.431,179.557 240.931,178.557 237.5,177.5C 237.167,177.5 236.833,177.5 236.5,177.5C 235.01,175.72 233.01,175.054 230.5,175.5C 230.324,182.635 230.658,189.468 231.5,196C 230.552,196.483 229.552,196.649 228.5,196.5C 228.5,195.5 228.5,194.5 228.5,193.5C 227.167,193.5 225.833,193.5 224.5,193.5C 223.833,190.5 223.167,187.5 222.5,184.5C 223.822,184.67 224.989,184.337 226,183.5C 226.499,178.511 226.666,173.511 226.5,168.5C 223.833,166.833 221.167,165.167 218.5,163.5C 218.334,168.511 218.501,173.511 219,178.5C 219.671,179.252 220.504,179.586 221.5,179.5C 221.414,180.496 221.748,181.329 222.5,182C 221.299,182.903 220.465,184.069 220,185.5C 219.502,183.456 218.335,182.122 216.5,181.5C 213.123,181.068 210.123,181.735 207.5,183.5C 207.167,183.5 206.833,183.5 206.5,183.5C 204.473,183.338 202.473,183.505 200.5,184C 199.2,185.579 199.534,186.745 201.5,187.5C 204.452,189.785 207.118,192.452 209.5,195.5C 209.5,196.5 209.5,197.5 209.5,198.5C 211.199,198.66 212.866,198.494 214.5,198C 218.343,195.138 222.676,193.971 227.5,194.5C 227.167,197.167 226.833,199.833 226.5,202.5C 223.549,202.287 220.882,202.954 218.5,204.5C 218.5,203.5 218.5,202.5 218.5,201.5C 217.209,201.263 216.209,201.596 215.5,202.5C 214.329,203.345 212.995,204.011 211.5,204.5C 209.856,204.286 208.356,204.62 207,205.5C 205.812,204.437 205.312,203.103 205.5,201.5C 204.167,199.833 202.833,198.167 201.5,196.5C 200.833,193.167 198.833,191.167 195.5,190.5C 195.167,189.833 194.833,189.167 194.5,188.5C 192.033,185.46 192.366,183.127 195.5,181.5C 195.137,180.817 194.804,180.15 194.5,179.5C 194.833,179.5 195.167,179.5 195.5,179.5C 201.278,179.473 206.944,178.64 212.5,177C 213.252,176.329 213.586,175.496 213.5,174.5C 213.5,174.167 213.5,173.833 213.5,173.5C 213.927,167.886 213.26,162.553 211.5,157.5C 211.5,156.5 211.5,155.5 211.5,154.5C 211.5,152.833 211.5,151.167 211.5,149.5C 214.833,150.167 218.167,150.833 221.5,151.5C 223.64,154.341 226.64,155.674 230.5,155.5C 230.351,156.552 230.517,157.552 231,158.5C 233.042,158.182 235.209,158.015 237.5,158C 240.433,154.959 242.433,151.459 243.5,147.5C 244.34,145.147 245.674,143.147 247.5,141.5C 249.124,141.64 250.29,140.973 251,139.5C 252.049,141.107 253.549,141.773 255.5,141.5 Z M 226.5,161.5 C 229.594,162.213 232.594,163.213 235.5,164.5C 236.794,166.907 238.461,169.074 240.5,171C 240.272,171.399 239.938,171.565 239.5,171.5C 239.167,171.5 238.833,171.5 238.5,171.5C 236.058,169.774 233.391,168.274 230.5,167C 228.561,165.568 227.228,163.735 226.5,161.5 Z M 217.5,184.5 C 218.912,186.98 220.578,189.313 222.5,191.5C 218.637,194.903 214.304,196.236 209.5,195.5C 207.118,192.452 204.452,189.785 201.5,187.5C 201.5,186.5 201.5,185.5 201.5,184.5C 203.415,184.784 205.081,184.451 206.5,183.5C 206.833,183.5 207.167,183.5 207.5,183.5C 209.92,183.708 212.253,183.374 214.5,182.5C 215.518,183.193 216.518,183.859 217.5,184.5 Z M 236.5,177.5 C 236.833,177.5 237.167,177.5 237.5,177.5C 239.883,179.17 242.549,180.504 245.5,181.5C 246.191,186.383 246.857,191.216 247.5,196C 247,196.167 246.5,196.333 246,196.5C 241.642,194.818 237.308,193.151 233,191.5C 232.664,186.468 232.164,181.468 231.5,176.5C 233.216,176.629 234.883,176.962 236.5,177.5 Z M 221.5,179.5 C 220.02,174.933 219.52,170.267 220,165.5C 224.39,170.374 225.89,176.04 224.5,182.5C 223.712,181.23 222.712,180.23 221.5,179.5 Z"/></g>
<g><path style="opacity:1" fill="#a70b0b" d="M 235.5,164.5 C 232.594,163.213 229.594,162.213 226.5,161.5C 227.228,163.735 228.561,165.568 230.5,167C 233.391,168.274 236.058,169.774 238.5,171.5C 235.545,170.841 232.545,170.508 229.5,170.5C 226.512,167.191 224.512,163.191 223.5,158.5C 227.212,159.028 230.879,159.862 234.5,161C 235.337,162.011 235.67,163.178 235.5,164.5 Z"/></g>
<g><path style="opacity:1" fill="#8a0a0d" d="M 221.5,151.5 C 224.925,152.091 227.925,153.425 230.5,155.5C 226.64,155.674 223.64,154.341 221.5,151.5 Z"/></g>
<g><path style="opacity:1" fill="#8a0a0c" d="M 273.5,161.5 C 270.744,163.204 267.744,164.537 264.5,165.5C 264.833,164.833 265.167,164.167 265.5,163.5C 267.905,162.232 270.572,161.565 273.5,161.5 Z"/></g>
<g><path style="opacity:0.737" fill="#630909" d="M 211.5,157.5 C 213.26,162.553 213.927,167.886 213.5,173.5C 212.542,168.342 211.875,163.009 211.5,157.5 Z"/></g>
<g><path style="opacity:1" fill="#a1090a" d="M 244.5,157.5 C 244.249,159.17 243.582,160.67 242.5,162C 244.568,164.642 246.235,167.475 247.5,170.5C 244.104,167.363 241.771,168.029 240.5,172.5C 239.893,172.376 239.56,172.043 239.5,171.5C 239.938,171.565 240.272,171.399 240.5,171C 238.461,169.074 236.794,166.907 235.5,164.5C 237.846,165.523 240.179,166.523 242.5,167.5C 242.489,165.453 242.156,163.453 241.5,161.5C 241.561,159.347 242.561,158.014 244.5,157.5 Z"/></g>
<g><path style="opacity:0.922" fill="#73090b" d="M 247.5,170.5 C 248.935,172.401 250.602,172.734 252.5,171.5C 252.38,172.586 251.713,173.253 250.5,173.5C 248.484,173.484 247.484,172.484 247.5,170.5 Z"/></g>
<g><path style="opacity:1" fill="#a20d0b" d="M 255.5,141.5 C 258.927,146.016 261.593,151.016 263.5,156.5C 261.926,156.063 260.759,155.063 260,153.5C 259.5,154.5 259,155.5 258.5,156.5C 260.171,158.51 260.838,160.843 260.5,163.5C 262.167,163.5 263.833,163.5 265.5,163.5C 265.167,164.167 264.833,164.833 264.5,165.5C 263.883,167.229 262.883,168.729 261.5,170C 266.973,169.112 271.64,166.612 275.5,162.5C 274.797,164.716 273.464,166.549 271.5,168C 268.33,169.417 265.33,171.084 262.5,173C 265.063,174.079 267.729,174.579 270.5,174.5C 270.5,180.833 270.5,187.167 270.5,193.5C 269.5,193.5 268.5,193.5 267.5,193.5C 268.141,192.518 268.807,191.518 269.5,190.5C 268.716,185.46 268.382,180.46 268.5,175.5C 263.581,177.796 258.581,179.796 253.5,181.5C 253.5,180.5 253.5,179.5 253.5,178.5C 256.308,178.307 258.975,177.64 261.5,176.5C 260.424,173.266 259.757,169.932 259.5,166.5C 260.552,166.649 261.552,166.483 262.5,166C 261.725,164.77 260.725,164.437 259.5,165C 257.929,168.074 255.596,170.24 252.5,171.5C 254.477,168.222 256.477,164.889 258.5,161.5C 256.192,157.223 254.192,152.89 252.5,148.5C 254.307,149.836 255.807,151.503 257,153.5C 257.333,153.167 257.667,152.833 258,152.5C 256.725,149.058 255.892,145.391 255.5,141.5 Z"/></g>
<g><path style="opacity:0.957" fill="#840d0d" d="M 289.5,164.5 C 289.74,167.579 289.407,170.579 288.5,173.5C 289.34,174.735 290.34,175.735 291.5,176.5C 290.178,176.67 289.011,176.337 288,175.5C 287.505,173.527 287.338,171.527 287.5,169.5C 287.402,167.447 288.069,165.78 289.5,164.5 Z"/></g>
<g><path style="opacity:1" fill="#870c0d" d="M 213.5,174.5 C 213.586,175.496 213.252,176.329 212.5,177C 206.944,178.64 201.278,179.473 195.5,179.5C 201.572,178.2 207.572,176.534 213.5,174.5 Z"/></g>
<g><path style="opacity:1" fill="#af0c09" d="M 287.5,169.5 C 287.338,171.527 287.505,173.527 288,175.5C 289.011,176.337 290.178,176.67 291.5,176.5C 293.621,176.325 295.621,176.659 297.5,177.5C 297.5,177.833 297.5,178.167 297.5,178.5C 294.428,178.183 291.428,178.516 288.5,179.5C 292.091,180.93 295.758,182.097 299.5,183C 300.056,183.383 300.389,183.883 300.5,184.5C 296.473,184.051 292.473,183.384 288.5,182.5C 287.416,182.685 286.416,183.018 285.5,183.5C 285.36,181.876 286.027,180.71 287.5,180C 286.18,176.399 286.18,172.899 287.5,169.5 Z"/></g>
<g><path style="opacity:1" fill="#7c0d0f" d="M 297.5,178.5 C 297.5,178.167 297.5,177.833 297.5,177.5C 301.078,177.549 304.411,178.215 307.5,179.5C 304.098,179.658 300.764,179.324 297.5,178.5 Z"/></g>
<g><path style="opacity:1" fill="#7e0e0d" d="M 216.5,181.5 C 217.11,182.391 217.443,183.391 217.5,184.5C 216.518,183.859 215.518,183.193 214.5,182.5C 212.253,183.374 209.92,183.708 207.5,183.5C 210.123,181.735 213.123,181.068 216.5,181.5 Z"/></g>
<g><path style="opacity:1" fill="#d80704" d="M 297.5,178.5 C 300.764,179.324 304.098,179.658 307.5,179.5C 307.833,179.5 308.167,179.5 308.5,179.5C 310.243,181.126 310.743,183.126 310,185.5C 309,186.833 308,186.833 307,185.5C 307.043,188.088 305.877,190.421 303.5,192.5C 301.242,193.799 298.908,194.799 296.5,195.5C 296.708,197.92 296.374,200.253 295.5,202.5C 297.21,206.094 299.21,209.427 301.5,212.5C 301.44,213.043 301.107,213.376 300.5,213.5C 298.925,212.544 297.258,211.877 295.5,211.5C 295.632,207.968 293.966,205.968 290.5,205.5C 290.288,203.616 289.288,202.283 287.5,201.5C 291.316,201.07 293.649,199.07 294.5,195.5C 297.13,193.372 299.63,191.039 302,188.5C 302.765,186.934 302.598,185.601 301.5,184.5C 301.167,184.5 300.833,184.5 300.5,184.5C 300.389,183.883 300.056,183.383 299.5,183C 295.758,182.097 292.091,180.93 288.5,179.5C 291.428,178.516 294.428,178.183 297.5,178.5 Z"/></g>
<g><path style="opacity:1" fill="#a50f0e" d="M 194.5,179.5 C 194.804,180.15 195.137,180.817 195.5,181.5C 192.366,183.127 192.033,185.46 194.5,188.5C 191.749,186.255 189.083,183.755 186.5,181C 189.117,180.178 191.784,179.678 194.5,179.5 Z"/></g>
<g><path style="opacity:0.388" fill="#6d0304" d="M 206.5,183.5 C 205.081,184.451 203.415,184.784 201.5,184.5C 201.5,185.5 201.5,186.5 201.5,187.5C 199.534,186.745 199.2,185.579 200.5,184C 202.473,183.505 204.473,183.338 206.5,183.5 Z"/></g>
<g><path style="opacity:1" fill="#9b0c0c" d="M 236.5,177.5 C 234.883,176.962 233.216,176.629 231.5,176.5C 232.164,181.468 232.664,186.468 233,191.5C 237.308,193.151 241.642,194.818 246,196.5C 246.5,196.333 247,196.167 247.5,196C 246.857,191.216 246.191,186.383 245.5,181.5C 242.549,180.504 239.883,179.17 237.5,177.5C 240.931,178.557 244.431,179.557 248,180.5C 248.667,186.167 248.667,191.833 248,197.5C 246.274,198.576 244.441,198.743 242.5,198C 240.333,196.833 238.167,195.667 236,194.5C 233.98,195.032 233.147,196.365 233.5,198.5C 235.199,198.34 236.866,198.506 238.5,199C 240.859,200.242 242.859,201.742 244.5,203.5C 239.985,201.939 235.485,200.272 231,198.5C 229.285,199.604 227.785,200.938 226.5,202.5C 226.833,199.833 227.167,197.167 227.5,194.5C 222.676,193.971 218.343,195.138 214.5,198C 212.866,198.494 211.199,198.66 209.5,198.5C 209.5,197.5 209.5,196.5 209.5,195.5C 214.304,196.236 218.637,194.903 222.5,191.5C 220.578,189.313 218.912,186.98 217.5,184.5C 217.443,183.391 217.11,182.391 216.5,181.5C 218.335,182.122 219.502,183.456 220,185.5C 220.465,184.069 221.299,182.903 222.5,182C 221.748,181.329 221.414,180.496 221.5,179.5C 220.504,179.586 219.671,179.252 219,178.5C 218.501,173.511 218.334,168.511 218.5,163.5C 221.167,165.167 223.833,166.833 226.5,168.5C 226.666,173.511 226.499,178.511 226,183.5C 224.989,184.337 223.822,184.67 222.5,184.5C 223.167,187.5 223.833,190.5 224.5,193.5C 225.833,193.5 227.167,193.5 228.5,193.5C 228.5,194.5 228.5,195.5 228.5,196.5C 229.552,196.649 230.552,196.483 231.5,196C 230.658,189.468 230.324,182.635 230.5,175.5C 233.01,175.054 235.01,175.72 236.5,177.5 Z M 236.5,177.5 C 236.833,177.5 237.167,177.5 237.5,177.5C 239.883,179.17 242.549,180.504 245.5,181.5C 246.191,186.383 246.857,191.216 247.5,196C 247,196.167 246.5,196.333 246,196.5C 241.642,194.818 237.308,193.151 233,191.5C 232.664,186.468 232.164,181.468 231.5,176.5C 233.216,176.629 234.883,176.962 236.5,177.5 Z M 221.5,179.5 C 222.712,180.23 223.712,181.23 224.5,182.5C 225.89,176.04 224.39,170.374 220,165.5C 219.52,170.267 220.02,174.933 221.5,179.5 Z"/></g>
<g><path style="opacity:1" fill="#95090a" d="M 285.5,183.5 C 283.853,186.473 281.853,189.14 279.5,191.5C 280.929,188.692 281.595,185.692 281.5,182.5C 282.959,182.433 284.292,182.766 285.5,183.5 Z"/></g>
<g><path style="opacity:1" fill="#840d0f" d="M 301.5,184.5 C 302.598,185.601 302.765,186.934 302,188.5C 299.63,191.039 297.13,193.372 294.5,195.5C 297.228,192.101 299.561,188.434 301.5,184.5 Z"/></g>
<g><path style="opacity:0.78" fill="#6e0509" d="M 195.5,190.5 C 198.833,191.167 200.833,193.167 201.5,196.5C 199.167,194.833 197.167,192.833 195.5,190.5 Z"/></g>
<g><path style="opacity:0.365" fill="#710504" d="M 279.5,191.5 C 279.196,192.15 278.863,192.817 278.5,193.5C 279.602,194.176 280.602,194.842 281.5,195.5C 280.167,195.5 278.833,195.5 277.5,195.5C 277.157,193.517 277.824,192.183 279.5,191.5 Z"/></g>
<g><path style="opacity:1" fill="#a00a0b" d="M 308.5,179.5 C 310.696,179.565 312.696,180.232 314.5,181.5C 308.949,188.775 303.282,195.942 297.5,203C 301.058,207.965 304.725,212.799 308.5,217.5C 306.427,215.42 304.093,213.754 301.5,212.5C 299.21,209.427 297.21,206.094 295.5,202.5C 296.374,200.253 296.708,197.92 296.5,195.5C 298.908,194.799 301.242,193.799 303.5,192.5C 305.877,190.421 307.043,188.088 307,185.5C 308,186.833 309,186.833 310,185.5C 310.743,183.126 310.243,181.126 308.5,179.5 Z"/></g>
<g><path style="opacity:1" fill="#6f0f0e" d="M 281.5,196.5 C 281.5,196.167 281.5,195.833 281.5,195.5C 283.786,195.595 285.786,196.262 287.5,197.5C 285.379,197.675 283.379,197.341 281.5,196.5 Z"/></g>
<g><path style="opacity:1" fill="#d60704" d="M 289.5,162.5 C 289.5,163.167 289.5,163.833 289.5,164.5C 288.069,165.78 287.402,167.447 287.5,169.5C 286.18,172.899 286.18,176.399 287.5,180C 286.027,180.71 285.36,181.876 285.5,183.5C 284.292,182.766 282.959,182.433 281.5,182.5C 281.595,185.692 280.929,188.692 279.5,191.5C 277.824,192.183 277.157,193.517 277.5,195.5C 278.833,195.5 280.167,195.5 281.5,195.5C 281.5,195.833 281.5,196.167 281.5,196.5C 282.183,198.176 283.517,198.843 285.5,198.5C 285.5,199.5 285.5,200.5 285.5,201.5C 284.022,201.238 282.689,201.571 281.5,202.5C 281.855,203.522 282.522,204.189 283.5,204.5C 283.45,208.795 285.45,211.128 289.5,211.5C 292.148,212.673 294.815,213.506 297.5,214C 296.619,213.292 295.953,212.458 295.5,211.5C 297.258,211.877 298.925,212.544 300.5,213.5C 301.107,213.376 301.44,213.043 301.5,212.5C 304.093,213.754 306.427,215.42 308.5,217.5C 310.284,219.948 311.618,222.615 312.5,225.5C 309.813,225.336 307.146,225.503 304.5,226C 303.944,226.383 303.611,226.883 303.5,227.5C 302.5,227.5 301.5,227.5 300.5,227.5C 296.233,227.203 292.066,227.536 288,228.5C 287.5,237.494 287.334,246.494 287.5,255.5C 286.5,255.5 285.5,255.5 284.5,255.5C 283.29,255.068 282.29,254.401 281.5,253.5C 281.063,251.926 280.063,250.759 278.5,250C 279.905,248.731 281.571,248.231 283.5,248.5C 283.83,241.468 283.497,234.468 282.5,227.5C 278.675,225.855 274.675,225.188 270.5,225.5C 270.167,225.5 269.833,225.5 269.5,225.5C 268.817,223.824 267.483,223.157 265.5,223.5C 264.908,229.631 265.575,235.464 267.5,241C 264.894,241.45 263.561,242.95 263.5,245.5C 263.167,245.5 262.833,245.5 262.5,245.5C 260.876,245.36 259.71,246.027 259,247.5C 258.825,244.843 258.992,242.176 259.5,239.5C 261.369,237.365 262.036,234.698 261.5,231.5C 258.571,231.395 256.237,232.229 254.5,234C 254.167,233.667 253.833,233.333 253.5,233C 254.464,231.275 255.131,229.441 255.5,227.5C 256.5,227.5 257.5,227.5 258.5,227.5C 258.8,224.731 259.8,222.231 261.5,220C 259.843,216.98 258.343,214.146 257,211.5C 257.741,210.359 258.575,210.359 259.5,211.5C 261.839,217.189 265.505,218.523 270.5,215.5C 273.91,215.543 277.243,215.043 280.5,214C 282.043,211.955 281.71,210.455 279.5,209.5C 278.063,207.04 277.063,204.374 276.5,201.5C 275.5,201.5 274.5,201.5 273.5,201.5C 273.5,200.5 273.5,199.5 273.5,198.5C 268.952,198.275 264.618,198.941 260.5,200.5C 259.167,200.167 257.833,199.833 256.5,199.5C 260.48,197.859 264.147,195.859 267.5,193.5C 268.5,193.5 269.5,193.5 270.5,193.5C 270.5,187.167 270.5,180.833 270.5,174.5C 267.729,174.579 265.063,174.079 262.5,173C 265.33,171.084 268.33,169.417 271.5,168C 273.464,166.549 274.797,164.716 275.5,162.5C 275.158,161.662 274.492,161.328 273.5,161.5C 270.572,161.565 267.905,162.232 265.5,163.5C 263.833,163.5 262.167,163.5 260.5,163.5C 260.838,160.843 260.171,158.51 258.5,156.5C 259,155.5 259.5,154.5 260,153.5C 260.759,155.063 261.926,156.063 263.5,156.5C 263.5,157.5 263.5,158.5 263.5,159.5C 268.811,158.819 273.478,156.819 277.5,153.5C 278.93,152.463 280.597,151.796 282.5,151.5C 284.861,151.326 287.194,150.993 289.5,150.5C 289.5,154.5 289.5,158.5 289.5,162.5 Z M 277.5,183.5 C 276.203,178.934 276.203,174.267 277.5,169.5C 279.504,168.327 281.004,166.66 282,164.5C 282.667,168.167 282.667,171.833 282,175.5C 280.644,178.329 279.144,180.996 277.5,183.5 Z M 294.5,220.5 C 289.763,222.799 284.763,223.132 279.5,221.5C 279.389,220.883 279.056,220.383 278.5,220C 283.931,217.92 289.264,218.087 294.5,220.5 Z M 269.5,225.5 C 269.833,225.5 270.167,225.5 270.5,225.5C 274.006,226.733 277.673,227.733 281.5,228.5C 282.117,234.598 281.45,240.265 279.5,245.5C 275.571,243.176 271.571,240.843 267.5,238.5C 266.343,235.216 266.176,231.882 267,228.5C 267.236,226.881 268.069,225.881 269.5,225.5 Z"/></g>
<g><path style="opacity:0.345" fill="#560000" d="M 277.5,169.5 C 276.203,174.267 276.203,178.934 277.5,183.5C 277.44,184.043 277.107,184.376 276.5,184.5C 276.167,182 275.833,179.5 275.5,177C 275.525,174.071 276.191,171.571 277.5,169.5 Z"/></g>
<g><path style="opacity:1" fill="#840b0c" d="M 277.5,183.5 C 279.144,180.996 280.644,178.329 282,175.5C 282.667,171.833 282.667,168.167 282,164.5C 281.004,166.66 279.504,168.327 277.5,169.5C 278.105,166.873 278.605,164.207 279,161.5C 280.324,162.88 281.657,163.214 283,162.5C 283.667,167.5 283.667,172.5 283,177.5C 281.669,179.996 279.836,181.996 277.5,183.5 Z"/></g>
<g><path style="opacity:0.98" fill="#98090c" d="M 277.5,153.5 C 273.478,156.819 268.811,158.819 263.5,159.5C 263.5,158.5 263.5,157.5 263.5,156.5C 264.265,156.923 265.098,157.257 266,157.5C 269.744,155.863 273.577,154.53 277.5,153.5 Z"/></g>
<g><path style="opacity:1" fill="#bc0b09" d="M 294.5,195.5 C 293.649,199.07 291.316,201.07 287.5,201.5C 289.288,202.283 290.288,203.616 290.5,205.5C 288.634,204.986 286.8,204.32 285,203.5C 284.235,203.57 283.735,203.903 283.5,204.5C 282.522,204.189 281.855,203.522 281.5,202.5C 282.689,201.571 284.022,201.238 285.5,201.5C 285.5,200.5 285.5,199.5 285.5,198.5C 283.517,198.843 282.183,198.176 281.5,196.5C 283.379,197.341 285.379,197.675 287.5,197.5C 288.822,197.33 289.989,197.663 291,198.5C 292.039,197.29 293.206,196.29 294.5,195.5 Z"/></g>
<g><path style="opacity:1" fill="#780a0c" d="M 215.5,202.5 C 216.209,201.596 217.209,201.263 218.5,201.5C 218.5,202.5 218.5,203.5 218.5,204.5C 215.781,206.219 213.781,208.553 212.5,211.5C 211.167,211.5 209.833,211.5 208.5,211.5C 211.566,209.014 214.566,206.18 217.5,203C 216.906,202.536 216.239,202.369 215.5,202.5 Z"/></g>
<g><path style="opacity:1" fill="#79090e" d="M 256.5,205.5 C 258.587,206.585 259.92,208.251 260.5,210.5C 258.413,209.415 257.08,207.749 256.5,205.5 Z"/></g>
<g><path style="opacity:1" fill="#970b0f" d="M 290.5,205.5 C 293.966,205.968 295.632,207.968 295.5,211.5C 293.367,209.909 291.701,207.909 290.5,205.5 Z"/></g>
<g><path style="opacity:1" fill="#b20b0b" d="M 205.5,201.5 C 205.312,203.103 205.812,204.437 207,205.5C 208.356,204.62 209.856,204.286 211.5,204.5C 209.332,207.5 206.666,210 203.5,212C 205.197,212.384 206.863,212.218 208.5,211.5C 207.01,213.28 205.01,213.946 202.5,213.5C 202.539,211.641 201.706,210.308 200,209.5C 198.67,210.582 197.17,211.249 195.5,211.5C 198.473,207.86 201.806,204.527 205.5,201.5 Z"/></g>
<g><path style="opacity:1" fill="#ae0b0a" d="M 253.5,181.5 C 253.054,187.021 253.554,192.355 255,197.5C 259.086,195.936 263.252,194.603 267.5,193.5C 264.147,195.859 260.48,197.859 256.5,199.5C 257.833,199.833 259.167,200.167 260.5,200.5C 264.618,198.941 268.952,198.275 273.5,198.5C 273.5,199.5 273.5,200.5 273.5,201.5C 274.5,201.5 275.5,201.5 276.5,201.5C 277.063,204.374 278.063,207.04 279.5,209.5C 276.507,206.199 273.507,202.865 270.5,199.5C 266.614,201.139 262.614,202.472 258.5,203.5C 257.287,203.747 256.62,204.414 256.5,205.5C 257.08,207.749 258.413,209.415 260.5,210.5C 262.55,212.237 264.383,214.237 266,216.5C 267.356,215.62 268.856,215.286 270.5,215.5C 265.505,218.523 261.839,217.189 259.5,211.5C 258.575,210.359 257.741,210.359 257,211.5C 258.343,214.146 259.843,216.98 261.5,220C 259.8,222.231 258.8,224.731 258.5,227.5C 257.5,227.5 256.5,227.5 255.5,227.5C 256.557,225.059 257.89,222.725 259.5,220.5C 256.912,216.324 254.079,212.324 251,208.5C 250.617,209.056 250.117,209.389 249.5,209.5C 247.018,210.663 245.684,212.663 245.5,215.5C 243.774,217.228 242.441,219.228 241.5,221.5C 240.876,221.083 240.543,220.416 240.5,219.5C 241.894,217.354 242.56,215.021 242.5,212.5C 243.117,212.611 243.617,212.944 244,213.5C 245.122,211.58 245.956,209.58 246.5,207.5C 249.538,206.474 252.538,206.308 255.5,207C 253.753,202.01 252.753,196.51 252.5,190.5C 252.502,187.314 252.835,184.314 253.5,181.5 Z"/></g>
<g><path style="opacity:1" fill="#9c0a0c" d="M 283.5,204.5 C 285.727,206.607 287.727,208.94 289.5,211.5C 285.45,211.128 283.45,208.795 283.5,204.5 Z"/></g>
<g><path style="opacity:1" fill="#990c0b" d="M 245.5,204.5 C 244.883,207.355 243.883,210.022 242.5,212.5C 241.5,212.5 240.5,212.5 239.5,212.5C 240.529,209.109 242.529,206.443 245.5,204.5 Z"/></g>
<g><path style="opacity:0.082" fill="#510a06" d="M 249.5,209.5 C 248.525,211.795 247.192,213.795 245.5,215.5C 245.684,212.663 247.018,210.663 249.5,209.5 Z"/></g>
<g><path style="opacity:1" fill="#b40a09" d="M 226.5,202.5 C 224.72,205.454 222.72,208.287 220.5,211C 225.333,212.833 230.167,214.667 235,216.5C 236.351,214.982 237.851,213.649 239.5,212.5C 238.37,214.315 237.704,216.315 237.5,218.5C 234.428,218.817 231.428,218.484 228.5,217.5C 226.367,214.955 223.7,214.122 220.5,215C 222.141,216.129 223.141,217.629 223.5,219.5C 220.514,219.097 217.848,218.097 215.5,216.5C 216.5,216.5 217.5,216.5 218.5,216.5C 218.657,215.127 218.49,213.793 218,212.5C 217.346,213.696 216.846,213.696 216.5,212.5C 217.89,210.831 218.223,209.164 217.5,207.5C 216.234,209.404 214.567,210.737 212.5,211.5C 213.781,208.553 215.781,206.219 218.5,204.5C 220.882,202.954 223.549,202.287 226.5,202.5 Z"/></g>
<g><path style="opacity:1" fill="#970d0b" d="M 279.5,209.5 C 281.71,210.455 282.043,211.955 280.5,214C 277.243,215.043 273.91,215.543 270.5,215.5C 273.659,213.996 276.993,212.663 280.5,211.5C 280.137,210.817 279.804,210.15 279.5,209.5 Z"/></g>
<g><path style="opacity:0.824" fill="#70090b" d="M 194.5,212.5 C 192.431,215.573 189.764,217.906 186.5,219.5C 188.569,216.427 191.236,214.094 194.5,212.5 Z"/></g>
<g><path style="opacity:1" fill="#730e0d" d="M 308.5,217.5 C 318.577,225.204 316.91,228.538 303.5,227.5C 303.611,226.883 303.944,226.383 304.5,226C 307.146,225.503 309.813,225.336 312.5,225.5C 311.618,222.615 310.284,219.948 308.5,217.5 Z"/></g>
<g><path style="opacity:1" fill="#5f0d0f" d="M 186.5,219.5 C 186.586,220.496 186.252,221.329 185.5,222C 186.416,222.278 187.082,222.778 187.5,223.5C 182.561,223.368 182.228,222.035 186.5,219.5 Z"/></g>
<g><path style="opacity:0.388" fill="#81080a" d="M 294.5,220.5 C 295.885,221.302 295.718,221.969 294,222.5C 289.542,223.579 285.042,223.746 280.5,223C 279.944,222.617 279.611,222.117 279.5,221.5C 284.763,223.132 289.763,222.799 294.5,220.5 Z"/></g>
<g><path style="opacity:1" fill="#d50704" d="M 215.5,216.5 C 213.32,215.206 211.32,215.539 209.5,217.5C 207.833,217.5 206.167,217.5 204.5,217.5C 204.285,219.179 204.952,220.179 206.5,220.5C 210.059,220.284 213.559,220.618 217,221.5C 219.346,221.01 221.513,220.343 223.5,219.5C 223.141,217.629 222.141,216.129 220.5,215C 223.7,214.122 226.367,214.955 228.5,217.5C 231.428,218.484 234.428,218.817 237.5,218.5C 237.704,216.315 238.37,214.315 239.5,212.5C 240.5,212.5 241.5,212.5 242.5,212.5C 242.56,215.021 241.894,217.354 240.5,219.5C 240.543,220.416 240.876,221.083 241.5,221.5C 241.343,222.873 241.51,224.207 242,225.5C 243.745,227.089 244.912,229.089 245.5,231.5C 246.724,232.766 248.057,233.933 249.5,235C 253.514,233.678 255.014,235.178 254,239.5C 253.333,240.167 252.667,240.833 252,241.5C 251.502,244.817 251.335,248.15 251.5,251.5C 253.981,251.677 255.814,250.677 257,248.5C 257.717,249.044 258.217,249.711 258.5,250.5C 256.942,253.63 255.942,256.963 255.5,260.5C 255.573,262.027 254.906,263.027 253.5,263.5C 252.077,265.545 250.077,266.545 247.5,266.5C 247.5,266.167 247.5,265.833 247.5,265.5C 247.698,263.425 247.865,261.425 248,259.5C 247.667,259.833 247.333,260.167 247,260.5C 244.23,257.189 241.73,253.856 239.5,250.5C 238.115,242.758 234.281,241.425 228,246.5C 226.596,246.491 225.43,245.991 224.5,245C 227.336,243.609 229.669,241.776 231.5,239.5C 232.496,239.586 233.329,239.252 234,238.5C 234.499,233.845 234.666,229.179 234.5,224.5C 230.818,224.335 227.152,224.501 223.5,225C 222.429,225.852 221.429,226.685 220.5,227.5C 218.66,229.659 217.493,232.325 217,235.5C 216.501,239.486 216.334,243.486 216.5,247.5C 218.819,246.833 221.153,246.666 223.5,247C 224.684,248.145 224.684,249.312 223.5,250.5C 219.372,251.477 215.372,252.81 211.5,254.5C 211.5,250.5 211.5,246.5 211.5,242.5C 211.922,237.453 212.589,232.453 213.5,227.5C 209.79,225.864 205.79,225.198 201.5,225.5C 196.773,225.221 192.107,224.554 187.5,223.5C 187.082,222.778 186.416,222.278 185.5,222C 186.252,221.329 186.586,220.496 186.5,219.5C 189.764,217.906 192.431,215.573 194.5,212.5C 194.5,211.833 194.833,211.5 195.5,211.5C 197.17,211.249 198.67,210.582 200,209.5C 201.706,210.308 202.539,211.641 202.5,213.5C 205.01,213.946 207.01,213.28 208.5,211.5C 209.833,211.5 211.167,211.5 212.5,211.5C 214.567,210.737 216.234,209.404 217.5,207.5C 218.223,209.164 217.89,210.831 216.5,212.5C 216.846,213.696 217.346,213.696 218,212.5C 218.49,213.793 218.657,215.127 218.5,216.5C 217.5,216.5 216.5,216.5 215.5,216.5 Z M 215.5,216.5 C 217.848,218.097 220.514,219.097 223.5,219.5C 221.513,220.343 219.346,221.01 217,221.5C 213.559,220.618 210.059,220.284 206.5,220.5C 206.389,219.883 206.056,219.383 205.5,219C 207.058,218.79 208.391,218.29 209.5,217.5C 211.5,217.167 213.5,216.833 215.5,216.5 Z M 231.5,239.5 C 227.577,240.795 223.91,242.628 220.5,245C 219.365,245.749 218.365,245.583 217.5,244.5C 218.628,238.86 219.628,233.194 220.5,227.5C 224.853,226.941 229.186,226.275 233.5,225.5C 234.038,230.467 233.371,235.134 231.5,239.5 Z M 245.5,248.5 C 245.672,247.508 245.338,246.842 244.5,246.5C 242.899,242.958 241.565,239.291 240.5,235.5C 240.833,234.833 241.167,234.167 241.5,233.5C 242.216,235.482 243.383,237.149 245,238.5C 246.684,241.894 246.851,245.228 245.5,248.5 Z"/></g>
<g><path style="opacity:0.494" fill="#7a0404" d="M 209.5,217.5 C 208.391,218.29 207.058,218.79 205.5,219C 206.056,219.383 206.389,219.883 206.5,220.5C 204.952,220.179 204.285,219.179 204.5,217.5C 206.167,217.5 207.833,217.5 209.5,217.5 Z"/></g>
<g><path style="opacity:0.755" fill="#830d11" d="M 215.5,216.5 C 213.5,216.833 211.5,217.167 209.5,217.5C 211.32,215.539 213.32,215.206 215.5,216.5 Z"/></g>
<g><path style="opacity:1" fill="#76090a" d="M 201.5,225.5 C 205.79,225.198 209.79,225.864 213.5,227.5C 209.295,227.283 205.295,226.617 201.5,225.5 Z"/></g>
<g><path style="opacity:0.216" fill="#710307" d="M 231.5,239.5 C 233.371,235.134 234.038,230.467 233.5,225.5C 229.186,226.275 224.853,226.941 220.5,227.5C 221.429,226.685 222.429,225.852 223.5,225C 227.152,224.501 230.818,224.335 234.5,224.5C 234.666,229.179 234.499,233.845 234,238.5C 233.329,239.252 232.496,239.586 231.5,239.5 Z"/></g>
<g><path style="opacity:1" fill="#920b0c" d="M 245.5,248.5 C 246.851,245.228 246.684,241.894 245,238.5C 243.383,237.149 242.216,235.482 241.5,233.5C 241.167,234.167 240.833,234.833 240.5,235.5C 241.565,239.291 242.899,242.958 244.5,246.5C 243.417,246.461 242.417,246.127 241.5,245.5C 239.674,240.907 239.341,236.241 240.5,231.5C 241.736,232.246 243.07,232.579 244.5,232.5C 246.136,236.576 247.47,240.743 248.5,245C 248.506,247.3 248.006,249.466 247,251.5C 245.961,250.756 245.461,249.756 245.5,248.5 Z"/></g>
<g><path style="opacity:1" fill="#ac0a0a" d="M 241.5,221.5 C 244.491,225.47 247.491,229.47 250.5,233.5C 251.709,231.059 253.376,229.059 255.5,227.5C 255.131,229.441 254.464,231.275 253.5,233C 253.833,233.333 254.167,233.667 254.5,234C 256.237,232.229 258.571,231.395 261.5,231.5C 262.036,234.698 261.369,237.365 259.5,239.5C 258.992,242.176 258.825,244.843 259,247.5C 259.71,246.027 260.876,245.36 262.5,245.5C 261.513,247.551 260.18,249.218 258.5,250.5C 258.217,249.711 257.717,249.044 257,248.5C 255.814,250.677 253.981,251.677 251.5,251.5C 251.335,248.15 251.502,244.817 252,241.5C 252.667,240.833 253.333,240.167 254,239.5C 255.014,235.178 253.514,233.678 249.5,235C 248.057,233.933 246.724,232.766 245.5,231.5C 244.912,229.089 243.745,227.089 242,225.5C 241.51,224.207 241.343,222.873 241.5,221.5 Z M 259.5,239.5 C 257.441,242.611 255.608,245.944 254,249.5C 253.333,246.833 253.333,244.167 254,241.5C 256.062,239.099 257.729,236.433 259,233.5C 259.495,235.473 259.662,237.473 259.5,239.5 Z"/></g>
<g><path style="opacity:0.692" fill="#740b09" d="M 300.5,227.5 C 296.769,228.196 292.935,228.862 289,229.5C 288.5,237.827 288.334,246.16 288.5,254.5C 288.5,255.167 288.167,255.5 287.5,255.5C 287.334,246.494 287.5,237.494 288,228.5C 292.066,227.536 296.233,227.203 300.5,227.5 Z"/></g>
<g><path style="opacity:1" fill="#9e0a0c" d="M 220.5,227.5 C 219.628,233.194 218.628,238.86 217.5,244.5C 218.365,245.583 219.365,245.749 220.5,245C 223.91,242.628 227.577,240.795 231.5,239.5C 229.669,241.776 227.336,243.609 224.5,245C 225.43,245.991 226.596,246.491 228,246.5C 234.281,241.425 238.115,242.758 239.5,250.5C 238.462,248.428 236.962,246.761 235,245.5C 231.204,247.316 227.37,248.983 223.5,250.5C 224.684,249.312 224.684,248.145 223.5,247C 221.153,246.666 218.819,246.833 216.5,247.5C 216.334,243.486 216.501,239.486 217,235.5C 217.493,232.325 218.66,229.659 220.5,227.5 Z"/></g>
<g><path style="opacity:1" fill="#b40d0b" d="M 269.5,225.5 C 268.069,225.881 267.236,226.881 267,228.5C 266.176,231.882 266.343,235.216 267.5,238.5C 271.571,240.843 275.571,243.176 279.5,245.5C 280.209,246.404 281.209,246.737 282.5,246.5C 282.823,240.31 282.49,234.31 281.5,228.5C 277.673,227.733 274.006,226.733 270.5,225.5C 274.675,225.188 278.675,225.855 282.5,227.5C 283.497,234.468 283.83,241.468 283.5,248.5C 281.571,248.231 279.905,248.731 278.5,250C 280.063,250.759 281.063,251.926 281.5,253.5C 275.708,250.377 269.708,247.711 263.5,245.5C 263.561,242.95 264.894,241.45 267.5,241C 265.575,235.464 264.908,229.631 265.5,223.5C 267.483,223.157 268.817,223.824 269.5,225.5 Z M 269.5,225.5 C 269.833,225.5 270.167,225.5 270.5,225.5C 274.006,226.733 277.673,227.733 281.5,228.5C 282.117,234.598 281.45,240.265 279.5,245.5C 275.571,243.176 271.571,240.843 267.5,238.5C 266.343,235.216 266.176,231.882 267,228.5C 267.236,226.881 268.069,225.881 269.5,225.5 Z"/></g>
<g><path style="opacity:0.122" fill="#5d0000" d="M 281.5,228.5 C 282.49,234.31 282.823,240.31 282.5,246.5C 281.209,246.737 280.209,246.404 279.5,245.5C 281.45,240.265 282.117,234.598 281.5,228.5 Z"/></g>
<g><path style="opacity:1" fill="#900b0f" d="M 211.5,242.5 C 211.5,246.5 211.5,250.5 211.5,254.5C 215.372,252.81 219.372,251.477 223.5,250.5C 219.423,253.227 215.09,255.561 210.5,257.5C 209.662,257.158 209.328,256.492 209.5,255.5C 209.77,250.972 210.437,246.639 211.5,242.5 Z"/></g>
<g><path style="opacity:1" fill="#84070e" d="M 262.5,245.5 C 262.833,245.5 263.167,245.5 263.5,245.5C 261.099,250.635 258.432,255.635 255.5,260.5C 255.942,256.963 256.942,253.63 258.5,250.5C 260.18,249.218 261.513,247.551 262.5,245.5 Z"/></g>
<g><path style="opacity:0.922" fill="#3f1516" d="M 288.5,254.5 C 289.737,255.743 289.404,256.743 287.5,257.5C 286.261,257.058 285.261,256.391 284.5,255.5C 285.5,255.5 286.5,255.5 287.5,255.5C 288.167,255.5 288.5,255.167 288.5,254.5 Z"/></g>
<g><path style="opacity:0.09" fill="#280300" d="M 209.5,255.5 C 209.328,256.492 209.662,257.158 210.5,257.5C 209.698,258.885 209.031,258.718 208.5,257C 208.57,256.235 208.903,255.735 209.5,255.5 Z"/></g>
<g><path style="opacity:1" fill="#9a0b08" d="M 239.5,250.5 C 241.73,253.856 244.23,257.189 247,260.5C 247.333,260.167 247.667,259.833 248,259.5C 247.865,261.425 247.698,263.425 247.5,265.5C 244.073,260.984 241.407,255.984 239.5,250.5 Z"/></g>
<g><path style="opacity:1" fill="#860f11" d="M 253.5,263.5 C 253.009,266.01 252.009,268.344 250.5,270.5C 249.016,269.533 248.016,268.2 247.5,266.5C 250.077,266.545 252.077,265.545 253.5,263.5 Z"/></g>
<g><path style="opacity:1" fill="#e8e8e8" d="M 170.5,288.5 C 192.459,287.708 200.625,298.041 195,319.5C 189.307,329.42 180.807,332.92 169.5,330C 160.247,326.334 155.913,319.501 156.5,309.5C 155.951,298.911 160.618,291.911 170.5,288.5 Z M 173.5,297.5 C 178.772,296.549 182.272,298.549 184,303.5C 184.667,307.5 184.667,311.5 184,315.5C 182.125,321.155 178.292,322.989 172.5,321C 167.873,315.529 166.706,309.362 169,302.5C 170.025,300.313 171.525,298.646 173.5,297.5 Z"/></g>
<g><path style="opacity:1" fill="#e8e8e8" d="M 114.5,310.5 C 114.238,311.978 114.571,313.311 115.5,314.5C 116.298,314.043 116.631,313.376 116.5,312.5C 118.015,305.106 119.848,297.773 122,290.5C 125.394,289.544 128.894,289.211 132.5,289.5C 134.844,297.876 137.344,306.21 140,314.5C 141.64,306.181 143.14,297.848 144.5,289.5C 148.226,289.177 151.893,289.511 155.5,290.5C 152.808,303.696 149.808,316.696 146.5,329.5C 142.4,329.763 138.4,329.43 134.5,328.5C 132.1,321.632 130.1,314.632 128.5,307.5C 127.699,305.207 127.032,305.54 126.5,308.5C 124.662,315.514 122.662,322.514 120.5,329.5C 116.217,330.492 111.884,330.826 107.5,330.5C 104.78,316.898 102.446,303.232 100.5,289.5C 104.167,289.5 107.833,289.5 111.5,289.5C 112.592,296.479 113.592,303.479 114.5,310.5 Z"/></g>
<g><path style="opacity:1" fill="#efefef" d="M 202.5,289.5 C 206.167,289.5 209.833,289.5 213.5,289.5C 213.5,300.167 213.5,310.833 213.5,321.5C 218.5,321.5 223.5,321.5 228.5,321.5C 228.5,324.167 228.5,326.833 228.5,329.5C 219.833,329.5 211.167,329.5 202.5,329.5C 202.5,316.167 202.5,302.833 202.5,289.5 Z"/></g>
<g><path style="opacity:1" fill="#f6f6f6" d="M 233.5,289.5 C 242.167,289.5 250.833,289.5 259.5,289.5C 259.5,291.833 259.5,294.167 259.5,296.5C 253.974,296.179 248.64,296.512 243.5,297.5C 243.5,300.5 243.5,303.5 243.5,306.5C 248.5,306.5 253.5,306.5 258.5,306.5C 258.5,308.833 258.5,311.167 258.5,313.5C 253.833,313.5 249.167,313.5 244.5,313.5C 244.821,319.026 244.488,324.36 243.5,329.5C 240.167,329.5 236.833,329.5 233.5,329.5C 233.5,316.167 233.5,302.833 233.5,289.5 Z"/></g>
<g><path style="opacity:1" fill="#f3f3f3" d="M 265.5,289.5 C 273.507,289.334 281.507,289.5 289.5,290C 294.403,291.568 297.07,294.901 297.5,300C 297.163,304.68 294.829,308.013 290.5,310C 294.61,315.812 297.277,322.312 298.5,329.5C 294.833,329.5 291.167,329.5 287.5,329.5C 286.01,324.183 283.677,319.183 280.5,314.5C 279.081,313.549 277.415,313.216 275.5,313.5C 275.5,318.833 275.5,324.167 275.5,329.5C 272.167,329.5 268.833,329.5 265.5,329.5C 265.5,316.167 265.5,302.833 265.5,289.5 Z M 276.5,297.5 C 279.545,297.342 282.379,298.009 285,299.5C 285.91,302.31 285.077,304.31 282.5,305.5C 280.5,305.5 278.5,305.5 276.5,305.5C 276.5,302.833 276.5,300.167 276.5,297.5 Z"/></g>
<g><path style="opacity:1" fill="#e8e8e8" d="M 342.5,329.5 C 338.5,329.5 334.5,329.5 330.5,329.5C 329.545,327.254 328.878,324.921 328.5,322.5C 326.429,321.191 323.929,320.525 321,320.5C 318.31,320.503 315.81,320.836 313.5,321.5C 312.423,324.307 311.423,327.14 310.5,330C 302.655,330.822 294.989,330.656 287.5,329.5C 291.167,329.5 294.833,329.5 298.5,329.5C 303.722,316.699 308.722,303.699 313.5,290.5C 318.385,289.198 323.218,289.198 328,290.5C 333.403,303.303 338.236,316.303 342.5,329.5 Z M 324.5,311.5 C 322.052,312.473 319.385,312.806 316.5,312.5C 317.697,308.37 319.197,304.37 321,300.5C 322.018,304.249 323.185,307.916 324.5,311.5 Z"/></g>
<g><path style="opacity:1" fill="#eaeaea" d="M 370.5,311.5 C 371.301,313.793 371.968,313.46 372.5,310.5C 374.325,303.87 376.158,297.203 378,290.5C 382.401,289.533 386.901,289.2 391.5,289.5C 394.152,302.775 396.485,316.108 398.5,329.5C 394.498,329.964 390.831,329.298 387.5,327.5C 386.221,321.214 385.221,314.881 384.5,308.5C 384.769,306.571 384.269,304.905 383,303.5C 382.517,304.448 382.351,305.448 382.5,306.5C 381.297,313.977 379.464,321.31 377,328.5C 373.929,330.768 370.596,331.101 367,329.5C 364.177,321.203 361.51,312.869 359,304.5C 357.498,312.846 355.998,321.18 354.5,329.5C 350.671,330.069 347.337,329.402 344.5,327.5C 346.472,314.828 349.139,302.328 352.5,290C 356.541,289.173 360.541,289.34 364.5,290.5C 366.91,297.396 368.91,304.396 370.5,311.5 Z"/></g>
<g><path style="opacity:0.371" fill="#565656" d="M 233.5,289.5 C 233.5,302.833 233.5,316.167 233.5,329.5C 236.833,329.5 240.167,329.5 243.5,329.5C 240.038,330.482 236.371,330.815 232.5,330.5C 232.171,316.656 232.504,302.99 233.5,289.5 Z"/></g>
<g><path style="opacity:0.786" fill="#909090" d="M 259.5,289.5 C 260.473,291.948 260.806,294.615 260.5,297.5C 255.167,297.5 249.833,297.5 244.5,297.5C 244.167,297.5 243.833,297.5 243.5,297.5C 248.64,296.512 253.974,296.179 259.5,296.5C 259.5,294.167 259.5,291.833 259.5,289.5 Z"/></g>
<g><path style="opacity:0.529" fill="#636363" d="M 243.5,297.5 C 243.833,297.5 244.167,297.5 244.5,297.5C 244.5,300.167 244.5,302.833 244.5,305.5C 249.5,305.5 254.5,305.5 259.5,305.5C 259.806,308.385 259.473,311.052 258.5,313.5C 258.5,311.167 258.5,308.833 258.5,306.5C 253.5,306.5 248.5,306.5 243.5,306.5C 243.5,303.5 243.5,300.5 243.5,297.5 Z"/></g>
<g><path style="opacity:0.276" fill="#505050" d="M 276.5,297.5 C 276.5,300.167 276.5,302.833 276.5,305.5C 278.5,305.5 280.5,305.5 282.5,305.5C 280.393,306.468 278.059,306.802 275.5,306.5C 275.19,303.287 275.523,300.287 276.5,297.5 Z"/></g>
<g><path style="opacity:0.459" fill="#5e5e5e" d="M 384.5,308.5 C 383.833,307.833 383.167,307.167 382.5,306.5C 382.351,305.448 382.517,304.448 383,303.5C 384.269,304.905 384.769,306.571 384.5,308.5 Z"/></g>
<g><path style="opacity:0.204" fill="#4d4d4d" d="M 128.5,307.5 C 127.833,307.833 127.167,308.167 126.5,308.5C 127.032,305.54 127.699,305.207 128.5,307.5 Z"/></g>
<g><path style="opacity:0.353" fill="#444444" d="M 372.5,310.5 C 371.968,313.46 371.301,313.793 370.5,311.5C 371.167,311.167 371.833,310.833 372.5,310.5 Z"/></g>
<g><path style="opacity:0.108" fill="#232323" d="M 324.5,311.5 C 325.043,311.56 325.376,311.893 325.5,312.5C 322.355,313.803 319.355,313.803 316.5,312.5C 319.385,312.806 322.052,312.473 324.5,311.5 Z"/></g>
<g><path style="opacity:0.671" fill="#6a6a6a" d="M 114.5,310.5 C 115.167,311.167 115.833,311.833 116.5,312.5C 116.631,313.376 116.298,314.043 115.5,314.5C 114.571,313.311 114.238,311.978 114.5,310.5 Z"/></g>
<g><path style="opacity:0.241" fill="#3f3f3f" d="M 265.5,289.5 C 265.5,302.833 265.5,316.167 265.5,329.5C 268.833,329.5 272.167,329.5 275.5,329.5C 275.5,324.167 275.5,318.833 275.5,313.5C 277.415,313.216 279.081,313.549 280.5,314.5C 279.167,314.5 277.833,314.5 276.5,314.5C 276.5,319.833 276.5,325.167 276.5,330.5C 272.5,330.5 268.5,330.5 264.5,330.5C 264.171,316.656 264.504,302.99 265.5,289.5 Z"/></g>
<g><path style="opacity:0.628" fill="#9c9c9c" d="M 313.5,321.5 C 315.81,320.836 318.31,320.503 321,320.5C 323.929,320.525 326.429,321.191 328.5,322.5C 323.595,321.555 318.595,321.221 313.5,321.5 Z"/></g>
<g><path style="opacity:0.186" fill="#2f2f2f" d="M 134.5,328.5 C 138.4,329.43 142.4,329.763 146.5,329.5C 144.696,330.162 142.696,330.495 140.5,330.5C 138.048,330.461 136.048,329.794 134.5,328.5 Z"/></g>
<g><path style="opacity:0.171" fill="#474747" d="M 202.5,289.5 C 202.5,302.833 202.5,316.167 202.5,329.5C 211.167,329.5 219.833,329.5 228.5,329.5C 228.5,326.833 228.5,324.167 228.5,321.5C 229.477,324.287 229.81,327.287 229.5,330.5C 220.167,330.5 210.833,330.5 201.5,330.5C 201.171,316.656 201.504,302.99 202.5,289.5 Z"/></g>
<g><path style="opacity:0.161" fill="#2a2a2a" d="M 344.5,327.5 C 347.337,329.402 350.671,330.069 354.5,329.5C 346.5,330.833 338.5,330.833 330.5,329.5C 334.5,329.5 338.5,329.5 342.5,329.5C 343.167,328.833 343.833,328.167 344.5,327.5 Z"/></g>
<g><path style="opacity:0.169" fill="#313131" d="M 387.5,327.5 C 390.831,329.298 394.498,329.964 398.5,329.5C 395.038,330.482 391.371,330.815 387.5,330.5C 387.5,329.5 387.5,328.5 387.5,327.5 Z"/></g>
</svg>
